{
  "accessors" : [ {
    "bufferView" : 0,
    "componentType" : 5126,
    "count" : 6108,
    "type" : "VEC3",
    "max" : [ 46.0, 2.5, 63.0 ],
    "min" : [ -51.0, -22.5, -61.0 ]
  }, {
    "bufferView" : 1,
    "componentType" : 5126,
    "count" : 6108,
    "type" : "VEC2"
  }, {
    "bufferView" : 2,
    "componentType" : 5126,
    "count" : 6108,
    "type" : "VEC4"
  }, {
    "bufferView" : 3,
    "componentType" : 5125,
    "count" : 9162,
    "type" : "SCALAR"
  }, {
    "bufferView" : 4,
    "componentType" : 5126,
    "count" : 48,
    "type" : "VEC3",
    "max" : [ 25.199997, -0.5, 47.933346 ],
    "min" : [ -38.1, -8.5, 21.866655 ]
  }, {
    "bufferView" : 5,
    "componentType" : 5126,
    "count" : 48,
    "type" : "VEC2"
  }, {
    "bufferView" : 6,
    "componentType" : 5126,
    "count" : 48,
    "type" : "VEC4"
  }, {
    "bufferView" : 7,
    "componentType" : 5125,
    "count" : 72,
    "type" : "SCALAR"
  }, {
    "bufferView" : 8,
    "componentType" : 5126,
    "count" : 1752,
    "type" : "VEC3",
    "max" : [ 52.0, 18.5, -30.0 ],
    "min" : [ 32.0, -1.5, -50.0 ]
  }, {
    "bufferView" : 9,
    "componentType" : 5126,
    "count" : 1752,
    "type" : "VEC2"
  }, {
    "bufferView" : 10,
    "componentType" : 5126,
    "count" : 1752,
    "type" : "VEC4"
  }, {
    "bufferView" : 11,
    "componentType" : 5125,
    "count" : 2628,
    "type" : "SCALAR"
  }, {
    "bufferView" : 12,
    "componentType" : 5126,
    "count" : 100,
    "type" : "VEC3",
    "max" : [ 35.0, 23.5, -32.0 ],
    "min" : [ 24.0, -3.5, -58.0 ]
  }, {
    "bufferView" : 13,
    "componentType" : 5126,
    "count" : 100,
    "type" : "VEC2"
  }, {
    "bufferView" : 14,
    "componentType" : 5126,
    "count" : 100,
    "type" : "VEC4"
  }, {
    "bufferView" : 15,
    "componentType" : 5125,
    "count" : 150,
    "type" : "SCALAR"
  }, {
    "bufferView" : 16,
    "componentType" : 5126,
    "count" : 1180,
    "type" : "VEC3",
    "max" : [ 48.0, -9.5, 63.0 ],
    "min" : [ -51.0, -22.5, -54.0 ]
  }, {
    "bufferView" : 17,
    "componentType" : 5126,
    "count" : 1180,
    "type" : "VEC2"
  }, {
    "bufferView" : 18,
    "componentType" : 5126,
    "count" : 1180,
    "type" : "VEC4"
  }, {
    "bufferView" : 19,
    "componentType" : 5125,
    "count" : 1770,
    "type" : "SCALAR"
  }, {
    "bufferView" : 20,
    "componentType" : 5126,
    "count" : 788,
    "type" : "VEC3",
    "max" : [ 52.0, 17.5, 63.0 ],
    "min" : [ -51.0, -22.5, -62.0 ]
  }, {
    "bufferView" : 21,
    "componentType" : 5126,
    "count" : 788,
    "type" : "VEC2"
  }, {
    "bufferView" : 22,
    "componentType" : 5126,
    "count" : 788,
    "type" : "VEC4"
  }, {
    "bufferView" : 23,
    "componentType" : 5125,
    "count" : 1182,
    "type" : "SCALAR"
  }, {
    "bufferView" : 24,
    "componentType" : 5126,
    "count" : 1084,
    "type" : "VEC3",
    "max" : [ 52.0, 7.5, 63.0 ],
    "min" : [ -51.0, -22.5, -62.0 ]
  }, {
    "bufferView" : 25,
    "componentType" : 5126,
    "count" : 1084,
    "type" : "VEC2"
  }, {
    "bufferView" : 26,
    "componentType" : 5126,
    "count" : 1084,
    "type" : "VEC4"
  }, {
    "bufferView" : 27,
    "componentType" : 5125,
    "count" : 1626,
    "type" : "SCALAR"
  }, {
    "bufferView" : 28,
    "componentType" : 5126,
    "count" : 32,
    "type" : "VEC3",
    "max" : [ 20.066664, -4.5, 1.9333456 ],
    "min" : [ -47.1, -9.5, -15.733346 ]
  }, {
    "bufferView" : 29,
    "componentType" : 5126,
    "count" : 32,
    "type" : "VEC2"
  }, {
    "bufferView" : 30,
    "componentType" : 5126,
    "count" : 32,
    "type" : "VEC4"
  }, {
    "bufferView" : 31,
    "componentType" : 5125,
    "count" : 48,
    "type" : "SCALAR"
  }, {
    "bufferView" : 32,
    "componentType" : 5126,
    "count" : 400,
    "type" : "VEC3",
    "max" : [ 38.999996, 22.5, 52.00001 ],
    "min" : [ -46.73333, -10.5, -58.700012 ]
  }, {
    "bufferView" : 33,
    "componentType" : 5126,
    "count" : 400,
    "type" : "VEC2"
  }, {
    "bufferView" : 34,
    "componentType" : 5126,
    "count" : 400,
    "type" : "VEC4"
  }, {
    "bufferView" : 35,
    "componentType" : 5125,
    "count" : 600,
    "type" : "SCALAR"
  }, {
    "bufferView" : 36,
    "componentType" : 5126,
    "count" : 3960,
    "type" : "VEC3",
    "max" : [ 52.0, -11.5, 53.0 ],
    "min" : [ -30.0, -22.5, -62.0 ]
  }, {
    "bufferView" : 37,
    "componentType" : 5126,
    "count" : 3960,
    "type" : "VEC2"
  }, {
    "bufferView" : 38,
    "componentType" : 5126,
    "count" : 3960,
    "type" : "VEC4"
  }, {
    "bufferView" : 39,
    "componentType" : 5125,
    "count" : 5940,
    "type" : "SCALAR"
  }, {
    "bufferView" : 40,
    "componentType" : 5126,
    "count" : 32812,
    "type" : "VEC3",
    "max" : [ 52.0, 23.5, 63.0 ],
    "min" : [ -51.0, -22.5, -62.0 ]
  }, {
    "bufferView" : 41,
    "componentType" : 5126,
    "count" : 32812,
    "type" : "VEC2"
  }, {
    "bufferView" : 42,
    "componentType" : 5126,
    "count" : 32812,
    "type" : "VEC4"
  }, {
    "bufferView" : 43,
    "componentType" : 5125,
    "count" : 49218,
    "type" : "SCALAR"
  }, {
    "bufferView" : 44,
    "componentType" : 5126,
    "count" : 992,
    "type" : "VEC3",
    "max" : [ 17.0, 2.5, 49.0 ],
    "min" : [ -28.0, -22.5, -62.0 ]
  }, {
    "bufferView" : 45,
    "componentType" : 5126,
    "count" : 992,
    "type" : "VEC2"
  }, {
    "bufferView" : 46,
    "componentType" : 5126,
    "count" : 992,
    "type" : "VEC4"
  }, {
    "bufferView" : 47,
    "componentType" : 5125,
    "count" : 1488,
    "type" : "SCALAR"
  }, {
    "bufferView" : 48,
    "componentType" : 5126,
    "count" : 96,
    "type" : "VEC3",
    "max" : [ 24.0, -7.0792923, 31.0 ],
    "min" : [ 22.0, -9.52071, 25.0 ]
  }, {
    "bufferView" : 49,
    "componentType" : 5126,
    "count" : 96,
    "type" : "VEC2"
  }, {
    "bufferView" : 50,
    "componentType" : 5126,
    "count" : 96,
    "type" : "VEC4"
  }, {
    "bufferView" : 51,
    "componentType" : 5125,
    "count" : 144,
    "type" : "SCALAR"
  }, {
    "bufferView" : 52,
    "componentType" : 5126,
    "count" : 5072,
    "type" : "VEC3",
    "max" : [ 52.0, -10.5, 63.0 ],
    "min" : [ -51.0, -22.5, -62.0 ]
  }, {
    "bufferView" : 53,
    "componentType" : 5126,
    "count" : 5072,
    "type" : "VEC2"
  }, {
    "bufferView" : 54,
    "componentType" : 5126,
    "count" : 5072,
    "type" : "VEC4"
  }, {
    "bufferView" : 55,
    "componentType" : 5125,
    "count" : 7608,
    "type" : "SCALAR"
  }, {
    "bufferView" : 56,
    "componentType" : 5126,
    "count" : 55052,
    "type" : "VEC3",
    "max" : [ 52.0, 23.5, 63.0 ],
    "min" : [ -51.0, -11.5, -62.0 ]
  }, {
    "bufferView" : 57,
    "componentType" : 5126,
    "count" : 55052,
    "type" : "VEC2"
  }, {
    "bufferView" : 58,
    "componentType" : 5126,
    "count" : 55052,
    "type" : "VEC4"
  }, {
    "bufferView" : 59,
    "componentType" : 5125,
    "count" : 82578,
    "type" : "SCALAR"
  }, {
    "bufferView" : 60,
    "componentType" : 5126,
    "count" : 23324,
    "type" : "VEC3",
    "max" : [ 52.000793, 23.5, 63.000793 ],
    "min" : [ -51.000793, -11.5, -62.000793 ]
  }, {
    "bufferView" : 61,
    "componentType" : 5126,
    "count" : 23324,
    "type" : "VEC2"
  }, {
    "bufferView" : 62,
    "componentType" : 5126,
    "count" : 23324,
    "type" : "VEC4"
  }, {
    "bufferView" : 63,
    "componentType" : 5125,
    "count" : 34986,
    "type" : "SCALAR"
  }, {
    "bufferView" : 64,
    "componentType" : 5126,
    "count" : 7744,
    "type" : "VEC3",
    "max" : [ 52.0, 22.5, 63.0 ],
    "min" : [ -51.0, -22.5, -62.0 ]
  }, {
    "bufferView" : 65,
    "componentType" : 5126,
    "count" : 7744,
    "type" : "VEC2"
  }, {
    "bufferView" : 66,
    "componentType" : 5126,
    "count" : 7744,
    "type" : "VEC4"
  }, {
    "bufferView" : 67,
    "componentType" : 5125,
    "count" : 11616,
    "type" : "SCALAR"
  }, {
    "bufferView" : 68,
    "componentType" : 5126,
    "count" : 44,
    "type" : "VEC3",
    "max" : [ 52.0, -5.5, 55.0 ],
    "min" : [ -17.0, -22.5, -47.0 ]
  }, {
    "bufferView" : 69,
    "componentType" : 5126,
    "count" : 44,
    "type" : "VEC2"
  }, {
    "bufferView" : 70,
    "componentType" : 5126,
    "count" : 44,
    "type" : "VEC4"
  }, {
    "bufferView" : 71,
    "componentType" : 5125,
    "count" : 66,
    "type" : "SCALAR"
  }, {
    "bufferView" : 72,
    "componentType" : 5126,
    "count" : 36,
    "type" : "VEC3",
    "max" : [ 51.0, -22.5, 21.0 ],
    "min" : [ 30.0, -22.5, -9.0 ]
  }, {
    "bufferView" : 73,
    "componentType" : 5126,
    "count" : 36,
    "type" : "VEC2"
  }, {
    "bufferView" : 74,
    "componentType" : 5126,
    "count" : 36,
    "type" : "VEC4"
  }, {
    "bufferView" : 75,
    "componentType" : 5125,
    "count" : 54,
    "type" : "SCALAR"
  }, {
    "bufferView" : 76,
    "componentType" : 5126,
    "count" : 11688,
    "type" : "VEC3",
    "max" : [ 52.0, 23.5, 20.0 ],
    "min" : [ -40.0, -1.5, -62.0 ]
  }, {
    "bufferView" : 77,
    "componentType" : 5126,
    "count" : 11688,
    "type" : "VEC2"
  }, {
    "bufferView" : 78,
    "componentType" : 5126,
    "count" : 11688,
    "type" : "VEC4"
  }, {
    "bufferView" : 79,
    "componentType" : 5125,
    "count" : 17532,
    "type" : "SCALAR"
  }, {
    "bufferView" : 80,
    "componentType" : 5126,
    "count" : 1144,
    "type" : "VEC3",
    "max" : [ 47.0, 23.5, 18.0 ],
    "min" : [ -38.0, -3.5, -62.0 ]
  }, {
    "bufferView" : 81,
    "componentType" : 5126,
    "count" : 1144,
    "type" : "VEC2"
  }, {
    "bufferView" : 82,
    "componentType" : 5126,
    "count" : 1144,
    "type" : "VEC4"
  }, {
    "bufferView" : 83,
    "componentType" : 5125,
    "count" : 1716,
    "type" : "SCALAR"
  }, {
    "bufferView" : 84,
    "componentType" : 5126,
    "count" : 32,
    "type" : "VEC3",
    "max" : [ 30.166664, -7.5, 27.133345 ],
    "min" : [ 22.900003, -10.5, 1.2999878 ]
  }, {
    "bufferView" : 85,
    "componentType" : 5126,
    "count" : 32,
    "type" : "VEC2"
  }, {
    "bufferView" : 86,
    "componentType" : 5126,
    "count" : 32,
    "type" : "VEC4"
  }, {
    "bufferView" : 87,
    "componentType" : 5125,
    "count" : 48,
    "type" : "SCALAR"
  }, {
    "bufferView" : 88,
    "componentType" : 5126,
    "count" : 736,
    "type" : "VEC3",
    "max" : [ 16.066664, -1.5, 47.825012 ],
    "min" : [ -27.074997, -22.5, -62.00001 ]
  }, {
    "bufferView" : 89,
    "componentType" : 5126,
    "count" : 736,
    "type" : "VEC2"
  }, {
    "bufferView" : 90,
    "componentType" : 5126,
    "count" : 736,
    "type" : "VEC4"
  }, {
    "bufferView" : 91,
    "componentType" : 5125,
    "count" : 1104,
    "type" : "SCALAR"
  }, {
    "bufferView" : 92,
    "componentType" : 5126,
    "count" : 176,
    "type" : "VEC3",
    "max" : [ 41.699997, 22.5, 53.00001 ],
    "min" : [ -36.699997, -9.5, -62.066677 ]
  }, {
    "bufferView" : 93,
    "componentType" : 5126,
    "count" : 176,
    "type" : "VEC2"
  }, {
    "bufferView" : 94,
    "componentType" : 5126,
    "count" : 176,
    "type" : "VEC4"
  }, {
    "bufferView" : 95,
    "componentType" : 5125,
    "count" : 264,
    "type" : "SCALAR"
  }, {
    "bufferView" : 96,
    "componentType" : 5126,
    "count" : 12176,
    "type" : "VEC3",
    "max" : [ 52.0, -8.5, 63.0 ],
    "min" : [ -51.0, -22.5, -51.0 ]
  }, {
    "bufferView" : 97,
    "componentType" : 5126,
    "count" : 12176,
    "type" : "VEC2"
  }, {
    "bufferView" : 98,
    "componentType" : 5126,
    "count" : 12176,
    "type" : "VEC4"
  }, {
    "bufferView" : 99,
    "componentType" : 5125,
    "count" : 18264,
    "type" : "SCALAR"
  }, {
    "bufferView" : 100,
    "componentType" : 5126,
    "count" : 10176,
    "type" : "VEC3",
    "max" : [ 52.0, -10.5, 63.0 ],
    "min" : [ -51.0, -22.5, -50.0 ]
  }, {
    "bufferView" : 101,
    "componentType" : 5126,
    "count" : 10176,
    "type" : "VEC2"
  }, {
    "bufferView" : 102,
    "componentType" : 5126,
    "count" : 10176,
    "type" : "VEC4"
  }, {
    "bufferView" : 103,
    "componentType" : 5125,
    "count" : 15264,
    "type" : "SCALAR"
  }, {
    "bufferView" : 104,
    "componentType" : 5126,
    "count" : 15792,
    "type" : "VEC3",
    "max" : [ 52.166664, 23.5, 63.100014 ],
    "min" : [ -51.166664, -10.7, -62.00001 ]
  }, {
    "bufferView" : 105,
    "componentType" : 5126,
    "count" : 15792,
    "type" : "VEC2"
  }, {
    "bufferView" : 106,
    "componentType" : 5126,
    "count" : 15792,
    "type" : "VEC4"
  }, {
    "bufferView" : 107,
    "componentType" : 5125,
    "count" : 23688,
    "type" : "SCALAR"
  }, {
    "bufferView" : 108,
    "componentType" : 5126,
    "count" : 78508,
    "type" : "VEC3",
    "max" : [ 52.0, 23.5, 63.0 ],
    "min" : [ -51.0, -22.5, -62.0 ]
  }, {
    "bufferView" : 109,
    "componentType" : 5126,
    "count" : 78508,
    "type" : "VEC2"
  }, {
    "bufferView" : 110,
    "componentType" : 5126,
    "count" : 78508,
    "type" : "VEC4"
  }, {
    "bufferView" : 111,
    "componentType" : 5125,
    "count" : 117762,
    "type" : "SCALAR"
  }, {
    "bufferView" : 112,
    "componentType" : 5126,
    "count" : 144,
    "type" : "VEC3",
    "max" : [ 16.949997, -6.5, 47.950012 ],
    "min" : [ 15.050003, -10.5, 46.049988 ]
  }, {
    "bufferView" : 113,
    "componentType" : 5126,
    "count" : 144,
    "type" : "VEC2"
  }, {
    "bufferView" : 114,
    "componentType" : 5126,
    "count" : 144,
    "type" : "VEC4"
  }, {
    "bufferView" : 115,
    "componentType" : 5125,
    "count" : 216,
    "type" : "SCALAR"
  }, {
    "bufferView" : 116,
    "componentType" : 5126,
    "count" : 800,
    "type" : "VEC3",
    "max" : [ -27.233335, 4.5, 61.733345 ],
    "min" : [ -50.199997, -0.5, 48.19999 ]
  }, {
    "bufferView" : 117,
    "componentType" : 5126,
    "count" : 800,
    "type" : "VEC2"
  }, {
    "bufferView" : 118,
    "componentType" : 5126,
    "count" : 800,
    "type" : "VEC4"
  }, {
    "bufferView" : 119,
    "componentType" : 5125,
    "count" : 1200,
    "type" : "SCALAR"
  }, {
    "bufferView" : 120,
    "componentType" : 5126,
    "count" : 14528,
    "type" : "VEC3",
    "max" : [ 51.216667, -10.5, 61.883335 ],
    "min" : [ -51.183334, -22.5, -48.116665 ]
  }, {
    "bufferView" : 121,
    "componentType" : 5126,
    "count" : 14528,
    "type" : "VEC2"
  }, {
    "bufferView" : 122,
    "componentType" : 5126,
    "count" : 14528,
    "type" : "VEC4"
  }, {
    "bufferView" : 123,
    "componentType" : 5125,
    "count" : 21792,
    "type" : "SCALAR"
  } ],
  "asset" : {
    "generator" : "VoxelBridge",
    "version" : "2.0"
  },
  "buffers" : [ {
    "uri" : "region_135_51_263__237_96_387.bin",
    "byteLength" : 9741816
  }, {
    "uri" : "region_135_51_263__237_96_387.uv.bin",
    "byteLength" : 2292192
  } ],
  "bufferViews" : [ {
    "buffer" : 0,
    "byteOffset" : 0,
    "byteLength" : 73296,
    "target" : 34962
  }, {
    "buffer" : 1,
    "byteOffset" : 0,
    "byteLength" : 48864,
    "target" : 34962
  }, {
    "buffer" : 0,
    "byteOffset" : 73296,
    "byteLength" : 97728,
    "target" : 34962
  }, {
    "buffer" : 0,
    "byteOffset" : 171024,
    "byteLength" : 36648,
    "target" : 34963
  }, {
    "buffer" : 0,
    "byteOffset" : 207672,
    "byteLength" : 576,
    "target" : 34962
  }, {
    "buffer" : 1,
    "byteOffset" : 48864,
    "byteLength" : 384,
    "target" : 34962
  }, {
    "buffer" : 0,
    "byteOffset" : 208248,
    "byteLength" : 768,
    "target" : 34962
  }, {
    "buffer" : 0,
    "byteOffset" : 209016,
    "byteLength" : 288,
    "target" : 34963
  }, {
    "buffer" : 0,
    "byteOffset" : 209304,
    "byteLength" : 21024,
    "target" : 34962
  }, {
    "buffer" : 1,
    "byteOffset" : 49248,
    "byteLength" : 14016,
    "target" : 34962
  }, {
    "buffer" : 0,
    "byteOffset" : 230328,
    "byteLength" : 28032,
    "target" : 34962
  }, {
    "buffer" : 0,
    "byteOffset" : 258360,
    "byteLength" : 10512,
    "target" : 34963
  }, {
    "buffer" : 0,
    "byteOffset" : 268872,
    "byteLength" : 1200,
    "target" : 34962
  }, {
    "buffer" : 1,
    "byteOffset" : 63264,
    "byteLength" : 800,
    "target" : 34962
  }, {
    "buffer" : 0,
    "byteOffset" : 270072,
    "byteLength" : 1600,
    "target" : 34962
  }, {
    "buffer" : 0,
    "byteOffset" : 271672,
    "byteLength" : 600,
    "target" : 34963
  }, {
    "buffer" : 0,
    "byteOffset" : 272272,
    "byteLength" : 14160,
    "target" : 34962
  }, {
    "buffer" : 1,
    "byteOffset" : 64064,
    "byteLength" : 9440,
    "target" : 34962
  }, {
    "buffer" : 0,
    "byteOffset" : 286432,
    "byteLength" : 18880,
    "target" : 34962
  }, {
    "buffer" : 0,
    "byteOffset" : 305312,
    "byteLength" : 7080,
    "target" : 34963
  }, {
    "buffer" : 0,
    "byteOffset" : 312392,
    "byteLength" : 9456,
    "target" : 34962
  }, {
    "buffer" : 1,
    "byteOffset" : 73504,
    "byteLength" : 6304,
    "target" : 34962
  }, {
    "buffer" : 0,
    "byteOffset" : 321848,
    "byteLength" : 12608,
    "target" : 34962
  }, {
    "buffer" : 0,
    "byteOffset" : 334456,
    "byteLength" : 4728,
    "target" : 34963
  }, {
    "buffer" : 0,
    "byteOffset" : 339184,
    "byteLength" : 13008,
    "target" : 34962
  }, {
    "buffer" : 1,
    "byteOffset" : 79808,
    "byteLength" : 8672,
    "target" : 34962
  }, {
    "buffer" : 0,
    "byteOffset" : 352192,
    "byteLength" : 17344,
    "target" : 34962
  }, {
    "buffer" : 0,
    "byteOffset" : 369536,
    "byteLength" : 6504,
    "target" : 34963
  }, {
    "buffer" : 0,
    "byteOffset" : 376040,
    "byteLength" : 384,
    "target" : 34962
  }, {
    "buffer" : 1,
    "byteOffset" : 88480,
    "byteLength" : 256,
    "target" : 34962
  }, {
    "buffer" : 0,
    "byteOffset" : 376424,
    "byteLength" : 512,
    "target" : 34962
  }, {
    "buffer" : 0,
    "byteOffset" : 376936,
    "byteLength" : 192,
    "target" : 34963
  }, {
    "buffer" : 0,
    "byteOffset" : 377128,
    "byteLength" : 4800,
    "target" : 34962
  }, {
    "buffer" : 1,
    "byteOffset" : 88736,
    "byteLength" : 3200,
    "target" : 34962
  }, {
    "buffer" : 0,
    "byteOffset" : 381928,
    "byteLength" : 6400,
    "target" : 34962
  }, {
    "buffer" : 0,
    "byteOffset" : 388328,
    "byteLength" : 2400,
    "target" : 34963
  }, {
    "buffer" : 0,
    "byteOffset" : 390728,
    "byteLength" : 47520,
    "target" : 34962
  }, {
    "buffer" : 1,
    "byteOffset" : 91936,
    "byteLength" : 31680,
    "target" : 34962
  }, {
    "buffer" : 0,
    "byteOffset" : 438248,
    "byteLength" : 63360,
    "target" : 34962
  }, {
    "buffer" : 0,
    "byteOffset" : 501608,
    "byteLength" : 23760,
    "target" : 34963
  }, {
    "buffer" : 0,
    "byteOffset" : 525368,
    "byteLength" : 393744,
    "target" : 34962
  }, {
    "buffer" : 1,
    "byteOffset" : 123616,
    "byteLength" : 262496,
    "target" : 34962
  }, {
    "buffer" : 0,
    "byteOffset" : 919112,
    "byteLength" : 524992,
    "target" : 34962
  }, {
    "buffer" : 0,
    "byteOffset" : 1444104,
    "byteLength" : 196872,
    "target" : 34963
  }, {
    "buffer" : 0,
    "byteOffset" : 1640976,
    "byteLength" : 11904,
    "target" : 34962
  }, {
    "buffer" : 1,
    "byteOffset" : 386112,
    "byteLength" : 7936,
    "target" : 34962
  }, {
    "buffer" : 0,
    "byteOffset" : 1652880,
    "byteLength" : 15872,
    "target" : 34962
  }, {
    "buffer" : 0,
    "byteOffset" : 1668752,
    "byteLength" : 5952,
    "target" : 34963
  }, {
    "buffer" : 0,
    "byteOffset" : 1674704,
    "byteLength" : 1152,
    "target" : 34962
  }, {
    "buffer" : 1,
    "byteOffset" : 394048,
    "byteLength" : 768,
    "target" : 34962
  }, {
    "buffer" : 0,
    "byteOffset" : 1675856,
    "byteLength" : 1536,
    "target" : 34962
  }, {
    "buffer" : 0,
    "byteOffset" : 1677392,
    "byteLength" : 576,
    "target" : 34963
  }, {
    "buffer" : 0,
    "byteOffset" : 1677968,
    "byteLength" : 60864,
    "target" : 34962
  }, {
    "buffer" : 1,
    "byteOffset" : 394816,
    "byteLength" : 40576,
    "target" : 34962
  }, {
    "buffer" : 0,
    "byteOffset" : 1738832,
    "byteLength" : 81152,
    "target" : 34962
  }, {
    "buffer" : 0,
    "byteOffset" : 1819984,
    "byteLength" : 30432,
    "target" : 34963
  }, {
    "buffer" : 0,
    "byteOffset" : 1850416,
    "byteLength" : 660624,
    "target" : 34962
  }, {
    "buffer" : 1,
    "byteOffset" : 435392,
    "byteLength" : 440416,
    "target" : 34962
  }, {
    "buffer" : 0,
    "byteOffset" : 2511040,
    "byteLength" : 880832,
    "target" : 34962
  }, {
    "buffer" : 0,
    "byteOffset" : 3391872,
    "byteLength" : 330312,
    "target" : 34963
  }, {
    "buffer" : 0,
    "byteOffset" : 3722184,
    "byteLength" : 279888,
    "target" : 34962
  }, {
    "buffer" : 1,
    "byteOffset" : 875808,
    "byteLength" : 186592,
    "target" : 34962
  }, {
    "buffer" : 0,
    "byteOffset" : 4002072,
    "byteLength" : 373184,
    "target" : 34962
  }, {
    "buffer" : 0,
    "byteOffset" : 4375256,
    "byteLength" : 139944,
    "target" : 34963
  }, {
    "buffer" : 0,
    "byteOffset" : 4515200,
    "byteLength" : 92928,
    "target" : 34962
  }, {
    "buffer" : 1,
    "byteOffset" : 1062400,
    "byteLength" : 61952,
    "target" : 34962
  }, {
    "buffer" : 0,
    "byteOffset" : 4608128,
    "byteLength" : 123904,
    "target" : 34962
  }, {
    "buffer" : 0,
    "byteOffset" : 4732032,
    "byteLength" : 46464,
    "target" : 34963
  }, {
    "buffer" : 0,
    "byteOffset" : 4778496,
    "byteLength" : 528,
    "target" : 34962
  }, {
    "buffer" : 1,
    "byteOffset" : 1124352,
    "byteLength" : 352,
    "target" : 34962
  }, {
    "buffer" : 0,
    "byteOffset" : 4779024,
    "byteLength" : 704,
    "target" : 34962
  }, {
    "buffer" : 0,
    "byteOffset" : 4779728,
    "byteLength" : 264,
    "target" : 34963
  }, {
    "buffer" : 0,
    "byteOffset" : 4779992,
    "byteLength" : 432,
    "target" : 34962
  }, {
    "buffer" : 1,
    "byteOffset" : 1124704,
    "byteLength" : 288,
    "target" : 34962
  }, {
    "buffer" : 0,
    "byteOffset" : 4780424,
    "byteLength" : 576,
    "target" : 34962
  }, {
    "buffer" : 0,
    "byteOffset" : 4781000,
    "byteLength" : 216,
    "target" : 34963
  }, {
    "buffer" : 0,
    "byteOffset" : 4781216,
    "byteLength" : 140256,
    "target" : 34962
  }, {
    "buffer" : 1,
    "byteOffset" : 1124992,
    "byteLength" : 93504,
    "target" : 34962
  }, {
    "buffer" : 0,
    "byteOffset" : 4921472,
    "byteLength" : 187008,
    "target" : 34962
  }, {
    "buffer" : 0,
    "byteOffset" : 5108480,
    "byteLength" : 70128,
    "target" : 34963
  }, {
    "buffer" : 0,
    "byteOffset" : 5178608,
    "byteLength" : 13728,
    "target" : 34962
  }, {
    "buffer" : 1,
    "byteOffset" : 1218496,
    "byteLength" : 9152,
    "target" : 34962
  }, {
    "buffer" : 0,
    "byteOffset" : 5192336,
    "byteLength" : 18304,
    "target" : 34962
  }, {
    "buffer" : 0,
    "byteOffset" : 5210640,
    "byteLength" : 6864,
    "target" : 34963
  }, {
    "buffer" : 0,
    "byteOffset" : 5217504,
    "byteLength" : 384,
    "target" : 34962
  }, {
    "buffer" : 1,
    "byteOffset" : 1227648,
    "byteLength" : 256,
    "target" : 34962
  }, {
    "buffer" : 0,
    "byteOffset" : 5217888,
    "byteLength" : 512,
    "target" : 34962
  }, {
    "buffer" : 0,
    "byteOffset" : 5218400,
    "byteLength" : 192,
    "target" : 34963
  }, {
    "buffer" : 0,
    "byteOffset" : 5218592,
    "byteLength" : 8832,
    "target" : 34962
  }, {
    "buffer" : 1,
    "byteOffset" : 1227904,
    "byteLength" : 5888,
    "target" : 34962
  }, {
    "buffer" : 0,
    "byteOffset" : 5227424,
    "byteLength" : 11776,
    "target" : 34962
  }, {
    "buffer" : 0,
    "byteOffset" : 5239200,
    "byteLength" : 4416,
    "target" : 34963
  }, {
    "buffer" : 0,
    "byteOffset" : 5243616,
    "byteLength" : 2112,
    "target" : 34962
  }, {
    "buffer" : 1,
    "byteOffset" : 1233792,
    "byteLength" : 1408,
    "target" : 34962
  }, {
    "buffer" : 0,
    "byteOffset" : 5245728,
    "byteLength" : 2816,
    "target" : 34962
  }, {
    "buffer" : 0,
    "byteOffset" : 5248544,
    "byteLength" : 1056,
    "target" : 34963
  }, {
    "buffer" : 0,
    "byteOffset" : 5249600,
    "byteLength" : 146112,
    "target" : 34962
  }, {
    "buffer" : 1,
    "byteOffset" : 1235200,
    "byteLength" : 97408,
    "target" : 34962
  }, {
    "buffer" : 0,
    "byteOffset" : 5395712,
    "byteLength" : 194816,
    "target" : 34962
  }, {
    "buffer" : 0,
    "byteOffset" : 5590528,
    "byteLength" : 73056,
    "target" : 34963
  }, {
    "buffer" : 0,
    "byteOffset" : 5663584,
    "byteLength" : 122112,
    "target" : 34962
  }, {
    "buffer" : 1,
    "byteOffset" : 1332608,
    "byteLength" : 81408,
    "target" : 34962
  }, {
    "buffer" : 0,
    "byteOffset" : 5785696,
    "byteLength" : 162816,
    "target" : 34962
  }, {
    "buffer" : 0,
    "byteOffset" : 5948512,
    "byteLength" : 61056,
    "target" : 34963
  }, {
    "buffer" : 0,
    "byteOffset" : 6009568,
    "byteLength" : 189504,
    "target" : 34962
  }, {
    "buffer" : 1,
    "byteOffset" : 1414016,
    "byteLength" : 126336,
    "target" : 34962
  }, {
    "buffer" : 0,
    "byteOffset" : 6199072,
    "byteLength" : 252672,
    "target" : 34962
  }, {
    "buffer" : 0,
    "byteOffset" : 6451744,
    "byteLength" : 94752,
    "target" : 34963
  }, {
    "buffer" : 0,
    "byteOffset" : 6546496,
    "byteLength" : 942096,
    "target" : 34962
  }, {
    "buffer" : 1,
    "byteOffset" : 1540352,
    "byteLength" : 628064,
    "target" : 34962
  }, {
    "buffer" : 0,
    "byteOffset" : 7488592,
    "byteLength" : 1256128,
    "target" : 34962
  }, {
    "buffer" : 0,
    "byteOffset" : 8744720,
    "byteLength" : 471048,
    "target" : 34963
  }, {
    "buffer" : 0,
    "byteOffset" : 9215768,
    "byteLength" : 1728,
    "target" : 34962
  }, {
    "buffer" : 1,
    "byteOffset" : 2168416,
    "byteLength" : 1152,
    "target" : 34962
  }, {
    "buffer" : 0,
    "byteOffset" : 9217496,
    "byteLength" : 2304,
    "target" : 34962
  }, {
    "buffer" : 0,
    "byteOffset" : 9219800,
    "byteLength" : 864,
    "target" : 34963
  }, {
    "buffer" : 0,
    "byteOffset" : 9220664,
    "byteLength" : 9600,
    "target" : 34962
  }, {
    "buffer" : 1,
    "byteOffset" : 2169568,
    "byteLength" : 6400,
    "target" : 34962
  }, {
    "buffer" : 0,
    "byteOffset" : 9230264,
    "byteLength" : 12800,
    "target" : 34962
  }, {
    "buffer" : 0,
    "byteOffset" : 9243064,
    "byteLength" : 4800,
    "target" : 34963
  }, {
    "buffer" : 0,
    "byteOffset" : 9247864,
    "byteLength" : 174336,
    "target" : 34962
  }, {
    "buffer" : 1,
    "byteOffset" : 2175968,
    "byteLength" : 116224,
    "target" : 34962
  }, {
    "buffer" : 0,
    "byteOffset" : 9422200,
    "byteLength" : 232448,
    "target" : 34962
  }, {
    "buffer" : 0,
    "byteOffset" : 9654648,
    "byteLength" : 87168,
    "target" : 34963
  } ],
  "images" : [ {
    "uri" : "textures/atlas/atlas_1001.png"
  }, {
    "uri" : "textures/atlas/atlas_1001.png"
  }, {
    "uri" : "textures/atlas/atlas_1001.png"
  }, {
    "uri" : "textures/atlas/atlas_1001.png"
  }, {
    "uri" : "textures/atlas/atlas_1001.png"
  }, {
    "uri" : "textures/atlas/atlas_1001.png"
  }, {
    "uri" : "textures/atlas/atlas_1001.png"
  }, {
    "uri" : "textures/atlas/atlas_1001.png"
  }, {
    "uri" : "textures/atlas/atlas_1001.png"
  }, {
    "uri" : "textures/atlas/atlas_1001.png"
  }, {
    "uri" : "textures/atlas/atlas_1001.png"
  }, {
    "uri" : "textures/atlas/atlas_1001.png"
  }, {
    "uri" : "textures/atlas/atlas_1001.png"
  }, {
    "uri" : "textures/atlas/atlas_1001.png"
  }, {
    "uri" : "textures/atlas/atlas_1001.png"
  }, {
    "uri" : "textures/atlas/atlas_1001.png"
  }, {
    "uri" : "textures/atlas/atlas_1001.png"
  }, {
    "uri" : "textures/atlas/atlas_1001.png"
  }, {
    "uri" : "textures/atlas/atlas_1001.png"
  }, {
    "uri" : "textures/atlas/atlas_1001.png"
  }, {
    "uri" : "textures/atlas/atlas_1001.png"
  }, {
    "uri" : "textures/atlas/atlas_1001.png"
  }, {
    "uri" : "textures/atlas/atlas_1001.png"
  }, {
    "uri" : "textures/atlas/atlas_1001.png"
  }, {
    "uri" : "textures/atlas/atlas_1001.png"
  }, {
    "uri" : "textures/atlas/atlas_1001.png"
  }, {
    "uri" : "textures/atlas/atlas_1001.png"
  }, {
    "uri" : "textures/atlas/atlas_1001.png"
  }, {
    "uri" : "textures/atlas/atlas_1001.png"
  }, {
    "uri" : "textures/atlas/atlas_1001.png"
  } ],
  "materials" : [ {
    "name" : "minecraft:andesite",
    "pbrMetallicRoughness" : {
      "baseColorTexture" : {
        "index" : 0
      },
      "metallicFactor" : 0.0,
      "roughnessFactor" : 1.0
    },
    "doubleSided" : false
  }, {
    "name" : "minecraft:azure_bluet",
    "pbrMetallicRoughness" : {
      "baseColorTexture" : {
        "index" : 1
      },
      "metallicFactor" : 0.0,
      "roughnessFactor" : 1.0
    },
    "doubleSided" : true
  }, {
    "name" : "minecraft:birch_leaves",
    "pbrMetallicRoughness" : {
      "baseColorTexture" : {
        "index" : 2
      },
      "metallicFactor" : 0.0,
      "roughnessFactor" : 1.0
    },
    "doubleSided" : false
  }, {
    "name" : "minecraft:birch_log",
    "pbrMetallicRoughness" : {
      "baseColorTexture" : {
        "index" : 3
      },
      "metallicFactor" : 0.0,
      "roughnessFactor" : 1.0
    },
    "doubleSided" : false
  }, {
    "name" : "minecraft:clay",
    "pbrMetallicRoughness" : {
      "baseColorTexture" : {
        "index" : 4
      },
      "metallicFactor" : 0.0,
      "roughnessFactor" : 1.0
    },
    "doubleSided" : false
  }, {
    "name" : "minecraft:coal_ore",
    "pbrMetallicRoughness" : {
      "baseColorTexture" : {
        "index" : 5
      },
      "metallicFactor" : 0.0,
      "roughnessFactor" : 1.0
    },
    "doubleSided" : false
  }, {
    "name" : "minecraft:copper_ore",
    "pbrMetallicRoughness" : {
      "baseColorTexture" : {
        "index" : 6
      },
      "metallicFactor" : 0.0,
      "roughnessFactor" : 1.0
    },
    "doubleSided" : false
  }, {
    "name" : "minecraft:cornflower",
    "pbrMetallicRoughness" : {
      "baseColorTexture" : {
        "index" : 7
      },
      "metallicFactor" : 0.0,
      "roughnessFactor" : 1.0
    },
    "doubleSided" : true
  }, {
    "name" : "minecraft:dandelion",
    "pbrMetallicRoughness" : {
      "baseColorTexture" : {
        "index" : 8
      },
      "metallicFactor" : 0.0,
      "roughnessFactor" : 1.0
    },
    "doubleSided" : true
  }, {
    "name" : "minecraft:diorite",
    "pbrMetallicRoughness" : {
      "baseColorTexture" : {
        "index" : 9
      },
      "metallicFactor" : 0.0,
      "roughnessFactor" : 1.0
    },
    "doubleSided" : false
  }, {
    "name" : "minecraft:dirt",
    "pbrMetallicRoughness" : {
      "baseColorTexture" : {
        "index" : 10
      },
      "metallicFactor" : 0.0,
      "roughnessFactor" : 1.0
    },
    "doubleSided" : false
  }, {
    "name" : "minecraft:dripstone_block",
    "pbrMetallicRoughness" : {
      "baseColorTexture" : {
        "index" : 11
      },
      "metallicFactor" : 0.0,
      "roughnessFactor" : 1.0
    },
    "doubleSided" : false
  }, {
    "name" : "minecraft:fire_emissive",
    "pbrMetallicRoughness" : {
      "baseColorTexture" : {
        "index" : 12
      },
      "metallicFactor" : 0.0,
      "roughnessFactor" : 1.0
    },
    "doubleSided" : false
  }, {
    "name" : "minecraft:granite",
    "pbrMetallicRoughness" : {
      "baseColorTexture" : {
        "index" : 13
      },
      "metallicFactor" : 0.0,
      "roughnessFactor" : 1.0
    },
    "doubleSided" : false
  }, {
    "name" : "minecraft:grass_block",
    "pbrMetallicRoughness" : {
      "baseColorTexture" : {
        "index" : 10
      },
      "metallicFactor" : 0.0,
      "roughnessFactor" : 1.0
    },
    "doubleSided" : false
  }, {
    "name" : "minecraft:grass_block_overlay",
    "pbrMetallicRoughness" : {
      "baseColorTexture" : {
        "index" : 14
      },
      "metallicFactor" : 0.0,
      "roughnessFactor" : 1.0
    },
    "doubleSided" : false
  }, {
    "name" : "minecraft:gravel",
    "pbrMetallicRoughness" : {
      "baseColorTexture" : {
        "index" : 15
      },
      "metallicFactor" : 0.0,
      "roughnessFactor" : 1.0
    },
    "doubleSided" : false
  }, {
    "name" : "minecraft:iron_ore",
    "pbrMetallicRoughness" : {
      "baseColorTexture" : {
        "index" : 16
      },
      "metallicFactor" : 0.0,
      "roughnessFactor" : 1.0
    },
    "doubleSided" : false
  }, {
    "name" : "minecraft:lapis_ore",
    "pbrMetallicRoughness" : {
      "baseColorTexture" : {
        "index" : 17
      },
      "metallicFactor" : 0.0,
      "roughnessFactor" : 1.0
    },
    "doubleSided" : false
  }, {
    "name" : "minecraft:oak_leaves",
    "pbrMetallicRoughness" : {
      "baseColorTexture" : {
        "index" : 18
      },
      "metallicFactor" : 0.0,
      "roughnessFactor" : 1.0
    },
    "doubleSided" : false
  }, {
    "name" : "minecraft:oak_log",
    "pbrMetallicRoughness" : {
      "baseColorTexture" : {
        "index" : 19
      },
      "metallicFactor" : 0.0,
      "roughnessFactor" : 1.0
    },
    "doubleSided" : false
  }, {
    "name" : "minecraft:oxeye_daisy",
    "pbrMetallicRoughness" : {
      "baseColorTexture" : {
        "index" : 20
      },
      "metallicFactor" : 0.0,
      "roughnessFactor" : 1.0
    },
    "doubleSided" : true
  }, {
    "name" : "minecraft:pointed_dripstone",
    "pbrMetallicRoughness" : {
      "baseColorTexture" : {
        "index" : 21
      },
      "metallicFactor" : 0.0,
      "roughnessFactor" : 1.0
    },
    "doubleSided" : false
  }, {
    "name" : "minecraft:poppy",
    "pbrMetallicRoughness" : {
      "baseColorTexture" : {
        "index" : 22
      },
      "metallicFactor" : 0.0,
      "roughnessFactor" : 1.0
    },
    "doubleSided" : true
  }, {
    "name" : "minecraft:sand",
    "pbrMetallicRoughness" : {
      "baseColorTexture" : {
        "index" : 23
      },
      "metallicFactor" : 0.0,
      "roughnessFactor" : 1.0
    },
    "doubleSided" : false
  }, {
    "name" : "minecraft:seagrass",
    "pbrMetallicRoughness" : {
      "baseColorTexture" : {
        "index" : 24
      },
      "metallicFactor" : 0.0,
      "roughnessFactor" : 1.0
    },
    "doubleSided" : true
  }, {
    "name" : "minecraft:short_grass",
    "pbrMetallicRoughness" : {
      "baseColorTexture" : {
        "index" : 25
      },
      "metallicFactor" : 0.0,
      "roughnessFactor" : 1.0
    },
    "doubleSided" : true
  }, {
    "name" : "minecraft:stone",
    "pbrMetallicRoughness" : {
      "baseColorTexture" : {
        "index" : 26
      },
      "metallicFactor" : 0.0,
      "roughnessFactor" : 1.0
    },
    "doubleSided" : false
  }, {
    "name" : "minecraft:sugar_cane",
    "pbrMetallicRoughness" : {
      "baseColorTexture" : {
        "index" : 27
      },
      "metallicFactor" : 0.0,
      "roughnessFactor" : 1.0
    },
    "doubleSided" : false
  }, {
    "name" : "minecraft:tall_grass",
    "pbrMetallicRoughness" : {
      "baseColorTexture" : {
        "index" : 28
      },
      "metallicFactor" : 0.0,
      "roughnessFactor" : 1.0
    },
    "doubleSided" : true
  }, {
    "name" : "minecraft:tall_seagrass",
    "pbrMetallicRoughness" : {
      "baseColorTexture" : {
        "index" : 29
      },
      "metallicFactor" : 0.0,
      "roughnessFactor" : 1.0
    },
    "doubleSided" : true
  } ],
  "meshes" : [ {
    "name" : "minecraft:andesite",
    "primitives" : [ {
      "attributes" : {
        "POSITION" : 0,
        "TEXCOORD_0" : 1,
        "COLOR_0" : 2
      },
      "indices" : 3,
      "material" : 0,
      "mode" : 4
    } ]
  }, {
    "name" : "minecraft:azure_bluet",
    "primitives" : [ {
      "attributes" : {
        "POSITION" : 4,
        "TEXCOORD_0" : 5,
        "COLOR_0" : 6
      },
      "indices" : 7,
      "material" : 1,
      "mode" : 4
    } ]
  }, {
    "name" : "minecraft:birch_leaves",
    "primitives" : [ {
      "attributes" : {
        "POSITION" : 8,
        "TEXCOORD_0" : 9,
        "COLOR_0" : 10
      },
      "indices" : 11,
      "material" : 2,
      "mode" : 4
    } ]
  }, {
    "name" : "minecraft:birch_log",
    "primitives" : [ {
      "attributes" : {
        "POSITION" : 12,
        "TEXCOORD_0" : 13,
        "COLOR_0" : 14
      },
      "indices" : 15,
      "material" : 3,
      "mode" : 4
    } ]
  }, {
    "name" : "minecraft:clay",
    "primitives" : [ {
      "attributes" : {
        "POSITION" : 16,
        "TEXCOORD_0" : 17,
        "COLOR_0" : 18
      },
      "indices" : 19,
      "material" : 4,
      "mode" : 4
    } ]
  }, {
    "name" : "minecraft:coal_ore",
    "primitives" : [ {
      "attributes" : {
        "POSITION" : 20,
        "TEXCOORD_0" : 21,
        "COLOR_0" : 22
      },
      "indices" : 23,
      "material" : 5,
      "mode" : 4
    } ]
  }, {
    "name" : "minecraft:copper_ore",
    "primitives" : [ {
      "attributes" : {
        "POSITION" : 24,
        "TEXCOORD_0" : 25,
        "COLOR_0" : 26
      },
      "indices" : 27,
      "material" : 6,
      "mode" : 4
    } ]
  }, {
    "name" : "minecraft:cornflower",
    "primitives" : [ {
      "attributes" : {
        "POSITION" : 28,
        "TEXCOORD_0" : 29,
        "COLOR_0" : 30
      },
      "indices" : 31,
      "material" : 7,
      "mode" : 4
    } ]
  }, {
    "name" : "minecraft:dandelion",
    "primitives" : [ {
      "attributes" : {
        "POSITION" : 32,
        "TEXCOORD_0" : 33,
        "COLOR_0" : 34
      },
      "indices" : 35,
      "material" : 8,
      "mode" : 4
    } ]
  }, {
    "name" : "minecraft:diorite",
    "primitives" : [ {
      "attributes" : {
        "POSITION" : 36,
        "TEXCOORD_0" : 37,
        "COLOR_0" : 38
      },
      "indices" : 39,
      "material" : 9,
      "mode" : 4
    } ]
  }, {
    "name" : "minecraft:dirt",
    "primitives" : [ {
      "attributes" : {
        "POSITION" : 40,
        "TEXCOORD_0" : 41,
        "COLOR_0" : 42
      },
      "indices" : 43,
      "material" : 10,
      "mode" : 4
    } ]
  }, {
    "name" : "minecraft:dripstone_block",
    "primitives" : [ {
      "attributes" : {
        "POSITION" : 44,
        "TEXCOORD_0" : 45,
        "COLOR_0" : 46
      },
      "indices" : 47,
      "material" : 11,
      "mode" : 4
    } ]
  }, {
    "name" : "minecraft:fire_emissive",
    "primitives" : [ {
      "attributes" : {
        "POSITION" : 48,
        "TEXCOORD_0" : 49,
        "COLOR_0" : 50
      },
      "indices" : 51,
      "material" : 12,
      "mode" : 4
    } ]
  }, {
    "name" : "minecraft:granite",
    "primitives" : [ {
      "attributes" : {
        "POSITION" : 52,
        "TEXCOORD_0" : 53,
        "COLOR_0" : 54
      },
      "indices" : 55,
      "material" : 13,
      "mode" : 4
    } ]
  }, {
    "name" : "minecraft:grass_block",
    "primitives" : [ {
      "attributes" : {
        "POSITION" : 56,
        "TEXCOORD_0" : 57,
        "COLOR_0" : 58
      },
      "indices" : 59,
      "material" : 14,
      "mode" : 4
    } ]
  }, {
    "name" : "minecraft:grass_block_overlay",
    "primitives" : [ {
      "attributes" : {
        "POSITION" : 60,
        "TEXCOORD_0" : 61,
        "COLOR_0" : 62
      },
      "indices" : 63,
      "material" : 15,
      "mode" : 4
    } ]
  }, {
    "name" : "minecraft:gravel",
    "primitives" : [ {
      "attributes" : {
        "POSITION" : 64,
        "TEXCOORD_0" : 65,
        "COLOR_0" : 66
      },
      "indices" : 67,
      "material" : 16,
      "mode" : 4
    } ]
  }, {
    "name" : "minecraft:iron_ore",
    "primitives" : [ {
      "attributes" : {
        "POSITION" : 68,
        "TEXCOORD_0" : 69,
        "COLOR_0" : 70
      },
      "indices" : 71,
      "material" : 17,
      "mode" : 4
    } ]
  }, {
    "name" : "minecraft:lapis_ore",
    "primitives" : [ {
      "attributes" : {
        "POSITION" : 72,
        "TEXCOORD_0" : 73,
        "COLOR_0" : 74
      },
      "indices" : 75,
      "material" : 18,
      "mode" : 4
    } ]
  }, {
    "name" : "minecraft:oak_leaves",
    "primitives" : [ {
      "attributes" : {
        "POSITION" : 76,
        "TEXCOORD_0" : 77,
        "COLOR_0" : 78
      },
      "indices" : 79,
      "material" : 19,
      "mode" : 4
    } ]
  }, {
    "name" : "minecraft:oak_log",
    "primitives" : [ {
      "attributes" : {
        "POSITION" : 80,
        "TEXCOORD_0" : 81,
        "COLOR_0" : 82
      },
      "indices" : 83,
      "material" : 20,
      "mode" : 4
    } ]
  }, {
    "name" : "minecraft:oxeye_daisy",
    "primitives" : [ {
      "attributes" : {
        "POSITION" : 84,
        "TEXCOORD_0" : 85,
        "COLOR_0" : 86
      },
      "indices" : 87,
      "material" : 21,
      "mode" : 4
    } ]
  }, {
    "name" : "minecraft:pointed_dripstone",
    "primitives" : [ {
      "attributes" : {
        "POSITION" : 88,
        "TEXCOORD_0" : 89,
        "COLOR_0" : 90
      },
      "indices" : 91,
      "material" : 22,
      "mode" : 4
    } ]
  }, {
    "name" : "minecraft:poppy",
    "primitives" : [ {
      "attributes" : {
        "POSITION" : 92,
        "TEXCOORD_0" : 93,
        "COLOR_0" : 94
      },
      "indices" : 95,
      "material" : 23,
      "mode" : 4
    } ]
  }, {
    "name" : "minecraft:sand",
    "primitives" : [ {
      "attributes" : {
        "POSITION" : 96,
        "TEXCOORD_0" : 97,
        "COLOR_0" : 98
      },
      "indices" : 99,
      "material" : 24,
      "mode" : 4
    } ]
  }, {
    "name" : "minecraft:seagrass",
    "primitives" : [ {
      "attributes" : {
        "POSITION" : 100,
        "TEXCOORD_0" : 101,
        "COLOR_0" : 102
      },
      "indices" : 103,
      "material" : 25,
      "mode" : 4
    } ]
  }, {
    "name" : "minecraft:short_grass",
    "primitives" : [ {
      "attributes" : {
        "POSITION" : 104,
        "TEXCOORD_0" : 105,
        "COLOR_0" : 106
      },
      "indices" : 107,
      "material" : 26,
      "mode" : 4
    } ]
  }, {
    "name" : "minecraft:stone",
    "primitives" : [ {
      "attributes" : {
        "POSITION" : 108,
        "TEXCOORD_0" : 109,
        "COLOR_0" : 110
      },
      "indices" : 111,
      "material" : 27,
      "mode" : 4
    } ]
  }, {
    "name" : "minecraft:sugar_cane",
    "primitives" : [ {
      "attributes" : {
        "POSITION" : 112,
        "TEXCOORD_0" : 113,
        "COLOR_0" : 114
      },
      "indices" : 115,
      "material" : 28,
      "mode" : 4
    } ]
  }, {
    "name" : "minecraft:tall_grass",
    "primitives" : [ {
      "attributes" : {
        "POSITION" : 116,
        "TEXCOORD_0" : 117,
        "COLOR_0" : 118
      },
      "indices" : 119,
      "material" : 29,
      "mode" : 4
    } ]
  }, {
    "name" : "minecraft:tall_seagrass",
    "primitives" : [ {
      "attributes" : {
        "POSITION" : 120,
        "TEXCOORD_0" : 121,
        "COLOR_0" : 122
      },
      "indices" : 123,
      "material" : 30,
      "mode" : 4
    } ]
  } ],
  "nodes" : [ {
    "name" : "minecraft:andesite",
    "mesh" : 0
  }, {
    "name" : "minecraft:azure_bluet",
    "mesh" : 1
  }, {
    "name" : "minecraft:birch_leaves",
    "mesh" : 2
  }, {
    "name" : "minecraft:birch_log",
    "mesh" : 3
  }, {
    "name" : "minecraft:clay",
    "mesh" : 4
  }, {
    "name" : "minecraft:coal_ore",
    "mesh" : 5
  }, {
    "name" : "minecraft:copper_ore",
    "mesh" : 6
  }, {
    "name" : "minecraft:cornflower",
    "mesh" : 7
  }, {
    "name" : "minecraft:dandelion",
    "mesh" : 8
  }, {
    "name" : "minecraft:diorite",
    "mesh" : 9
  }, {
    "name" : "minecraft:dirt",
    "mesh" : 10
  }, {
    "name" : "minecraft:dripstone_block",
    "mesh" : 11
  }, {
    "name" : "minecraft:fire_emissive",
    "mesh" : 12
  }, {
    "name" : "minecraft:granite",
    "mesh" : 13
  }, {
    "name" : "minecraft:grass_block",
    "mesh" : 14
  }, {
    "name" : "minecraft:grass_block_overlay",
    "mesh" : 15
  }, {
    "name" : "minecraft:gravel",
    "mesh" : 16
  }, {
    "name" : "minecraft:iron_ore",
    "mesh" : 17
  }, {
    "name" : "minecraft:lapis_ore",
    "mesh" : 18
  }, {
    "name" : "minecraft:oak_leaves",
    "mesh" : 19
  }, {
    "name" : "minecraft:oak_log",
    "mesh" : 20
  }, {
    "name" : "minecraft:oxeye_daisy",
    "mesh" : 21
  }, {
    "name" : "minecraft:pointed_dripstone",
    "mesh" : 22
  }, {
    "name" : "minecraft:poppy",
    "mesh" : 23
  }, {
    "name" : "minecraft:sand",
    "mesh" : 24
  }, {
    "name" : "minecraft:seagrass",
    "mesh" : 25
  }, {
    "name" : "minecraft:short_grass",
    "mesh" : 26
  }, {
    "name" : "minecraft:stone",
    "mesh" : 27
  }, {
    "name" : "minecraft:sugar_cane",
    "mesh" : 28
  }, {
    "name" : "minecraft:tall_grass",
    "mesh" : 29
  }, {
    "name" : "minecraft:tall_seagrass",
    "mesh" : 30
  } ],
  "samplers" : [ {
    "magFilter" : 9728,
    "minFilter" : 9728,
    "wrapS" : 10497,
    "wrapT" : 10497
  } ],
  "scene" : 0,
  "scenes" : [ {
    "nodes" : [ 0, 1, 2, 3, 4, 5, 6, 7, 8, 9, 10, 11, 12, 13, 14, 15, 16, 17, 18, 19, 20, 21, 22, 23, 24, 25, 26, 27, 28, 29, 30 ]
  } ],
  "textures" : [ {
    "sampler" : 0,
    "source" : 0
  }, {
    "sampler" : 0,
    "source" : 1
  }, {
    "sampler" : 0,
    "source" : 2
  }, {
    "sampler" : 0,
    "source" : 3
  }, {
    "sampler" : 0,
    "source" : 4
  }, {
    "sampler" : 0,
    "source" : 5
  }, {
    "sampler" : 0,
    "source" : 6
  }, {
    "sampler" : 0,
    "source" : 7
  }, {
    "sampler" : 0,
    "source" : 8
  }, {
    "sampler" : 0,
    "source" : 9
  }, {
    "sampler" : 0,
    "source" : 10
  }, {
    "sampler" : 0,
    "source" : 11
  }, {
    "sampler" : 0,
    "source" : 12
  }, {
    "sampler" : 0,
    "source" : 13
  }, {
    "sampler" : 0,
    "source" : 14
  }, {
    "sampler" : 0,
    "source" : 15
  }, {
    "sampler" : 0,
    "source" : 16
  }, {
    "sampler" : 0,
    "source" : 17
  }, {
    "sampler" : 0,
    "source" : 18
  }, {
    "sampler" : 0,
    "source" : 19
  }, {
    "sampler" : 0,
    "source" : 20
  }, {
    "sampler" : 0,
    "source" : 21
  }, {
    "sampler" : 0,
    "source" : 22
  }, {
    "sampler" : 0,
    "source" : 23
  }, {
    "sampler" : 0,
    "source" : 24
  }, {
    "sampler" : 0,
    "source" : 25
  }, {
    "sampler" : 0,
    "source" : 26
  }, {
    "sampler" : 0,
    "source" : 27
  }, {
    "sampler" : 0,
    "source" : 28
  }, {
    "sampler" : 0,
    "source" : 29
  } ]
}