{
  "accessors" : [ {
    "bufferView" : 0,
    "componentType" : 5126,
    "count" : 492,
    "type" : "VEC3",
    "max" : [ 3.5, 0.0, 5.0 ],
    "min" : [ -2.5, -2.0, -4.0 ]
  }, {
    "bufferView" : 1,
    "componentType" : 5126,
    "count" : 492,
    "type" : "VEC2"
  }, {
    "bufferView" : 2,
    "componentType" : 5126,
    "count" : 492,
    "type" : "VEC4"
  }, {
    "bufferView" : 3,
    "componentType" : 5125,
    "count" : 738,
    "type" : "SCALAR"
  }, {
    "bufferView" : 4,
    "componentType" : 5126,
    "count" : 12,
    "type" : "VEC3",
    "max" : [ 1.5, 0.87778854, 3.0 ],
    "min" : [ -0.5, 0.6656647, 1.0 ]
  }, {
    "bufferView" : 5,
    "componentType" : 5126,
    "count" : 12,
    "type" : "VEC2"
  }, {
    "bufferView" : 6,
    "componentType" : 5126,
    "count" : 12,
    "type" : "VEC4"
  }, {
    "bufferView" : 7,
    "componentType" : 5125,
    "count" : 18,
    "type" : "SCALAR"
  }, {
    "bufferView" : 8,
    "componentType" : 5126,
    "count" : 396,
    "type" : "VEC3",
    "max" : [ 3.5, 3.0, 5.0 ],
    "min" : [ -2.5, 0.0, -4.0 ]
  }, {
    "bufferView" : 9,
    "componentType" : 5126,
    "count" : 396,
    "type" : "VEC2"
  }, {
    "bufferView" : 10,
    "componentType" : 5126,
    "count" : 396,
    "type" : "VEC4"
  }, {
    "bufferView" : 11,
    "componentType" : 5125,
    "count" : 594,
    "type" : "SCALAR"
  }, {
    "bufferView" : 12,
    "componentType" : 5126,
    "count" : 216,
    "type" : "VEC3",
    "max" : [ 3.5007992, 3.0, 5.0008 ],
    "min" : [ -2.5008001, 0.0, -4.0008 ]
  }, {
    "bufferView" : 13,
    "componentType" : 5126,
    "count" : 216,
    "type" : "VEC2"
  }, {
    "bufferView" : 14,
    "componentType" : 5126,
    "count" : 216,
    "type" : "VEC4"
  }, {
    "bufferView" : 15,
    "componentType" : 5125,
    "count" : 324,
    "type" : "SCALAR"
  }, {
    "bufferView" : 16,
    "componentType" : 5126,
    "count" : 20,
    "type" : "VEC3",
    "max" : [ 1.5, 0.88788986, 3.0 ],
    "min" : [ -0.5, 0.85370255, -2.0 ]
  }, {
    "bufferView" : 17,
    "componentType" : 5126,
    "count" : 20,
    "type" : "VEC2"
  }, {
    "bufferView" : 18,
    "componentType" : 5126,
    "count" : 20,
    "type" : "VEC4"
  }, {
    "bufferView" : 19,
    "componentType" : 5125,
    "count" : 30,
    "type" : "SCALAR"
  } ],
  "asset" : {
    "generator" : "VoxelBridge",
    "version" : "2.0"
  },
  "buffers" : [ {
    "uri" : "region_14_-63_4__19_-59_12.bin",
    "byteLength" : 38624
  }, {
    "uri" : "region_14_-63_4__19_-59_12.uv.bin",
    "byteLength" : 9088
  } ],
  "bufferViews" : [ {
    "buffer" : 0,
    "byteOffset" : 0,
    "byteLength" : 5904,
    "target" : 34962
  }, {
    "buffer" : 1,
    "byteOffset" : 0,
    "byteLength" : 3936,
    "target" : 34962
  }, {
    "buffer" : 0,
    "byteOffset" : 5904,
    "byteLength" : 7872,
    "target" : 34962
  }, {
    "buffer" : 0,
    "byteOffset" : 13776,
    "byteLength" : 2952,
    "target" : 34963
  }, {
    "buffer" : 0,
    "byteOffset" : 16728,
    "byteLength" : 144,
    "target" : 34962
  }, {
    "buffer" : 1,
    "byteOffset" : 3936,
    "byteLength" : 96,
    "target" : 34962
  }, {
    "buffer" : 0,
    "byteOffset" : 16872,
    "byteLength" : 192,
    "target" : 34962
  }, {
    "buffer" : 0,
    "byteOffset" : 17064,
    "byteLength" : 72,
    "target" : 34963
  }, {
    "buffer" : 0,
    "byteOffset" : 17136,
    "byteLength" : 4752,
    "target" : 34962
  }, {
    "buffer" : 1,
    "byteOffset" : 4032,
    "byteLength" : 3168,
    "target" : 34962
  }, {
    "buffer" : 0,
    "byteOffset" : 21888,
    "byteLength" : 6336,
    "target" : 34962
  }, {
    "buffer" : 0,
    "byteOffset" : 28224,
    "byteLength" : 2376,
    "target" : 34963
  }, {
    "buffer" : 0,
    "byteOffset" : 30600,
    "byteLength" : 2592,
    "target" : 34962
  }, {
    "buffer" : 1,
    "byteOffset" : 7200,
    "byteLength" : 1728,
    "target" : 34962
  }, {
    "buffer" : 0,
    "byteOffset" : 33192,
    "byteLength" : 3456,
    "target" : 34962
  }, {
    "buffer" : 0,
    "byteOffset" : 36648,
    "byteLength" : 1296,
    "target" : 34963
  }, {
    "buffer" : 0,
    "byteOffset" : 37944,
    "byteLength" : 240,
    "target" : 34962
  }, {
    "buffer" : 1,
    "byteOffset" : 8928,
    "byteLength" : 160,
    "target" : 34962
  }, {
    "buffer" : 0,
    "byteOffset" : 38184,
    "byteLength" : 320,
    "target" : 34962
  }, {
    "buffer" : 0,
    "byteOffset" : 38504,
    "byteLength" : 120,
    "target" : 34963
  } ],
  "images" : [ {
    "uri" : "textures/atlas/atlas_1001.png"
  }, {
    "uri" : "textures/atlas/atlas_1001.png"
  }, {
    "uri" : "textures/atlas/atlas_1001.png"
  }, {
    "uri" : "textures/atlas/atlas_1001.png"
  } ],
  "materials" : [ {
    "name" : "minecraft:dirt",
    "pbrMetallicRoughness" : {
      "baseColorTexture" : {
        "index" : 0
      },
      "metallicFactor" : 0.0,
      "roughnessFactor" : 1.0
    },
    "doubleSided" : false
  }, {
    "name" : "minecraft:flowing_water",
    "pbrMetallicRoughness" : {
      "baseColorTexture" : {
        "index" : 1
      },
      "metallicFactor" : 0.0,
      "roughnessFactor" : 1.0
    },
    "doubleSided" : true
  }, {
    "name" : "minecraft:grass_block",
    "pbrMetallicRoughness" : {
      "baseColorTexture" : {
        "index" : 2
      },
      "metallicFactor" : 0.0,
      "roughnessFactor" : 1.0
    },
    "doubleSided" : false
  }, {
    "name" : "minecraft:grass_block_overlay",
    "pbrMetallicRoughness" : {
      "baseColorTexture" : {
        "index" : 3
      },
      "metallicFactor" : 0.0,
      "roughnessFactor" : 1.0
    },
    "doubleSided" : false
  }, {
    "name" : "minecraft:water",
    "pbrMetallicRoughness" : {
      "baseColorTexture" : {
        "index" : 1
      },
      "metallicFactor" : 0.0,
      "roughnessFactor" : 1.0
    },
    "doubleSided" : true
  } ],
  "meshes" : [ {
    "name" : "minecraft:dirt",
    "primitives" : [ {
      "attributes" : {
        "POSITION" : 0,
        "TEXCOORD_0" : 1,
        "COLOR_0" : 2
      },
      "indices" : 3,
      "material" : 0,
      "mode" : 4
    } ]
  }, {
    "name" : "minecraft:flowing_water",
    "primitives" : [ {
      "attributes" : {
        "POSITION" : 4,
        "TEXCOORD_0" : 5,
        "COLOR_0" : 6
      },
      "indices" : 7,
      "material" : 1,
      "mode" : 4
    } ]
  }, {
    "name" : "minecraft:grass_block",
    "primitives" : [ {
      "attributes" : {
        "POSITION" : 8,
        "TEXCOORD_0" : 9,
        "COLOR_0" : 10
      },
      "indices" : 11,
      "material" : 2,
      "mode" : 4
    } ]
  }, {
    "name" : "minecraft:grass_block_overlay",
    "primitives" : [ {
      "attributes" : {
        "POSITION" : 12,
        "TEXCOORD_0" : 13,
        "COLOR_0" : 14
      },
      "indices" : 15,
      "material" : 3,
      "mode" : 4
    } ]
  }, {
    "name" : "minecraft:water",
    "primitives" : [ {
      "attributes" : {
        "POSITION" : 16,
        "TEXCOORD_0" : 17,
        "COLOR_0" : 18
      },
      "indices" : 19,
      "material" : 4,
      "mode" : 4
    } ]
  } ],
  "nodes" : [ {
    "name" : "minecraft:dirt",
    "mesh" : 0
  }, {
    "name" : "minecraft:flowing_water",
    "mesh" : 1
  }, {
    "name" : "minecraft:grass_block",
    "mesh" : 2
  }, {
    "name" : "minecraft:grass_block_overlay",
    "mesh" : 3
  }, {
    "name" : "minecraft:water",
    "mesh" : 4
  } ],
  "samplers" : [ {
    "magFilter" : 9728,
    "minFilter" : 9728,
    "wrapS" : 10497,
    "wrapT" : 10497
  } ],
  "scene" : 0,
  "scenes" : [ {
    "nodes" : [ 0, 1, 2, 3, 4 ]
  } ],
  "textures" : [ {
    "sampler" : 0,
    "source" : 0
  }, {
    "sampler" : 0,
    "source" : 1
  }, {
    "sampler" : 0,
    "source" : 2
  }, {
    "sampler" : 0,
    "source" : 3
  } ]
}