{
  "accessors" : [ {
    "bufferView" : 0,
    "componentType" : 5126,
    "count" : 3432,
    "type" : "VEC3",
    "max" : [ 16.0, 21.5, 53.0 ],
    "min" : [ -14.0, -8.5, 14.0 ]
  }, {
    "bufferView" : 1,
    "componentType" : 5126,
    "count" : 3432,
    "type" : "VEC2"
  }, {
    "bufferView" : 2,
    "componentType" : 5126,
    "count" : 3432,
    "type" : "VEC4"
  }, {
    "bufferView" : 3,
    "componentType" : 5125,
    "count" : 5148,
    "type" : "SCALAR"
  }, {
    "bufferView" : 4,
    "componentType" : 5126,
    "count" : 520,
    "type" : "VEC3",
    "max" : [ 14.0, 40.5, 50.0 ],
    "min" : [ -59.0, -13.5, -14.0 ]
  }, {
    "bufferView" : 5,
    "componentType" : 5126,
    "count" : 520,
    "type" : "VEC2"
  }, {
    "bufferView" : 6,
    "componentType" : 5126,
    "count" : 520,
    "type" : "VEC4"
  }, {
    "bufferView" : 7,
    "componentType" : 5125,
    "count" : 780,
    "type" : "SCALAR"
  }, {
    "bufferView" : 8,
    "componentType" : 5126,
    "count" : 12908,
    "type" : "VEC3",
    "max" : [ 75.0, -2.5, 61.0 ],
    "min" : [ -74.0, -39.5, -60.0 ]
  }, {
    "bufferView" : 9,
    "componentType" : 5126,
    "count" : 12908,
    "type" : "VEC2"
  }, {
    "bufferView" : 10,
    "componentType" : 5126,
    "count" : 12908,
    "type" : "VEC4"
  }, {
    "bufferView" : 11,
    "componentType" : 5125,
    "count" : 19362,
    "type" : "SCALAR"
  }, {
    "bufferView" : 12,
    "componentType" : 5126,
    "count" : 64,
    "type" : "VEC3",
    "max" : [ 64.799995, 23.5, 29.933346 ],
    "min" : [ -41.7, -15.5, -57.733345 ]
  }, {
    "bufferView" : 13,
    "componentType" : 5126,
    "count" : 64,
    "type" : "VEC2"
  }, {
    "bufferView" : 14,
    "componentType" : 5126,
    "count" : 64,
    "type" : "VEC4"
  }, {
    "bufferView" : 15,
    "componentType" : 5125,
    "count" : 96,
    "type" : "SCALAR"
  }, {
    "bufferView" : 16,
    "componentType" : 5126,
    "count" : 384,
    "type" : "VEC3",
    "max" : [ -39.0, 40.5, -37.0 ],
    "min" : [ -44.0, 39.5, -42.0 ]
  }, {
    "bufferView" : 17,
    "componentType" : 5126,
    "count" : 384,
    "type" : "VEC2"
  }, {
    "bufferView" : 18,
    "componentType" : 5126,
    "count" : 384,
    "type" : "VEC4"
  }, {
    "bufferView" : 19,
    "componentType" : 5125,
    "count" : 576,
    "type" : "SCALAR"
  }, {
    "bufferView" : 20,
    "componentType" : 5126,
    "count" : 136,
    "type" : "VEC3",
    "max" : [ -41.0, 40.5, -39.0 ],
    "min" : [ -58.0, 36.5, -54.0 ]
  }, {
    "bufferView" : 21,
    "componentType" : 5126,
    "count" : 136,
    "type" : "VEC2"
  }, {
    "bufferView" : 22,
    "componentType" : 5126,
    "count" : 136,
    "type" : "VEC4"
  }, {
    "bufferView" : 23,
    "componentType" : 5125,
    "count" : 204,
    "type" : "SCALAR"
  }, {
    "bufferView" : 24,
    "componentType" : 5126,
    "count" : 16,
    "type" : "VEC3",
    "max" : [ 17.0, -9.5, 45.0 ],
    "min" : [ 16.0, -10.5, 44.0 ]
  }, {
    "bufferView" : 25,
    "componentType" : 5126,
    "count" : 16,
    "type" : "VEC2"
  }, {
    "bufferView" : 26,
    "componentType" : 5126,
    "count" : 16,
    "type" : "VEC4"
  }, {
    "bufferView" : 27,
    "componentType" : 5125,
    "count" : 24,
    "type" : "SCALAR"
  }, {
    "bufferView" : 28,
    "componentType" : 5126,
    "count" : 212,
    "type" : "VEC3",
    "max" : [ 63.0, -27.5, -39.0 ],
    "min" : [ 57.0, -34.5, -57.0 ]
  }, {
    "bufferView" : 29,
    "componentType" : 5126,
    "count" : 212,
    "type" : "VEC2"
  }, {
    "bufferView" : 30,
    "componentType" : 5126,
    "count" : 212,
    "type" : "VEC4"
  }, {
    "bufferView" : 31,
    "componentType" : 5125,
    "count" : 318,
    "type" : "SCALAR"
  }, {
    "bufferView" : 32,
    "componentType" : 5126,
    "count" : 2596,
    "type" : "VEC3",
    "max" : [ 75.0, 40.5, 61.0 ],
    "min" : [ -74.0, -39.5, -60.0 ]
  }, {
    "bufferView" : 33,
    "componentType" : 5126,
    "count" : 2596,
    "type" : "VEC2"
  }, {
    "bufferView" : 34,
    "componentType" : 5126,
    "count" : 2596,
    "type" : "VEC4"
  }, {
    "bufferView" : 35,
    "componentType" : 5125,
    "count" : 3894,
    "type" : "SCALAR"
  }, {
    "bufferView" : 36,
    "componentType" : 5126,
    "count" : 416,
    "type" : "VEC3",
    "max" : [ -27.0, -30.5, 19.0 ],
    "min" : [ -33.0, -34.5, 13.0 ]
  }, {
    "bufferView" : 37,
    "componentType" : 5126,
    "count" : 416,
    "type" : "VEC2"
  }, {
    "bufferView" : 38,
    "componentType" : 5126,
    "count" : 416,
    "type" : "VEC4"
  }, {
    "bufferView" : 39,
    "componentType" : 5125,
    "count" : 624,
    "type" : "SCALAR"
  }, {
    "bufferView" : 40,
    "componentType" : 5126,
    "count" : 4444,
    "type" : "VEC3",
    "max" : [ 75.0, 20.5, 61.0 ],
    "min" : [ -74.0, -39.5, -60.0 ]
  }, {
    "bufferView" : 41,
    "componentType" : 5126,
    "count" : 4444,
    "type" : "VEC2"
  }, {
    "bufferView" : 42,
    "componentType" : 5126,
    "count" : 4444,
    "type" : "VEC4"
  }, {
    "bufferView" : 43,
    "componentType" : 5125,
    "count" : 6666,
    "type" : "SCALAR"
  }, {
    "bufferView" : 44,
    "componentType" : 5126,
    "count" : 128,
    "type" : "VEC3",
    "max" : [ 55.799995, 23.5, 8.200012 ],
    "min" : [ -41.2, -19.5, -58.200012 ]
  }, {
    "bufferView" : 45,
    "componentType" : 5126,
    "count" : 128,
    "type" : "VEC2"
  }, {
    "bufferView" : 46,
    "componentType" : 5126,
    "count" : 128,
    "type" : "VEC4"
  }, {
    "bufferView" : 47,
    "componentType" : 5125,
    "count" : 192,
    "type" : "SCALAR"
  }, {
    "bufferView" : 48,
    "componentType" : 5126,
    "count" : 68,
    "type" : "VEC3",
    "max" : [ 23.0, -8.5, 47.0 ],
    "min" : [ 16.0, -11.5, 38.0 ]
  }, {
    "bufferView" : 49,
    "componentType" : 5126,
    "count" : 68,
    "type" : "VEC2"
  }, {
    "bufferView" : 50,
    "componentType" : 5126,
    "count" : 68,
    "type" : "VEC4"
  }, {
    "bufferView" : 51,
    "componentType" : 5125,
    "count" : 102,
    "type" : "SCALAR"
  }, {
    "bufferView" : 52,
    "componentType" : 5126,
    "count" : 68,
    "type" : "VEC3",
    "max" : [ 22.0, -3.5, 42.0 ],
    "min" : [ 17.0, -9.5, 41.0 ]
  }, {
    "bufferView" : 53,
    "componentType" : 5126,
    "count" : 68,
    "type" : "VEC2"
  }, {
    "bufferView" : 54,
    "componentType" : 5126,
    "count" : 68,
    "type" : "VEC4"
  }, {
    "bufferView" : 55,
    "componentType" : 5125,
    "count" : 102,
    "type" : "SCALAR"
  }, {
    "bufferView" : 56,
    "componentType" : 5126,
    "count" : 1024,
    "type" : "VEC3",
    "max" : [ 68.86666, 39.5, 34.00001 ],
    "min" : [ -47.733334, -19.5, -59.033344 ]
  }, {
    "bufferView" : 57,
    "componentType" : 5126,
    "count" : 1024,
    "type" : "VEC2"
  }, {
    "bufferView" : 58,
    "componentType" : 5126,
    "count" : 1024,
    "type" : "VEC4"
  }, {
    "bufferView" : 59,
    "componentType" : 5125,
    "count" : 1536,
    "type" : "SCALAR"
  }, {
    "bufferView" : 60,
    "componentType" : 5126,
    "count" : 11288,
    "type" : "VEC3",
    "max" : [ 75.0, -2.5, 61.0 ],
    "min" : [ -74.0, -39.5, -60.0 ]
  }, {
    "bufferView" : 61,
    "componentType" : 5126,
    "count" : 11288,
    "type" : "VEC2"
  }, {
    "bufferView" : 62,
    "componentType" : 5126,
    "count" : 11288,
    "type" : "VEC4"
  }, {
    "bufferView" : 63,
    "componentType" : 5125,
    "count" : 16932,
    "type" : "SCALAR"
  }, {
    "bufferView" : 64,
    "componentType" : 5126,
    "count" : 28756,
    "type" : "VEC3",
    "max" : [ 75.0, 40.5, 61.0 ],
    "min" : [ -74.0, -39.5, -60.0 ]
  }, {
    "bufferView" : 65,
    "componentType" : 5126,
    "count" : 28756,
    "type" : "VEC2"
  }, {
    "bufferView" : 66,
    "componentType" : 5126,
    "count" : 28756,
    "type" : "VEC4"
  }, {
    "bufferView" : 67,
    "componentType" : 5125,
    "count" : 43134,
    "type" : "SCALAR"
  }, {
    "bufferView" : 68,
    "componentType" : 5126,
    "count" : 10284,
    "type" : "VEC3",
    "max" : [ 73.0, 9.5, 61.0 ],
    "min" : [ -74.0, -39.5, -60.0 ]
  }, {
    "bufferView" : 69,
    "componentType" : 5126,
    "count" : 10284,
    "type" : "VEC2"
  }, {
    "bufferView" : 70,
    "componentType" : 5126,
    "count" : 10284,
    "type" : "VEC4"
  }, {
    "bufferView" : 71,
    "componentType" : 5125,
    "count" : 15426,
    "type" : "SCALAR"
  }, {
    "bufferView" : 72,
    "componentType" : 5126,
    "count" : 1236,
    "type" : "VEC3",
    "max" : [ 20.0, -10.619278, 50.0 ],
    "min" : [ -31.0, -39.5, 38.0 ]
  }, {
    "bufferView" : 73,
    "componentType" : 5126,
    "count" : 1236,
    "type" : "VEC2"
  }, {
    "bufferView" : 74,
    "componentType" : 5126,
    "count" : 1236,
    "type" : "VEC4"
  }, {
    "bufferView" : 75,
    "componentType" : 5125,
    "count" : 1854,
    "type" : "SCALAR"
  }, {
    "bufferView" : 76,
    "componentType" : 5126,
    "count" : 968,
    "type" : "VEC3",
    "max" : [ 73.0, -23.622211, 58.0 ],
    "min" : [ 49.0, -39.5, -40.0 ]
  }, {
    "bufferView" : 77,
    "componentType" : 5126,
    "count" : 968,
    "type" : "VEC2"
  }, {
    "bufferView" : 78,
    "componentType" : 5126,
    "count" : 968,
    "type" : "VEC4"
  }, {
    "bufferView" : 79,
    "componentType" : 5125,
    "count" : 1452,
    "type" : "SCALAR"
  }, {
    "bufferView" : 80,
    "componentType" : 5126,
    "count" : 632,
    "type" : "VEC3",
    "max" : [ 61.006256, 30.5, 57.993744 ],
    "min" : [ -74.0, -39.5, -59.0 ]
  }, {
    "bufferView" : 81,
    "componentType" : 5126,
    "count" : 632,
    "type" : "VEC2"
  }, {
    "bufferView" : 82,
    "componentType" : 5126,
    "count" : 632,
    "type" : "VEC4"
  }, {
    "bufferView" : 83,
    "componentType" : 5125,
    "count" : 948,
    "type" : "SCALAR"
  }, {
    "bufferView" : 84,
    "componentType" : 5126,
    "count" : 20,
    "type" : "VEC3",
    "max" : [ 19.0, -10.5, 47.0 ],
    "min" : [ 18.0, -11.5, 40.0 ]
  }, {
    "bufferView" : 85,
    "componentType" : 5126,
    "count" : 20,
    "type" : "VEC2"
  }, {
    "bufferView" : 86,
    "componentType" : 5126,
    "count" : 20,
    "type" : "VEC4"
  }, {
    "bufferView" : 87,
    "componentType" : 5125,
    "count" : 30,
    "type" : "SCALAR"
  }, {
    "bufferView" : 88,
    "componentType" : 5126,
    "count" : 11548,
    "type" : "VEC3",
    "max" : [ 75.0, -4.5, 61.0 ],
    "min" : [ -74.0, -39.5, -60.0 ]
  }, {
    "bufferView" : 89,
    "componentType" : 5126,
    "count" : 11548,
    "type" : "VEC2"
  }, {
    "bufferView" : 90,
    "componentType" : 5126,
    "count" : 11548,
    "type" : "VEC4"
  }, {
    "bufferView" : 91,
    "componentType" : 5125,
    "count" : 17322,
    "type" : "SCALAR"
  }, {
    "bufferView" : 92,
    "componentType" : 5126,
    "count" : 116828,
    "type" : "VEC3",
    "max" : [ 75.0, 40.5, 61.0 ],
    "min" : [ -74.0, -28.5, -60.0 ]
  }, {
    "bufferView" : 93,
    "componentType" : 5126,
    "count" : 116828,
    "type" : "VEC2"
  }, {
    "bufferView" : 94,
    "componentType" : 5126,
    "count" : 116828,
    "type" : "VEC4"
  }, {
    "bufferView" : 95,
    "componentType" : 5125,
    "count" : 175242,
    "type" : "SCALAR"
  }, {
    "bufferView" : 96,
    "componentType" : 5126,
    "count" : 50392,
    "type" : "VEC3",
    "max" : [ 75.00079, 40.5, 61.000793 ],
    "min" : [ -74.0008, -28.5, -60.000793 ]
  }, {
    "bufferView" : 97,
    "componentType" : 5126,
    "count" : 50392,
    "type" : "VEC2"
  }, {
    "bufferView" : 98,
    "componentType" : 5126,
    "count" : 50392,
    "type" : "VEC4"
  }, {
    "bufferView" : 99,
    "componentType" : 5125,
    "count" : 75588,
    "type" : "SCALAR"
  }, {
    "bufferView" : 100,
    "componentType" : 5126,
    "count" : 8424,
    "type" : "VEC3",
    "max" : [ 75.0, 36.5, 61.0 ],
    "min" : [ -74.0, -39.5, -60.0 ]
  }, {
    "bufferView" : 101,
    "componentType" : 5126,
    "count" : 8424,
    "type" : "VEC2"
  }, {
    "bufferView" : 102,
    "componentType" : 5126,
    "count" : 8424,
    "type" : "VEC4"
  }, {
    "bufferView" : 103,
    "componentType" : 5125,
    "count" : 12636,
    "type" : "SCALAR"
  }, {
    "bufferView" : 104,
    "componentType" : 5126,
    "count" : 320,
    "type" : "VEC3",
    "max" : [ 73.0, 37.5, 61.0 ],
    "min" : [ -74.0, -39.5, -60.0 ]
  }, {
    "bufferView" : 105,
    "componentType" : 5126,
    "count" : 320,
    "type" : "VEC2"
  }, {
    "bufferView" : 106,
    "componentType" : 5126,
    "count" : 320,
    "type" : "VEC4"
  }, {
    "bufferView" : 107,
    "componentType" : 5125,
    "count" : 480,
    "type" : "SCALAR"
  }, {
    "bufferView" : 108,
    "componentType" : 5126,
    "count" : 80,
    "type" : "VEC3",
    "max" : [ 68.0, -36.5, 61.0 ],
    "min" : [ -71.0, -39.5, -43.0 ]
  }, {
    "bufferView" : 109,
    "componentType" : 5126,
    "count" : 80,
    "type" : "VEC2"
  }, {
    "bufferView" : 110,
    "componentType" : 5126,
    "count" : 80,
    "type" : "VEC4"
  }, {
    "bufferView" : 111,
    "componentType" : 5125,
    "count" : 120,
    "type" : "SCALAR"
  }, {
    "bufferView" : 112,
    "componentType" : 5126,
    "count" : 176,
    "type" : "VEC3",
    "max" : [ 22.0, -10.612114, 50.0 ],
    "min" : [ -65.0, -28.5, 40.0 ]
  }, {
    "bufferView" : 113,
    "componentType" : 5126,
    "count" : 176,
    "type" : "VEC2"
  }, {
    "bufferView" : 114,
    "componentType" : 5126,
    "count" : 176,
    "type" : "VEC4"
  }, {
    "bufferView" : 115,
    "componentType" : 5125,
    "count" : 264,
    "type" : "SCALAR"
  }, {
    "bufferView" : 116,
    "componentType" : 5126,
    "count" : 156,
    "type" : "VEC3",
    "max" : [ 29.0, -10.5, 54.0 ],
    "min" : [ 12.0, -16.5, 34.0 ]
  }, {
    "bufferView" : 117,
    "componentType" : 5126,
    "count" : 156,
    "type" : "VEC2"
  }, {
    "bufferView" : 118,
    "componentType" : 5126,
    "count" : 156,
    "type" : "VEC4"
  }, {
    "bufferView" : 119,
    "componentType" : 5125,
    "count" : 234,
    "type" : "SCALAR"
  }, {
    "bufferView" : 120,
    "componentType" : 5126,
    "count" : 76,
    "type" : "VEC3",
    "max" : [ -27.0, -34.5, 19.0 ],
    "min" : [ -33.0, -35.5, 13.0 ]
  }, {
    "bufferView" : 121,
    "componentType" : 5126,
    "count" : 76,
    "type" : "VEC2"
  }, {
    "bufferView" : 122,
    "componentType" : 5126,
    "count" : 76,
    "type" : "VEC4"
  }, {
    "bufferView" : 123,
    "componentType" : 5125,
    "count" : 114,
    "type" : "SCALAR"
  }, {
    "bufferView" : 124,
    "componentType" : 5126,
    "count" : 88,
    "type" : "VEC3",
    "max" : [ 23.0, -6.5, 42.0 ],
    "min" : [ 19.0, -10.5, 39.0 ]
  }, {
    "bufferView" : 125,
    "componentType" : 5126,
    "count" : 88,
    "type" : "VEC2"
  }, {
    "bufferView" : 126,
    "componentType" : 5126,
    "count" : 88,
    "type" : "VEC4"
  }, {
    "bufferView" : 127,
    "componentType" : 5125,
    "count" : 132,
    "type" : "SCALAR"
  }, {
    "bufferView" : 128,
    "componentType" : 5126,
    "count" : 44,
    "type" : "VEC3",
    "max" : [ 17.0, -7.5, 41.75 ],
    "min" : [ 16.25, -8.5, 41.25 ]
  }, {
    "bufferView" : 129,
    "componentType" : 5126,
    "count" : 44,
    "type" : "VEC2"
  }, {
    "bufferView" : 130,
    "componentType" : 5126,
    "count" : 44,
    "type" : "VEC4"
  }, {
    "bufferView" : 131,
    "componentType" : 5125,
    "count" : 66,
    "type" : "SCALAR"
  }, {
    "bufferView" : 132,
    "componentType" : 5126,
    "count" : 16,
    "type" : "VEC3",
    "max" : [ 22.0, -9.5, 40.0 ],
    "min" : [ 21.0, -10.5, 39.0 ]
  }, {
    "bufferView" : 133,
    "componentType" : 5126,
    "count" : 16,
    "type" : "VEC2"
  }, {
    "bufferView" : 134,
    "componentType" : 5126,
    "count" : 16,
    "type" : "VEC4"
  }, {
    "bufferView" : 135,
    "componentType" : 5125,
    "count" : 24,
    "type" : "SCALAR"
  }, {
    "bufferView" : 136,
    "componentType" : 5126,
    "count" : 1456,
    "type" : "VEC3",
    "max" : [ 30.0, -8.5, 56.0 ],
    "min" : [ 8.0, -17.5, 32.0 ]
  }, {
    "bufferView" : 137,
    "componentType" : 5126,
    "count" : 1456,
    "type" : "VEC2"
  }, {
    "bufferView" : 138,
    "componentType" : 5126,
    "count" : 1456,
    "type" : "VEC4"
  }, {
    "bufferView" : 139,
    "componentType" : 5125,
    "count" : 2184,
    "type" : "SCALAR"
  }, {
    "bufferView" : 140,
    "componentType" : 5126,
    "count" : 40800,
    "type" : "VEC3",
    "max" : [ 73.0, 40.5, 61.0 ],
    "min" : [ -73.0, -13.5, -60.0 ]
  }, {
    "bufferView" : 141,
    "componentType" : 5126,
    "count" : 40800,
    "type" : "VEC2"
  }, {
    "bufferView" : 142,
    "componentType" : 5126,
    "count" : 40800,
    "type" : "VEC4"
  }, {
    "bufferView" : 143,
    "componentType" : 5125,
    "count" : 61200,
    "type" : "SCALAR"
  }, {
    "bufferView" : 144,
    "componentType" : 5126,
    "count" : 2436,
    "type" : "VEC3",
    "max" : [ 71.0, 40.5, 59.0 ],
    "min" : [ -73.0, -16.5, -58.0 ]
  }, {
    "bufferView" : 145,
    "componentType" : 5126,
    "count" : 2436,
    "type" : "VEC2"
  }, {
    "bufferView" : 146,
    "componentType" : 5126,
    "count" : 2436,
    "type" : "VEC4"
  }, {
    "bufferView" : 147,
    "componentType" : 5125,
    "count" : 3654,
    "type" : "SCALAR"
  }, {
    "bufferView" : 148,
    "componentType" : 5126,
    "count" : 180,
    "type" : "VEC3",
    "max" : [ 22.0, -4.5, 46.0 ],
    "min" : [ 17.0, -11.5, 41.0 ]
  }, {
    "bufferView" : 149,
    "componentType" : 5126,
    "count" : 180,
    "type" : "VEC2"
  }, {
    "bufferView" : 150,
    "componentType" : 5126,
    "count" : 180,
    "type" : "VEC4"
  }, {
    "bufferView" : 151,
    "componentType" : 5125,
    "count" : 270,
    "type" : "SCALAR"
  }, {
    "bufferView" : 152,
    "componentType" : 5126,
    "count" : 80,
    "type" : "VEC3",
    "max" : [ 43.93333, -5.5, 4.0333457 ],
    "min" : [ 14.86667, -8.5, -10.033345 ]
  }, {
    "bufferView" : 153,
    "componentType" : 5126,
    "count" : 80,
    "type" : "VEC2"
  }, {
    "bufferView" : 154,
    "componentType" : 5126,
    "count" : 80,
    "type" : "VEC4"
  }, {
    "bufferView" : 155,
    "componentType" : 5125,
    "count" : 120,
    "type" : "SCALAR"
  }, {
    "bufferView" : 156,
    "componentType" : 5126,
    "count" : 10752,
    "type" : "VEC3",
    "max" : [ 73.0, 8.5, 60.900013 ],
    "min" : [ -74.075, -39.5, -59.825012 ]
  }, {
    "bufferView" : 157,
    "componentType" : 5126,
    "count" : 10752,
    "type" : "VEC2"
  }, {
    "bufferView" : 158,
    "componentType" : 5126,
    "count" : 10752,
    "type" : "VEC4"
  }, {
    "bufferView" : 159,
    "componentType" : 5125,
    "count" : 16128,
    "type" : "SCALAR"
  }, {
    "bufferView" : 160,
    "componentType" : 5126,
    "count" : 368,
    "type" : "VEC3",
    "max" : [ 70.03333, 39.5, 37.066677 ],
    "min" : [ -47.9, -15.5, -10.166678 ]
  }, {
    "bufferView" : 161,
    "componentType" : 5126,
    "count" : 368,
    "type" : "VEC2"
  }, {
    "bufferView" : 162,
    "componentType" : 5126,
    "count" : 368,
    "type" : "VEC4"
  }, {
    "bufferView" : 163,
    "componentType" : 5125,
    "count" : 552,
    "type" : "SCALAR"
  }, {
    "bufferView" : 164,
    "componentType" : 5126,
    "count" : 1548,
    "type" : "VEC3",
    "max" : [ 75.0, -24.5, -24.0 ],
    "min" : [ 26.0, -37.5, -58.0 ]
  }, {
    "bufferView" : 165,
    "componentType" : 5126,
    "count" : 1548,
    "type" : "VEC2"
  }, {
    "bufferView" : 166,
    "componentType" : 5126,
    "count" : 1548,
    "type" : "VEC4"
  }, {
    "bufferView" : 167,
    "componentType" : 5125,
    "count" : 2322,
    "type" : "SCALAR"
  }, {
    "bufferView" : 168,
    "componentType" : 5126,
    "count" : 2752,
    "type" : "VEC3",
    "max" : [ 75.0, -24.5, -28.0 ],
    "min" : [ 26.0, -39.5, -60.0 ]
  }, {
    "bufferView" : 169,
    "componentType" : 5126,
    "count" : 2752,
    "type" : "VEC2"
  }, {
    "bufferView" : 170,
    "componentType" : 5126,
    "count" : 2752,
    "type" : "VEC4"
  }, {
    "bufferView" : 171,
    "componentType" : 5125,
    "count" : 4128,
    "type" : "SCALAR"
  }, {
    "bufferView" : 172,
    "componentType" : 5126,
    "count" : 49520,
    "type" : "VEC3",
    "max" : [ 75.1, 40.5, 61.200012 ],
    "min" : [ -73.933334, -25.593334, -60.200012 ]
  }, {
    "bufferView" : 173,
    "componentType" : 5126,
    "count" : 49520,
    "type" : "VEC2"
  }, {
    "bufferView" : 174,
    "componentType" : 5126,
    "count" : 49520,
    "type" : "VEC4"
  }, {
    "bufferView" : 175,
    "componentType" : 5125,
    "count" : 74280,
    "type" : "SCALAR"
  }, {
    "bufferView" : 176,
    "componentType" : 5126,
    "count" : 48,
    "type" : "VEC3",
    "max" : [ -30.0, -33.5, 17.0 ],
    "min" : [ -31.0, -34.5, 16.0 ]
  }, {
    "bufferView" : 177,
    "componentType" : 5126,
    "count" : 48,
    "type" : "VEC2"
  }, {
    "bufferView" : 178,
    "componentType" : 5126,
    "count" : 48,
    "type" : "VEC4"
  }, {
    "bufferView" : 179,
    "componentType" : 5125,
    "count" : 72,
    "type" : "SCALAR"
  }, {
    "bufferView" : 180,
    "componentType" : 5126,
    "count" : 255740,
    "type" : "VEC3",
    "max" : [ 75.0, 40.5, 61.0 ],
    "min" : [ -74.0, -39.5, -60.0 ]
  }, {
    "bufferView" : 181,
    "componentType" : 5126,
    "count" : 255740,
    "type" : "VEC2"
  }, {
    "bufferView" : 182,
    "componentType" : 5126,
    "count" : 255740,
    "type" : "VEC4"
  }, {
    "bufferView" : 183,
    "componentType" : 5125,
    "count" : 383610,
    "type" : "SCALAR"
  }, {
    "bufferView" : 184,
    "componentType" : 5126,
    "count" : 24,
    "type" : "VEC3",
    "max" : [ 24.0, -11.0, 47.0 ],
    "min" : [ 23.0, -11.5, 46.0 ]
  }, {
    "bufferView" : 185,
    "componentType" : 5126,
    "count" : 24,
    "type" : "VEC2"
  }, {
    "bufferView" : 186,
    "componentType" : 5126,
    "count" : 24,
    "type" : "VEC4"
  }, {
    "bufferView" : 187,
    "componentType" : 5125,
    "count" : 36,
    "type" : "SCALAR"
  }, {
    "bufferView" : 188,
    "componentType" : 5126,
    "count" : 220,
    "type" : "VEC3",
    "max" : [ 23.0, -4.5, 42.0 ],
    "min" : [ 18.0, -10.5, 39.0 ]
  }, {
    "bufferView" : 189,
    "componentType" : 5126,
    "count" : 220,
    "type" : "VEC2"
  }, {
    "bufferView" : 190,
    "componentType" : 5126,
    "count" : 220,
    "type" : "VEC4"
  }, {
    "bufferView" : 191,
    "componentType" : 5125,
    "count" : 330,
    "type" : "SCALAR"
  }, {
    "bufferView" : 192,
    "componentType" : 5126,
    "count" : 112,
    "type" : "VEC3",
    "max" : [ 22.75, -5.5, 44.75 ],
    "min" : [ 16.25, -9.5, 41.25 ]
  }, {
    "bufferView" : 193,
    "componentType" : 5126,
    "count" : 112,
    "type" : "VEC2"
  }, {
    "bufferView" : 194,
    "componentType" : 5126,
    "count" : 112,
    "type" : "VEC4"
  }, {
    "bufferView" : 195,
    "componentType" : 5125,
    "count" : 168,
    "type" : "SCALAR"
  }, {
    "bufferView" : 196,
    "componentType" : 5126,
    "count" : 84,
    "type" : "VEC3",
    "max" : [ 24.0, -8.5, 48.0 ],
    "min" : [ 15.0, -11.5, 40.0 ]
  }, {
    "bufferView" : 197,
    "componentType" : 5126,
    "count" : 84,
    "type" : "VEC2"
  }, {
    "bufferView" : 198,
    "componentType" : 5126,
    "count" : 84,
    "type" : "VEC4"
  }, {
    "bufferView" : 199,
    "componentType" : 5125,
    "count" : 126,
    "type" : "SCALAR"
  }, {
    "bufferView" : 200,
    "componentType" : 5126,
    "count" : 48,
    "type" : "VEC3",
    "max" : [ 21.0, -9.0, 41.0 ],
    "min" : [ 19.0, -11.5, 38.0 ]
  }, {
    "bufferView" : 201,
    "componentType" : 5126,
    "count" : 48,
    "type" : "VEC2"
  }, {
    "bufferView" : 202,
    "componentType" : 5126,
    "count" : 48,
    "type" : "VEC4"
  }, {
    "bufferView" : 203,
    "componentType" : 5125,
    "count" : 72,
    "type" : "SCALAR"
  }, {
    "bufferView" : 204,
    "componentType" : 5126,
    "count" : 6224,
    "type" : "VEC3",
    "max" : [ 74.76666, 40.5, 61.200012 ],
    "min" : [ -73.86667, -14.5, -52.86668 ]
  }, {
    "bufferView" : 205,
    "componentType" : 5126,
    "count" : 6224,
    "type" : "VEC2"
  }, {
    "bufferView" : 206,
    "componentType" : 5126,
    "count" : 6224,
    "type" : "VEC4"
  }, {
    "bufferView" : 207,
    "componentType" : 5125,
    "count" : 9336,
    "type" : "SCALAR"
  }, {
    "bufferView" : 208,
    "componentType" : 5126,
    "count" : 4032,
    "type" : "VEC3",
    "max" : [ 75.25, -25.5, -28.916666 ],
    "min" : [ 27.816668, -39.5, -60.25 ]
  }, {
    "bufferView" : 209,
    "componentType" : 5126,
    "count" : 4032,
    "type" : "VEC2"
  }, {
    "bufferView" : 210,
    "componentType" : 5126,
    "count" : 4032,
    "type" : "VEC4"
  }, {
    "bufferView" : 211,
    "componentType" : 5125,
    "count" : 6048,
    "type" : "SCALAR"
  }, {
    "bufferView" : 212,
    "componentType" : 5126,
    "count" : 6528,
    "type" : "VEC3",
    "max" : [ 75.0, -12.612114, 61.0 ],
    "min" : [ -68.0, -38.61211, -60.0 ]
  }, {
    "bufferView" : 213,
    "componentType" : 5126,
    "count" : 6528,
    "type" : "VEC2"
  }, {
    "bufferView" : 214,
    "componentType" : 5126,
    "count" : 6528,
    "type" : "VEC4"
  }, {
    "bufferView" : 215,
    "componentType" : 5125,
    "count" : 9792,
    "type" : "SCALAR"
  } ],
  "asset" : {
    "generator" : "VoxelBridge",
    "version" : "2.0"
  },
  "buffers" : [ {
    "uri" : "region_10_48_283__158_127_403.bin",
    "byteLength" : 22123800
  }, {
    "uri" : "region_10_48_283__158_127_403.uv.bin",
    "byteLength" : 5205600
  } ],
  "bufferViews" : [ {
    "buffer" : 0,
    "byteOffset" : 0,
    "byteLength" : 41184,
    "target" : 34962
  }, {
    "buffer" : 1,
    "byteOffset" : 0,
    "byteLength" : 27456,
    "target" : 34962
  }, {
    "buffer" : 0,
    "byteOffset" : 41184,
    "byteLength" : 54912,
    "target" : 34962
  }, {
    "buffer" : 0,
    "byteOffset" : 96096,
    "byteLength" : 20592,
    "target" : 34963
  }, {
    "buffer" : 0,
    "byteOffset" : 116688,
    "byteLength" : 6240,
    "target" : 34962
  }, {
    "buffer" : 1,
    "byteOffset" : 27456,
    "byteLength" : 4160,
    "target" : 34962
  }, {
    "buffer" : 0,
    "byteOffset" : 122928,
    "byteLength" : 8320,
    "target" : 34962
  }, {
    "buffer" : 0,
    "byteOffset" : 131248,
    "byteLength" : 3120,
    "target" : 34963
  }, {
    "buffer" : 0,
    "byteOffset" : 134368,
    "byteLength" : 154896,
    "target" : 34962
  }, {
    "buffer" : 1,
    "byteOffset" : 31616,
    "byteLength" : 103264,
    "target" : 34962
  }, {
    "buffer" : 0,
    "byteOffset" : 289264,
    "byteLength" : 206528,
    "target" : 34962
  }, {
    "buffer" : 0,
    "byteOffset" : 495792,
    "byteLength" : 77448,
    "target" : 34963
  }, {
    "buffer" : 0,
    "byteOffset" : 573240,
    "byteLength" : 768,
    "target" : 34962
  }, {
    "buffer" : 1,
    "byteOffset" : 134880,
    "byteLength" : 512,
    "target" : 34962
  }, {
    "buffer" : 0,
    "byteOffset" : 574008,
    "byteLength" : 1024,
    "target" : 34962
  }, {
    "buffer" : 0,
    "byteOffset" : 575032,
    "byteLength" : 384,
    "target" : 34963
  }, {
    "buffer" : 0,
    "byteOffset" : 575416,
    "byteLength" : 4608,
    "target" : 34962
  }, {
    "buffer" : 1,
    "byteOffset" : 135392,
    "byteLength" : 3072,
    "target" : 34962
  }, {
    "buffer" : 0,
    "byteOffset" : 580024,
    "byteLength" : 6144,
    "target" : 34962
  }, {
    "buffer" : 0,
    "byteOffset" : 586168,
    "byteLength" : 2304,
    "target" : 34963
  }, {
    "buffer" : 0,
    "byteOffset" : 588472,
    "byteLength" : 1632,
    "target" : 34962
  }, {
    "buffer" : 1,
    "byteOffset" : 138464,
    "byteLength" : 1088,
    "target" : 34962
  }, {
    "buffer" : 0,
    "byteOffset" : 590104,
    "byteLength" : 2176,
    "target" : 34962
  }, {
    "buffer" : 0,
    "byteOffset" : 592280,
    "byteLength" : 816,
    "target" : 34963
  }, {
    "buffer" : 0,
    "byteOffset" : 593096,
    "byteLength" : 192,
    "target" : 34962
  }, {
    "buffer" : 1,
    "byteOffset" : 139552,
    "byteLength" : 128,
    "target" : 34962
  }, {
    "buffer" : 0,
    "byteOffset" : 593288,
    "byteLength" : 256,
    "target" : 34962
  }, {
    "buffer" : 0,
    "byteOffset" : 593544,
    "byteLength" : 96,
    "target" : 34963
  }, {
    "buffer" : 0,
    "byteOffset" : 593640,
    "byteLength" : 2544,
    "target" : 34962
  }, {
    "buffer" : 1,
    "byteOffset" : 139680,
    "byteLength" : 1696,
    "target" : 34962
  }, {
    "buffer" : 0,
    "byteOffset" : 596184,
    "byteLength" : 3392,
    "target" : 34962
  }, {
    "buffer" : 0,
    "byteOffset" : 599576,
    "byteLength" : 1272,
    "target" : 34963
  }, {
    "buffer" : 0,
    "byteOffset" : 600848,
    "byteLength" : 31152,
    "target" : 34962
  }, {
    "buffer" : 1,
    "byteOffset" : 141376,
    "byteLength" : 20768,
    "target" : 34962
  }, {
    "buffer" : 0,
    "byteOffset" : 632000,
    "byteLength" : 41536,
    "target" : 34962
  }, {
    "buffer" : 0,
    "byteOffset" : 673536,
    "byteLength" : 15576,
    "target" : 34963
  }, {
    "buffer" : 0,
    "byteOffset" : 689112,
    "byteLength" : 4992,
    "target" : 34962
  }, {
    "buffer" : 1,
    "byteOffset" : 162144,
    "byteLength" : 3328,
    "target" : 34962
  }, {
    "buffer" : 0,
    "byteOffset" : 694104,
    "byteLength" : 6656,
    "target" : 34962
  }, {
    "buffer" : 0,
    "byteOffset" : 700760,
    "byteLength" : 2496,
    "target" : 34963
  }, {
    "buffer" : 0,
    "byteOffset" : 703256,
    "byteLength" : 53328,
    "target" : 34962
  }, {
    "buffer" : 1,
    "byteOffset" : 165472,
    "byteLength" : 35552,
    "target" : 34962
  }, {
    "buffer" : 0,
    "byteOffset" : 756584,
    "byteLength" : 71104,
    "target" : 34962
  }, {
    "buffer" : 0,
    "byteOffset" : 827688,
    "byteLength" : 26664,
    "target" : 34963
  }, {
    "buffer" : 0,
    "byteOffset" : 854352,
    "byteLength" : 1536,
    "target" : 34962
  }, {
    "buffer" : 1,
    "byteOffset" : 201024,
    "byteLength" : 1024,
    "target" : 34962
  }, {
    "buffer" : 0,
    "byteOffset" : 855888,
    "byteLength" : 2048,
    "target" : 34962
  }, {
    "buffer" : 0,
    "byteOffset" : 857936,
    "byteLength" : 768,
    "target" : 34963
  }, {
    "buffer" : 0,
    "byteOffset" : 858704,
    "byteLength" : 816,
    "target" : 34962
  }, {
    "buffer" : 1,
    "byteOffset" : 202048,
    "byteLength" : 544,
    "target" : 34962
  }, {
    "buffer" : 0,
    "byteOffset" : 859520,
    "byteLength" : 1088,
    "target" : 34962
  }, {
    "buffer" : 0,
    "byteOffset" : 860608,
    "byteLength" : 408,
    "target" : 34963
  }, {
    "buffer" : 0,
    "byteOffset" : 861016,
    "byteLength" : 816,
    "target" : 34962
  }, {
    "buffer" : 1,
    "byteOffset" : 202592,
    "byteLength" : 544,
    "target" : 34962
  }, {
    "buffer" : 0,
    "byteOffset" : 861832,
    "byteLength" : 1088,
    "target" : 34962
  }, {
    "buffer" : 0,
    "byteOffset" : 862920,
    "byteLength" : 408,
    "target" : 34963
  }, {
    "buffer" : 0,
    "byteOffset" : 863328,
    "byteLength" : 12288,
    "target" : 34962
  }, {
    "buffer" : 1,
    "byteOffset" : 203136,
    "byteLength" : 8192,
    "target" : 34962
  }, {
    "buffer" : 0,
    "byteOffset" : 875616,
    "byteLength" : 16384,
    "target" : 34962
  }, {
    "buffer" : 0,
    "byteOffset" : 892000,
    "byteLength" : 6144,
    "target" : 34963
  }, {
    "buffer" : 0,
    "byteOffset" : 898144,
    "byteLength" : 135456,
    "target" : 34962
  }, {
    "buffer" : 1,
    "byteOffset" : 211328,
    "byteLength" : 90304,
    "target" : 34962
  }, {
    "buffer" : 0,
    "byteOffset" : 1033600,
    "byteLength" : 180608,
    "target" : 34962
  }, {
    "buffer" : 0,
    "byteOffset" : 1214208,
    "byteLength" : 67728,
    "target" : 34963
  }, {
    "buffer" : 0,
    "byteOffset" : 1281936,
    "byteLength" : 345072,
    "target" : 34962
  }, {
    "buffer" : 1,
    "byteOffset" : 301632,
    "byteLength" : 230048,
    "target" : 34962
  }, {
    "buffer" : 0,
    "byteOffset" : 1627008,
    "byteLength" : 460096,
    "target" : 34962
  }, {
    "buffer" : 0,
    "byteOffset" : 2087104,
    "byteLength" : 172536,
    "target" : 34963
  }, {
    "buffer" : 0,
    "byteOffset" : 2259640,
    "byteLength" : 123408,
    "target" : 34962
  }, {
    "buffer" : 1,
    "byteOffset" : 531680,
    "byteLength" : 82272,
    "target" : 34962
  }, {
    "buffer" : 0,
    "byteOffset" : 2383048,
    "byteLength" : 164544,
    "target" : 34962
  }, {
    "buffer" : 0,
    "byteOffset" : 2547592,
    "byteLength" : 61704,
    "target" : 34963
  }, {
    "buffer" : 0,
    "byteOffset" : 2609296,
    "byteLength" : 14832,
    "target" : 34962
  }, {
    "buffer" : 1,
    "byteOffset" : 613952,
    "byteLength" : 9888,
    "target" : 34962
  }, {
    "buffer" : 0,
    "byteOffset" : 2624128,
    "byteLength" : 19776,
    "target" : 34962
  }, {
    "buffer" : 0,
    "byteOffset" : 2643904,
    "byteLength" : 7416,
    "target" : 34963
  }, {
    "buffer" : 0,
    "byteOffset" : 2651320,
    "byteLength" : 11616,
    "target" : 34962
  }, {
    "buffer" : 1,
    "byteOffset" : 623840,
    "byteLength" : 7744,
    "target" : 34962
  }, {
    "buffer" : 0,
    "byteOffset" : 2662936,
    "byteLength" : 15488,
    "target" : 34962
  }, {
    "buffer" : 0,
    "byteOffset" : 2678424,
    "byteLength" : 5808,
    "target" : 34963
  }, {
    "buffer" : 0,
    "byteOffset" : 2684232,
    "byteLength" : 7584,
    "target" : 34962
  }, {
    "buffer" : 1,
    "byteOffset" : 631584,
    "byteLength" : 5056,
    "target" : 34962
  }, {
    "buffer" : 0,
    "byteOffset" : 2691816,
    "byteLength" : 10112,
    "target" : 34962
  }, {
    "buffer" : 0,
    "byteOffset" : 2701928,
    "byteLength" : 3792,
    "target" : 34963
  }, {
    "buffer" : 0,
    "byteOffset" : 2705720,
    "byteLength" : 240,
    "target" : 34962
  }, {
    "buffer" : 1,
    "byteOffset" : 636640,
    "byteLength" : 160,
    "target" : 34962
  }, {
    "buffer" : 0,
    "byteOffset" : 2705960,
    "byteLength" : 320,
    "target" : 34962
  }, {
    "buffer" : 0,
    "byteOffset" : 2706280,
    "byteLength" : 120,
    "target" : 34963
  }, {
    "buffer" : 0,
    "byteOffset" : 2706400,
    "byteLength" : 138576,
    "target" : 34962
  }, {
    "buffer" : 1,
    "byteOffset" : 636800,
    "byteLength" : 92384,
    "target" : 34962
  }, {
    "buffer" : 0,
    "byteOffset" : 2844976,
    "byteLength" : 184768,
    "target" : 34962
  }, {
    "buffer" : 0,
    "byteOffset" : 3029744,
    "byteLength" : 69288,
    "target" : 34963
  }, {
    "buffer" : 0,
    "byteOffset" : 3099032,
    "byteLength" : 1401936,
    "target" : 34962
  }, {
    "buffer" : 1,
    "byteOffset" : 729184,
    "byteLength" : 934624,
    "target" : 34962
  }, {
    "buffer" : 0,
    "byteOffset" : 4500968,
    "byteLength" : 1869248,
    "target" : 34962
  }, {
    "buffer" : 0,
    "byteOffset" : 6370216,
    "byteLength" : 700968,
    "target" : 34963
  }, {
    "buffer" : 0,
    "byteOffset" : 7071184,
    "byteLength" : 604704,
    "target" : 34962
  }, {
    "buffer" : 1,
    "byteOffset" : 1663808,
    "byteLength" : 403136,
    "target" : 34962
  }, {
    "buffer" : 0,
    "byteOffset" : 7675888,
    "byteLength" : 806272,
    "target" : 34962
  }, {
    "buffer" : 0,
    "byteOffset" : 8482160,
    "byteLength" : 302352,
    "target" : 34963
  }, {
    "buffer" : 0,
    "byteOffset" : 8784512,
    "byteLength" : 101088,
    "target" : 34962
  }, {
    "buffer" : 1,
    "byteOffset" : 2066944,
    "byteLength" : 67392,
    "target" : 34962
  }, {
    "buffer" : 0,
    "byteOffset" : 8885600,
    "byteLength" : 134784,
    "target" : 34962
  }, {
    "buffer" : 0,
    "byteOffset" : 9020384,
    "byteLength" : 50544,
    "target" : 34963
  }, {
    "buffer" : 0,
    "byteOffset" : 9070928,
    "byteLength" : 3840,
    "target" : 34962
  }, {
    "buffer" : 1,
    "byteOffset" : 2134336,
    "byteLength" : 2560,
    "target" : 34962
  }, {
    "buffer" : 0,
    "byteOffset" : 9074768,
    "byteLength" : 5120,
    "target" : 34962
  }, {
    "buffer" : 0,
    "byteOffset" : 9079888,
    "byteLength" : 1920,
    "target" : 34963
  }, {
    "buffer" : 0,
    "byteOffset" : 9081808,
    "byteLength" : 960,
    "target" : 34962
  }, {
    "buffer" : 1,
    "byteOffset" : 2136896,
    "byteLength" : 640,
    "target" : 34962
  }, {
    "buffer" : 0,
    "byteOffset" : 9082768,
    "byteLength" : 1280,
    "target" : 34962
  }, {
    "buffer" : 0,
    "byteOffset" : 9084048,
    "byteLength" : 480,
    "target" : 34963
  }, {
    "buffer" : 0,
    "byteOffset" : 9084528,
    "byteLength" : 2112,
    "target" : 34962
  }, {
    "buffer" : 1,
    "byteOffset" : 2137536,
    "byteLength" : 1408,
    "target" : 34962
  }, {
    "buffer" : 0,
    "byteOffset" : 9086640,
    "byteLength" : 2816,
    "target" : 34962
  }, {
    "buffer" : 0,
    "byteOffset" : 9089456,
    "byteLength" : 1056,
    "target" : 34963
  }, {
    "buffer" : 0,
    "byteOffset" : 9090512,
    "byteLength" : 1872,
    "target" : 34962
  }, {
    "buffer" : 1,
    "byteOffset" : 2138944,
    "byteLength" : 1248,
    "target" : 34962
  }, {
    "buffer" : 0,
    "byteOffset" : 9092384,
    "byteLength" : 2496,
    "target" : 34962
  }, {
    "buffer" : 0,
    "byteOffset" : 9094880,
    "byteLength" : 936,
    "target" : 34963
  }, {
    "buffer" : 0,
    "byteOffset" : 9095816,
    "byteLength" : 912,
    "target" : 34962
  }, {
    "buffer" : 1,
    "byteOffset" : 2140192,
    "byteLength" : 608,
    "target" : 34962
  }, {
    "buffer" : 0,
    "byteOffset" : 9096728,
    "byteLength" : 1216,
    "target" : 34962
  }, {
    "buffer" : 0,
    "byteOffset" : 9097944,
    "byteLength" : 456,
    "target" : 34963
  }, {
    "buffer" : 0,
    "byteOffset" : 9098400,
    "byteLength" : 1056,
    "target" : 34962
  }, {
    "buffer" : 1,
    "byteOffset" : 2140800,
    "byteLength" : 704,
    "target" : 34962
  }, {
    "buffer" : 0,
    "byteOffset" : 9099456,
    "byteLength" : 1408,
    "target" : 34962
  }, {
    "buffer" : 0,
    "byteOffset" : 9100864,
    "byteLength" : 528,
    "target" : 34963
  }, {
    "buffer" : 0,
    "byteOffset" : 9101392,
    "byteLength" : 528,
    "target" : 34962
  }, {
    "buffer" : 1,
    "byteOffset" : 2141504,
    "byteLength" : 352,
    "target" : 34962
  }, {
    "buffer" : 0,
    "byteOffset" : 9101920,
    "byteLength" : 704,
    "target" : 34962
  }, {
    "buffer" : 0,
    "byteOffset" : 9102624,
    "byteLength" : 264,
    "target" : 34963
  }, {
    "buffer" : 0,
    "byteOffset" : 9102888,
    "byteLength" : 192,
    "target" : 34962
  }, {
    "buffer" : 1,
    "byteOffset" : 2141856,
    "byteLength" : 128,
    "target" : 34962
  }, {
    "buffer" : 0,
    "byteOffset" : 9103080,
    "byteLength" : 256,
    "target" : 34962
  }, {
    "buffer" : 0,
    "byteOffset" : 9103336,
    "byteLength" : 96,
    "target" : 34963
  }, {
    "buffer" : 0,
    "byteOffset" : 9103432,
    "byteLength" : 17472,
    "target" : 34962
  }, {
    "buffer" : 1,
    "byteOffset" : 2141984,
    "byteLength" : 11648,
    "target" : 34962
  }, {
    "buffer" : 0,
    "byteOffset" : 9120904,
    "byteLength" : 23296,
    "target" : 34962
  }, {
    "buffer" : 0,
    "byteOffset" : 9144200,
    "byteLength" : 8736,
    "target" : 34963
  }, {
    "buffer" : 0,
    "byteOffset" : 9152936,
    "byteLength" : 489600,
    "target" : 34962
  }, {
    "buffer" : 1,
    "byteOffset" : 2153632,
    "byteLength" : 326400,
    "target" : 34962
  }, {
    "buffer" : 0,
    "byteOffset" : 9642536,
    "byteLength" : 652800,
    "target" : 34962
  }, {
    "buffer" : 0,
    "byteOffset" : 10295336,
    "byteLength" : 244800,
    "target" : 34963
  }, {
    "buffer" : 0,
    "byteOffset" : 10540136,
    "byteLength" : 29232,
    "target" : 34962
  }, {
    "buffer" : 1,
    "byteOffset" : 2480032,
    "byteLength" : 19488,
    "target" : 34962
  }, {
    "buffer" : 0,
    "byteOffset" : 10569368,
    "byteLength" : 38976,
    "target" : 34962
  }, {
    "buffer" : 0,
    "byteOffset" : 10608344,
    "byteLength" : 14616,
    "target" : 34963
  }, {
    "buffer" : 0,
    "byteOffset" : 10622960,
    "byteLength" : 2160,
    "target" : 34962
  }, {
    "buffer" : 1,
    "byteOffset" : 2499520,
    "byteLength" : 1440,
    "target" : 34962
  }, {
    "buffer" : 0,
    "byteOffset" : 10625120,
    "byteLength" : 2880,
    "target" : 34962
  }, {
    "buffer" : 0,
    "byteOffset" : 10628000,
    "byteLength" : 1080,
    "target" : 34963
  }, {
    "buffer" : 0,
    "byteOffset" : 10629080,
    "byteLength" : 960,
    "target" : 34962
  }, {
    "buffer" : 1,
    "byteOffset" : 2500960,
    "byteLength" : 640,
    "target" : 34962
  }, {
    "buffer" : 0,
    "byteOffset" : 10630040,
    "byteLength" : 1280,
    "target" : 34962
  }, {
    "buffer" : 0,
    "byteOffset" : 10631320,
    "byteLength" : 480,
    "target" : 34963
  }, {
    "buffer" : 0,
    "byteOffset" : 10631800,
    "byteLength" : 129024,
    "target" : 34962
  }, {
    "buffer" : 1,
    "byteOffset" : 2501600,
    "byteLength" : 86016,
    "target" : 34962
  }, {
    "buffer" : 0,
    "byteOffset" : 10760824,
    "byteLength" : 172032,
    "target" : 34962
  }, {
    "buffer" : 0,
    "byteOffset" : 10932856,
    "byteLength" : 64512,
    "target" : 34963
  }, {
    "buffer" : 0,
    "byteOffset" : 10997368,
    "byteLength" : 4416,
    "target" : 34962
  }, {
    "buffer" : 1,
    "byteOffset" : 2587616,
    "byteLength" : 2944,
    "target" : 34962
  }, {
    "buffer" : 0,
    "byteOffset" : 11001784,
    "byteLength" : 5888,
    "target" : 34962
  }, {
    "buffer" : 0,
    "byteOffset" : 11007672,
    "byteLength" : 2208,
    "target" : 34963
  }, {
    "buffer" : 0,
    "byteOffset" : 11009880,
    "byteLength" : 18576,
    "target" : 34962
  }, {
    "buffer" : 1,
    "byteOffset" : 2590560,
    "byteLength" : 12384,
    "target" : 34962
  }, {
    "buffer" : 0,
    "byteOffset" : 11028456,
    "byteLength" : 24768,
    "target" : 34962
  }, {
    "buffer" : 0,
    "byteOffset" : 11053224,
    "byteLength" : 9288,
    "target" : 34963
  }, {
    "buffer" : 0,
    "byteOffset" : 11062512,
    "byteLength" : 33024,
    "target" : 34962
  }, {
    "buffer" : 1,
    "byteOffset" : 2602944,
    "byteLength" : 22016,
    "target" : 34962
  }, {
    "buffer" : 0,
    "byteOffset" : 11095536,
    "byteLength" : 44032,
    "target" : 34962
  }, {
    "buffer" : 0,
    "byteOffset" : 11139568,
    "byteLength" : 16512,
    "target" : 34963
  }, {
    "buffer" : 0,
    "byteOffset" : 11156080,
    "byteLength" : 594240,
    "target" : 34962
  }, {
    "buffer" : 1,
    "byteOffset" : 2624960,
    "byteLength" : 396160,
    "target" : 34962
  }, {
    "buffer" : 0,
    "byteOffset" : 11750320,
    "byteLength" : 792320,
    "target" : 34962
  }, {
    "buffer" : 0,
    "byteOffset" : 12542640,
    "byteLength" : 297120,
    "target" : 34963
  }, {
    "buffer" : 0,
    "byteOffset" : 12839760,
    "byteLength" : 576,
    "target" : 34962
  }, {
    "buffer" : 1,
    "byteOffset" : 3021120,
    "byteLength" : 384,
    "target" : 34962
  }, {
    "buffer" : 0,
    "byteOffset" : 12840336,
    "byteLength" : 768,
    "target" : 34962
  }, {
    "buffer" : 0,
    "byteOffset" : 12841104,
    "byteLength" : 288,
    "target" : 34963
  }, {
    "buffer" : 0,
    "byteOffset" : 12841392,
    "byteLength" : 3068880,
    "target" : 34962
  }, {
    "buffer" : 1,
    "byteOffset" : 3021504,
    "byteLength" : 2045920,
    "target" : 34962
  }, {
    "buffer" : 0,
    "byteOffset" : 15910272,
    "byteLength" : 4091840,
    "target" : 34962
  }, {
    "buffer" : 0,
    "byteOffset" : 20002112,
    "byteLength" : 1534440,
    "target" : 34963
  }, {
    "buffer" : 0,
    "byteOffset" : 21536552,
    "byteLength" : 288,
    "target" : 34962
  }, {
    "buffer" : 1,
    "byteOffset" : 5067424,
    "byteLength" : 192,
    "target" : 34962
  }, {
    "buffer" : 0,
    "byteOffset" : 21536840,
    "byteLength" : 384,
    "target" : 34962
  }, {
    "buffer" : 0,
    "byteOffset" : 21537224,
    "byteLength" : 144,
    "target" : 34963
  }, {
    "buffer" : 0,
    "byteOffset" : 21537368,
    "byteLength" : 2640,
    "target" : 34962
  }, {
    "buffer" : 1,
    "byteOffset" : 5067616,
    "byteLength" : 1760,
    "target" : 34962
  }, {
    "buffer" : 0,
    "byteOffset" : 21540008,
    "byteLength" : 3520,
    "target" : 34962
  }, {
    "buffer" : 0,
    "byteOffset" : 21543528,
    "byteLength" : 1320,
    "target" : 34963
  }, {
    "buffer" : 0,
    "byteOffset" : 21544848,
    "byteLength" : 1344,
    "target" : 34962
  }, {
    "buffer" : 1,
    "byteOffset" : 5069376,
    "byteLength" : 896,
    "target" : 34962
  }, {
    "buffer" : 0,
    "byteOffset" : 21546192,
    "byteLength" : 1792,
    "target" : 34962
  }, {
    "buffer" : 0,
    "byteOffset" : 21547984,
    "byteLength" : 672,
    "target" : 34963
  }, {
    "buffer" : 0,
    "byteOffset" : 21548656,
    "byteLength" : 1008,
    "target" : 34962
  }, {
    "buffer" : 1,
    "byteOffset" : 5070272,
    "byteLength" : 672,
    "target" : 34962
  }, {
    "buffer" : 0,
    "byteOffset" : 21549664,
    "byteLength" : 1344,
    "target" : 34962
  }, {
    "buffer" : 0,
    "byteOffset" : 21551008,
    "byteLength" : 504,
    "target" : 34963
  }, {
    "buffer" : 0,
    "byteOffset" : 21551512,
    "byteLength" : 576,
    "target" : 34962
  }, {
    "buffer" : 1,
    "byteOffset" : 5070944,
    "byteLength" : 384,
    "target" : 34962
  }, {
    "buffer" : 0,
    "byteOffset" : 21552088,
    "byteLength" : 768,
    "target" : 34962
  }, {
    "buffer" : 0,
    "byteOffset" : 21552856,
    "byteLength" : 288,
    "target" : 34963
  }, {
    "buffer" : 0,
    "byteOffset" : 21553144,
    "byteLength" : 74688,
    "target" : 34962
  }, {
    "buffer" : 1,
    "byteOffset" : 5071328,
    "byteLength" : 49792,
    "target" : 34962
  }, {
    "buffer" : 0,
    "byteOffset" : 21627832,
    "byteLength" : 99584,
    "target" : 34962
  }, {
    "buffer" : 0,
    "byteOffset" : 21727416,
    "byteLength" : 37344,
    "target" : 34963
  }, {
    "buffer" : 0,
    "byteOffset" : 21764760,
    "byteLength" : 48384,
    "target" : 34962
  }, {
    "buffer" : 1,
    "byteOffset" : 5121120,
    "byteLength" : 32256,
    "target" : 34962
  }, {
    "buffer" : 0,
    "byteOffset" : 21813144,
    "byteLength" : 64512,
    "target" : 34962
  }, {
    "buffer" : 0,
    "byteOffset" : 21877656,
    "byteLength" : 24192,
    "target" : 34963
  }, {
    "buffer" : 0,
    "byteOffset" : 21901848,
    "byteLength" : 78336,
    "target" : 34962
  }, {
    "buffer" : 1,
    "byteOffset" : 5153376,
    "byteLength" : 52224,
    "target" : 34962
  }, {
    "buffer" : 0,
    "byteOffset" : 21980184,
    "byteLength" : 104448,
    "target" : 34962
  }, {
    "buffer" : 0,
    "byteOffset" : 22084632,
    "byteLength" : 39168,
    "target" : 34963
  } ],
  "images" : [ {
    "uri" : "textures/atlas/atlas_1001.png"
  }, {
    "uri" : "textures/atlas/atlas_1001.png"
  }, {
    "uri" : "textures/atlas/atlas_1001.png"
  }, {
    "uri" : "textures/atlas/atlas_1001.png"
  }, {
    "uri" : "textures/atlas/atlas_1001.png"
  }, {
    "uri" : "textures/atlas/atlas_1001.png"
  }, {
    "uri" : "textures/atlas/atlas_1001.png"
  }, {
    "uri" : "textures/atlas/atlas_1001.png"
  }, {
    "uri" : "textures/atlas/atlas_1001.png"
  }, {
    "uri" : "textures/atlas/atlas_1001.png"
  }, {
    "uri" : "textures/atlas/atlas_1001.png"
  }, {
    "uri" : "textures/atlas/atlas_1001.png"
  }, {
    "uri" : "textures/atlas/atlas_1001.png"
  }, {
    "uri" : "textures/atlas/atlas_1001.png"
  }, {
    "uri" : "textures/atlas/atlas_1001.png"
  }, {
    "uri" : "textures/atlas/atlas_1001.png"
  }, {
    "uri" : "textures/atlas/atlas_1001.png"
  }, {
    "uri" : "textures/atlas/atlas_1001.png"
  }, {
    "uri" : "textures/atlas/atlas_1001.png"
  }, {
    "uri" : "textures/atlas/atlas_1001.png"
  }, {
    "uri" : "textures/atlas/atlas_1001.png"
  }, {
    "uri" : "textures/atlas/atlas_1001.png"
  }, {
    "uri" : "textures/atlas/atlas_1001.png"
  }, {
    "uri" : "textures/atlas/atlas_1001.png"
  }, {
    "uri" : "textures/atlas/atlas_1001.png"
  }, {
    "uri" : "textures/atlas/atlas_1001.png"
  }, {
    "uri" : "textures/atlas/atlas_1001.png"
  }, {
    "uri" : "textures/atlas/atlas_1001.png"
  }, {
    "uri" : "textures/atlas/atlas_1001.png"
  }, {
    "uri" : "textures/atlas/atlas_1001.png"
  }, {
    "uri" : "textures/atlas/atlas_1001.png"
  }, {
    "uri" : "textures/atlas/atlas_1001.png"
  }, {
    "uri" : "textures/atlas/atlas_1001.png"
  }, {
    "uri" : "textures/atlas/atlas_1001.png"
  }, {
    "uri" : "textures/atlas/atlas_1001.png"
  }, {
    "uri" : "textures/atlas/atlas_1001.png"
  }, {
    "uri" : "textures/atlas/atlas_1001.png"
  }, {
    "uri" : "textures/atlas/atlas_1001.png"
  }, {
    "uri" : "textures/atlas/atlas_1001.png"
  }, {
    "uri" : "textures/atlas/atlas_1001.png"
  }, {
    "uri" : "textures/atlas/atlas_1001.png"
  }, {
    "uri" : "textures/atlas/atlas_1001.png"
  }, {
    "uri" : "textures/atlas/atlas_1001.png"
  }, {
    "uri" : "textures/atlas/atlas_1001.png"
  } ],
  "materials" : [ {
    "name" : "minecraft:acacia_leaves",
    "pbrMetallicRoughness" : {
      "baseColorTexture" : {
        "index" : 0
      },
      "metallicFactor" : 0.0,
      "roughnessFactor" : 1.0
    },
    "doubleSided" : false
  }, {
    "name" : "minecraft:acacia_log",
    "pbrMetallicRoughness" : {
      "baseColorTexture" : {
        "index" : 1
      },
      "metallicFactor" : 0.0,
      "roughnessFactor" : 1.0
    },
    "doubleSided" : false
  }, {
    "name" : "minecraft:andesite",
    "pbrMetallicRoughness" : {
      "baseColorTexture" : {
        "index" : 2
      },
      "metallicFactor" : 0.0,
      "roughnessFactor" : 1.0
    },
    "doubleSided" : false
  }, {
    "name" : "minecraft:azure_bluet",
    "pbrMetallicRoughness" : {
      "baseColorTexture" : {
        "index" : 3
      },
      "metallicFactor" : 0.0,
      "roughnessFactor" : 1.0
    },
    "doubleSided" : true
  }, {
    "name" : "minecraft:birch_leaves",
    "pbrMetallicRoughness" : {
      "baseColorTexture" : {
        "index" : 4
      },
      "metallicFactor" : 0.0,
      "roughnessFactor" : 1.0
    },
    "doubleSided" : false
  }, {
    "name" : "minecraft:birch_log",
    "pbrMetallicRoughness" : {
      "baseColorTexture" : {
        "index" : 5
      },
      "metallicFactor" : 0.0,
      "roughnessFactor" : 1.0
    },
    "doubleSided" : false
  }, {
    "name" : "minecraft:chiseled_stone_bricks",
    "pbrMetallicRoughness" : {
      "baseColorTexture" : {
        "index" : 6
      },
      "metallicFactor" : 0.0,
      "roughnessFactor" : 1.0
    },
    "doubleSided" : false
  }, {
    "name" : "minecraft:clay",
    "pbrMetallicRoughness" : {
      "baseColorTexture" : {
        "index" : 7
      },
      "metallicFactor" : 0.0,
      "roughnessFactor" : 1.0
    },
    "doubleSided" : false
  }, {
    "name" : "minecraft:coal_ore",
    "pbrMetallicRoughness" : {
      "baseColorTexture" : {
        "index" : 8
      },
      "metallicFactor" : 0.0,
      "roughnessFactor" : 1.0
    },
    "doubleSided" : false
  }, {
    "name" : "minecraft:cobblestone",
    "pbrMetallicRoughness" : {
      "baseColorTexture" : {
        "index" : 9
      },
      "metallicFactor" : 0.0,
      "roughnessFactor" : 1.0
    },
    "doubleSided" : false
  }, {
    "name" : "minecraft:copper_ore",
    "pbrMetallicRoughness" : {
      "baseColorTexture" : {
        "index" : 10
      },
      "metallicFactor" : 0.0,
      "roughnessFactor" : 1.0
    },
    "doubleSided" : false
  }, {
    "name" : "minecraft:cornflower",
    "pbrMetallicRoughness" : {
      "baseColorTexture" : {
        "index" : 11
      },
      "metallicFactor" : 0.0,
      "roughnessFactor" : 1.0
    },
    "doubleSided" : true
  }, {
    "name" : "minecraft:cracked_stone_bricks",
    "pbrMetallicRoughness" : {
      "baseColorTexture" : {
        "index" : 12
      },
      "metallicFactor" : 0.0,
      "roughnessFactor" : 1.0
    },
    "doubleSided" : false
  }, {
    "name" : "minecraft:crying_obsidian_emissive",
    "pbrMetallicRoughness" : {
      "baseColorTexture" : {
        "index" : 13
      },
      "metallicFactor" : 0.0,
      "roughnessFactor" : 1.0
    },
    "doubleSided" : false
  }, {
    "name" : "minecraft:dandelion",
    "pbrMetallicRoughness" : {
      "baseColorTexture" : {
        "index" : 14
      },
      "metallicFactor" : 0.0,
      "roughnessFactor" : 1.0
    },
    "doubleSided" : true
  }, {
    "name" : "minecraft:diorite",
    "pbrMetallicRoughness" : {
      "baseColorTexture" : {
        "index" : 15
      },
      "metallicFactor" : 0.0,
      "roughnessFactor" : 1.0
    },
    "doubleSided" : false
  }, {
    "name" : "minecraft:dirt",
    "pbrMetallicRoughness" : {
      "baseColorTexture" : {
        "index" : 16
      },
      "metallicFactor" : 0.0,
      "roughnessFactor" : 1.0
    },
    "doubleSided" : false
  }, {
    "name" : "minecraft:dripstone_block",
    "pbrMetallicRoughness" : {
      "baseColorTexture" : {
        "index" : 17
      },
      "metallicFactor" : 0.0,
      "roughnessFactor" : 1.0
    },
    "doubleSided" : false
  }, {
    "name" : "minecraft:flowing_lava",
    "pbrMetallicRoughness" : {
      "baseColorTexture" : {
        "index" : 18
      },
      "metallicFactor" : 0.0,
      "roughnessFactor" : 1.0
    },
    "doubleSided" : true
  }, {
    "name" : "minecraft:flowing_water",
    "pbrMetallicRoughness" : {
      "baseColorTexture" : {
        "index" : 18
      },
      "metallicFactor" : 0.0,
      "roughnessFactor" : 1.0
    },
    "doubleSided" : true
  }, {
    "name" : "minecraft:glow_lichen_emissive",
    "pbrMetallicRoughness" : {
      "baseColorTexture" : {
        "index" : 19
      },
      "metallicFactor" : 0.0,
      "roughnessFactor" : 1.0
    },
    "doubleSided" : false
  }, {
    "name" : "minecraft:gold_block",
    "pbrMetallicRoughness" : {
      "baseColorTexture" : {
        "index" : 20
      },
      "metallicFactor" : 0.0,
      "roughnessFactor" : 1.0
    },
    "doubleSided" : false
  }, {
    "name" : "minecraft:granite",
    "pbrMetallicRoughness" : {
      "baseColorTexture" : {
        "index" : 21
      },
      "metallicFactor" : 0.0,
      "roughnessFactor" : 1.0
    },
    "doubleSided" : false
  }, {
    "name" : "minecraft:grass_block",
    "pbrMetallicRoughness" : {
      "baseColorTexture" : {
        "index" : 16
      },
      "metallicFactor" : 0.0,
      "roughnessFactor" : 1.0
    },
    "doubleSided" : false
  }, {
    "name" : "minecraft:grass_block_overlay",
    "pbrMetallicRoughness" : {
      "baseColorTexture" : {
        "index" : 22
      },
      "metallicFactor" : 0.0,
      "roughnessFactor" : 1.0
    },
    "doubleSided" : false
  }, {
    "name" : "minecraft:gravel",
    "pbrMetallicRoughness" : {
      "baseColorTexture" : {
        "index" : 23
      },
      "metallicFactor" : 0.0,
      "roughnessFactor" : 1.0
    },
    "doubleSided" : false
  }, {
    "name" : "minecraft:iron_ore",
    "pbrMetallicRoughness" : {
      "baseColorTexture" : {
        "index" : 24
      },
      "metallicFactor" : 0.0,
      "roughnessFactor" : 1.0
    },
    "doubleSided" : false
  }, {
    "name" : "minecraft:lapis_ore",
    "pbrMetallicRoughness" : {
      "baseColorTexture" : {
        "index" : 25
      },
      "metallicFactor" : 0.0,
      "roughnessFactor" : 1.0
    },
    "doubleSided" : false
  }, {
    "name" : "minecraft:lava",
    "pbrMetallicRoughness" : {
      "baseColorTexture" : {
        "index" : 18
      },
      "metallicFactor" : 0.0,
      "roughnessFactor" : 1.0
    },
    "doubleSided" : true
  }, {
    "name" : "minecraft:magma_block_emissive",
    "pbrMetallicRoughness" : {
      "baseColorTexture" : {
        "index" : 26
      },
      "metallicFactor" : 0.0,
      "roughnessFactor" : 1.0
    },
    "doubleSided" : false
  }, {
    "name" : "minecraft:mossy_cobblestone",
    "pbrMetallicRoughness" : {
      "baseColorTexture" : {
        "index" : 27
      },
      "metallicFactor" : 0.0,
      "roughnessFactor" : 1.0
    },
    "doubleSided" : false
  }, {
    "name" : "minecraft:mossy_stone_brick_stairs",
    "pbrMetallicRoughness" : {
      "baseColorTexture" : {
        "index" : 28
      },
      "metallicFactor" : 0.0,
      "roughnessFactor" : 1.0
    },
    "doubleSided" : false
  }, {
    "name" : "minecraft:mossy_stone_brick_wall",
    "pbrMetallicRoughness" : {
      "baseColorTexture" : {
        "index" : 28
      },
      "metallicFactor" : 0.0,
      "roughnessFactor" : 1.0
    },
    "doubleSided" : false
  }, {
    "name" : "minecraft:mossy_stone_bricks",
    "pbrMetallicRoughness" : {
      "baseColorTexture" : {
        "index" : 28
      },
      "metallicFactor" : 0.0,
      "roughnessFactor" : 1.0
    },
    "doubleSided" : false
  }, {
    "name" : "minecraft:netherrack",
    "pbrMetallicRoughness" : {
      "baseColorTexture" : {
        "index" : 29
      },
      "metallicFactor" : 0.0,
      "roughnessFactor" : 1.0
    },
    "doubleSided" : false
  }, {
    "name" : "minecraft:oak_leaves",
    "pbrMetallicRoughness" : {
      "baseColorTexture" : {
        "index" : 30
      },
      "metallicFactor" : 0.0,
      "roughnessFactor" : 1.0
    },
    "doubleSided" : false
  }, {
    "name" : "minecraft:oak_log",
    "pbrMetallicRoughness" : {
      "baseColorTexture" : {
        "index" : 31
      },
      "metallicFactor" : 0.0,
      "roughnessFactor" : 1.0
    },
    "doubleSided" : false
  }, {
    "name" : "minecraft:obsidian",
    "pbrMetallicRoughness" : {
      "baseColorTexture" : {
        "index" : 32
      },
      "metallicFactor" : 0.0,
      "roughnessFactor" : 1.0
    },
    "doubleSided" : false
  }, {
    "name" : "minecraft:oxeye_daisy",
    "pbrMetallicRoughness" : {
      "baseColorTexture" : {
        "index" : 33
      },
      "metallicFactor" : 0.0,
      "roughnessFactor" : 1.0
    },
    "doubleSided" : true
  }, {
    "name" : "minecraft:pointed_dripstone",
    "pbrMetallicRoughness" : {
      "baseColorTexture" : {
        "index" : 34
      },
      "metallicFactor" : 0.0,
      "roughnessFactor" : 1.0
    },
    "doubleSided" : false
  }, {
    "name" : "minecraft:poppy",
    "pbrMetallicRoughness" : {
      "baseColorTexture" : {
        "index" : 35
      },
      "metallicFactor" : 0.0,
      "roughnessFactor" : 1.0
    },
    "doubleSided" : true
  }, {
    "name" : "minecraft:sand",
    "pbrMetallicRoughness" : {
      "baseColorTexture" : {
        "index" : 36
      },
      "metallicFactor" : 0.0,
      "roughnessFactor" : 1.0
    },
    "doubleSided" : false
  }, {
    "name" : "minecraft:seagrass",
    "pbrMetallicRoughness" : {
      "baseColorTexture" : {
        "index" : 37
      },
      "metallicFactor" : 0.0,
      "roughnessFactor" : 1.0
    },
    "doubleSided" : true
  }, {
    "name" : "minecraft:short_grass",
    "pbrMetallicRoughness" : {
      "baseColorTexture" : {
        "index" : 38
      },
      "metallicFactor" : 0.0,
      "roughnessFactor" : 1.0
    },
    "doubleSided" : true
  }, {
    "name" : "minecraft:spawner",
    "pbrMetallicRoughness" : {
      "baseColorTexture" : {
        "index" : 39
      },
      "metallicFactor" : 0.0,
      "roughnessFactor" : 1.0
    },
    "doubleSided" : false
  }, {
    "name" : "minecraft:stone",
    "pbrMetallicRoughness" : {
      "baseColorTexture" : {
        "index" : 40
      },
      "metallicFactor" : 0.0,
      "roughnessFactor" : 1.0
    },
    "doubleSided" : false
  }, {
    "name" : "minecraft:stone_brick_slab",
    "pbrMetallicRoughness" : {
      "baseColorTexture" : {
        "index" : 41
      },
      "metallicFactor" : 0.0,
      "roughnessFactor" : 1.0
    },
    "doubleSided" : false
  }, {
    "name" : "minecraft:stone_brick_stairs",
    "pbrMetallicRoughness" : {
      "baseColorTexture" : {
        "index" : 41
      },
      "metallicFactor" : 0.0,
      "roughnessFactor" : 1.0
    },
    "doubleSided" : false
  }, {
    "name" : "minecraft:stone_brick_wall",
    "pbrMetallicRoughness" : {
      "baseColorTexture" : {
        "index" : 41
      },
      "metallicFactor" : 0.0,
      "roughnessFactor" : 1.0
    },
    "doubleSided" : false
  }, {
    "name" : "minecraft:stone_bricks",
    "pbrMetallicRoughness" : {
      "baseColorTexture" : {
        "index" : 41
      },
      "metallicFactor" : 0.0,
      "roughnessFactor" : 1.0
    },
    "doubleSided" : false
  }, {
    "name" : "minecraft:stone_slab",
    "pbrMetallicRoughness" : {
      "baseColorTexture" : {
        "index" : 40
      },
      "metallicFactor" : 0.0,
      "roughnessFactor" : 1.0
    },
    "doubleSided" : false
  }, {
    "name" : "minecraft:tall_grass",
    "pbrMetallicRoughness" : {
      "baseColorTexture" : {
        "index" : 42
      },
      "metallicFactor" : 0.0,
      "roughnessFactor" : 1.0
    },
    "doubleSided" : true
  }, {
    "name" : "minecraft:tall_seagrass",
    "pbrMetallicRoughness" : {
      "baseColorTexture" : {
        "index" : 43
      },
      "metallicFactor" : 0.0,
      "roughnessFactor" : 1.0
    },
    "doubleSided" : true
  }, {
    "name" : "minecraft:water",
    "pbrMetallicRoughness" : {
      "baseColorTexture" : {
        "index" : 18
      },
      "metallicFactor" : 0.0,
      "roughnessFactor" : 1.0
    },
    "doubleSided" : true
  } ],
  "meshes" : [ {
    "name" : "minecraft:acacia_leaves",
    "primitives" : [ {
      "attributes" : {
        "POSITION" : 0,
        "TEXCOORD_0" : 1,
        "COLOR_0" : 2
      },
      "indices" : 3,
      "material" : 0,
      "mode" : 4
    } ]
  }, {
    "name" : "minecraft:acacia_log",
    "primitives" : [ {
      "attributes" : {
        "POSITION" : 4,
        "TEXCOORD_0" : 5,
        "COLOR_0" : 6
      },
      "indices" : 7,
      "material" : 1,
      "mode" : 4
    } ]
  }, {
    "name" : "minecraft:andesite",
    "primitives" : [ {
      "attributes" : {
        "POSITION" : 8,
        "TEXCOORD_0" : 9,
        "COLOR_0" : 10
      },
      "indices" : 11,
      "material" : 2,
      "mode" : 4
    } ]
  }, {
    "name" : "minecraft:azure_bluet",
    "primitives" : [ {
      "attributes" : {
        "POSITION" : 12,
        "TEXCOORD_0" : 13,
        "COLOR_0" : 14
      },
      "indices" : 15,
      "material" : 3,
      "mode" : 4
    } ]
  }, {
    "name" : "minecraft:birch_leaves",
    "primitives" : [ {
      "attributes" : {
        "POSITION" : 16,
        "TEXCOORD_0" : 17,
        "COLOR_0" : 18
      },
      "indices" : 19,
      "material" : 4,
      "mode" : 4
    } ]
  }, {
    "name" : "minecraft:birch_log",
    "primitives" : [ {
      "attributes" : {
        "POSITION" : 20,
        "TEXCOORD_0" : 21,
        "COLOR_0" : 22
      },
      "indices" : 23,
      "material" : 5,
      "mode" : 4
    } ]
  }, {
    "name" : "minecraft:chiseled_stone_bricks",
    "primitives" : [ {
      "attributes" : {
        "POSITION" : 24,
        "TEXCOORD_0" : 25,
        "COLOR_0" : 26
      },
      "indices" : 27,
      "material" : 6,
      "mode" : 4
    } ]
  }, {
    "name" : "minecraft:clay",
    "primitives" : [ {
      "attributes" : {
        "POSITION" : 28,
        "TEXCOORD_0" : 29,
        "COLOR_0" : 30
      },
      "indices" : 31,
      "material" : 7,
      "mode" : 4
    } ]
  }, {
    "name" : "minecraft:coal_ore",
    "primitives" : [ {
      "attributes" : {
        "POSITION" : 32,
        "TEXCOORD_0" : 33,
        "COLOR_0" : 34
      },
      "indices" : 35,
      "material" : 8,
      "mode" : 4
    } ]
  }, {
    "name" : "minecraft:cobblestone",
    "primitives" : [ {
      "attributes" : {
        "POSITION" : 36,
        "TEXCOORD_0" : 37,
        "COLOR_0" : 38
      },
      "indices" : 39,
      "material" : 9,
      "mode" : 4
    } ]
  }, {
    "name" : "minecraft:copper_ore",
    "primitives" : [ {
      "attributes" : {
        "POSITION" : 40,
        "TEXCOORD_0" : 41,
        "COLOR_0" : 42
      },
      "indices" : 43,
      "material" : 10,
      "mode" : 4
    } ]
  }, {
    "name" : "minecraft:cornflower",
    "primitives" : [ {
      "attributes" : {
        "POSITION" : 44,
        "TEXCOORD_0" : 45,
        "COLOR_0" : 46
      },
      "indices" : 47,
      "material" : 11,
      "mode" : 4
    } ]
  }, {
    "name" : "minecraft:cracked_stone_bricks",
    "primitives" : [ {
      "attributes" : {
        "POSITION" : 48,
        "TEXCOORD_0" : 49,
        "COLOR_0" : 50
      },
      "indices" : 51,
      "material" : 12,
      "mode" : 4
    } ]
  }, {
    "name" : "minecraft:crying_obsidian_emissive",
    "primitives" : [ {
      "attributes" : {
        "POSITION" : 52,
        "TEXCOORD_0" : 53,
        "COLOR_0" : 54
      },
      "indices" : 55,
      "material" : 13,
      "mode" : 4
    } ]
  }, {
    "name" : "minecraft:dandelion",
    "primitives" : [ {
      "attributes" : {
        "POSITION" : 56,
        "TEXCOORD_0" : 57,
        "COLOR_0" : 58
      },
      "indices" : 59,
      "material" : 14,
      "mode" : 4
    } ]
  }, {
    "name" : "minecraft:diorite",
    "primitives" : [ {
      "attributes" : {
        "POSITION" : 60,
        "TEXCOORD_0" : 61,
        "COLOR_0" : 62
      },
      "indices" : 63,
      "material" : 15,
      "mode" : 4
    } ]
  }, {
    "name" : "minecraft:dirt",
    "primitives" : [ {
      "attributes" : {
        "POSITION" : 64,
        "TEXCOORD_0" : 65,
        "COLOR_0" : 66
      },
      "indices" : 67,
      "material" : 16,
      "mode" : 4
    } ]
  }, {
    "name" : "minecraft:dripstone_block",
    "primitives" : [ {
      "attributes" : {
        "POSITION" : 68,
        "TEXCOORD_0" : 69,
        "COLOR_0" : 70
      },
      "indices" : 71,
      "material" : 17,
      "mode" : 4
    } ]
  }, {
    "name" : "minecraft:flowing_lava",
    "primitives" : [ {
      "attributes" : {
        "POSITION" : 72,
        "TEXCOORD_0" : 73,
        "COLOR_0" : 74
      },
      "indices" : 75,
      "material" : 18,
      "mode" : 4
    } ]
  }, {
    "name" : "minecraft:flowing_water",
    "primitives" : [ {
      "attributes" : {
        "POSITION" : 76,
        "TEXCOORD_0" : 77,
        "COLOR_0" : 78
      },
      "indices" : 79,
      "material" : 19,
      "mode" : 4
    } ]
  }, {
    "name" : "minecraft:glow_lichen_emissive",
    "primitives" : [ {
      "attributes" : {
        "POSITION" : 80,
        "TEXCOORD_0" : 81,
        "COLOR_0" : 82
      },
      "indices" : 83,
      "material" : 20,
      "mode" : 4
    } ]
  }, {
    "name" : "minecraft:gold_block",
    "primitives" : [ {
      "attributes" : {
        "POSITION" : 84,
        "TEXCOORD_0" : 85,
        "COLOR_0" : 86
      },
      "indices" : 87,
      "material" : 21,
      "mode" : 4
    } ]
  }, {
    "name" : "minecraft:granite",
    "primitives" : [ {
      "attributes" : {
        "POSITION" : 88,
        "TEXCOORD_0" : 89,
        "COLOR_0" : 90
      },
      "indices" : 91,
      "material" : 22,
      "mode" : 4
    } ]
  }, {
    "name" : "minecraft:grass_block",
    "primitives" : [ {
      "attributes" : {
        "POSITION" : 92,
        "TEXCOORD_0" : 93,
        "COLOR_0" : 94
      },
      "indices" : 95,
      "material" : 23,
      "mode" : 4
    } ]
  }, {
    "name" : "minecraft:grass_block_overlay",
    "primitives" : [ {
      "attributes" : {
        "POSITION" : 96,
        "TEXCOORD_0" : 97,
        "COLOR_0" : 98
      },
      "indices" : 99,
      "material" : 24,
      "mode" : 4
    } ]
  }, {
    "name" : "minecraft:gravel",
    "primitives" : [ {
      "attributes" : {
        "POSITION" : 100,
        "TEXCOORD_0" : 101,
        "COLOR_0" : 102
      },
      "indices" : 103,
      "material" : 25,
      "mode" : 4
    } ]
  }, {
    "name" : "minecraft:iron_ore",
    "primitives" : [ {
      "attributes" : {
        "POSITION" : 104,
        "TEXCOORD_0" : 105,
        "COLOR_0" : 106
      },
      "indices" : 107,
      "material" : 26,
      "mode" : 4
    } ]
  }, {
    "name" : "minecraft:lapis_ore",
    "primitives" : [ {
      "attributes" : {
        "POSITION" : 108,
        "TEXCOORD_0" : 109,
        "COLOR_0" : 110
      },
      "indices" : 111,
      "material" : 27,
      "mode" : 4
    } ]
  }, {
    "name" : "minecraft:lava",
    "primitives" : [ {
      "attributes" : {
        "POSITION" : 112,
        "TEXCOORD_0" : 113,
        "COLOR_0" : 114
      },
      "indices" : 115,
      "material" : 28,
      "mode" : 4
    } ]
  }, {
    "name" : "minecraft:magma_block_emissive",
    "primitives" : [ {
      "attributes" : {
        "POSITION" : 116,
        "TEXCOORD_0" : 117,
        "COLOR_0" : 118
      },
      "indices" : 119,
      "material" : 29,
      "mode" : 4
    } ]
  }, {
    "name" : "minecraft:mossy_cobblestone",
    "primitives" : [ {
      "attributes" : {
        "POSITION" : 120,
        "TEXCOORD_0" : 121,
        "COLOR_0" : 122
      },
      "indices" : 123,
      "material" : 30,
      "mode" : 4
    } ]
  }, {
    "name" : "minecraft:mossy_stone_brick_stairs",
    "primitives" : [ {
      "attributes" : {
        "POSITION" : 124,
        "TEXCOORD_0" : 125,
        "COLOR_0" : 126
      },
      "indices" : 127,
      "material" : 31,
      "mode" : 4
    } ]
  }, {
    "name" : "minecraft:mossy_stone_brick_wall",
    "primitives" : [ {
      "attributes" : {
        "POSITION" : 128,
        "TEXCOORD_0" : 129,
        "COLOR_0" : 130
      },
      "indices" : 131,
      "material" : 32,
      "mode" : 4
    } ]
  }, {
    "name" : "minecraft:mossy_stone_bricks",
    "primitives" : [ {
      "attributes" : {
        "POSITION" : 132,
        "TEXCOORD_0" : 133,
        "COLOR_0" : 134
      },
      "indices" : 135,
      "material" : 33,
      "mode" : 4
    } ]
  }, {
    "name" : "minecraft:netherrack",
    "primitives" : [ {
      "attributes" : {
        "POSITION" : 136,
        "TEXCOORD_0" : 137,
        "COLOR_0" : 138
      },
      "indices" : 139,
      "material" : 34,
      "mode" : 4
    } ]
  }, {
    "name" : "minecraft:oak_leaves",
    "primitives" : [ {
      "attributes" : {
        "POSITION" : 140,
        "TEXCOORD_0" : 141,
        "COLOR_0" : 142
      },
      "indices" : 143,
      "material" : 35,
      "mode" : 4
    } ]
  }, {
    "name" : "minecraft:oak_log",
    "primitives" : [ {
      "attributes" : {
        "POSITION" : 144,
        "TEXCOORD_0" : 145,
        "COLOR_0" : 146
      },
      "indices" : 147,
      "material" : 36,
      "mode" : 4
    } ]
  }, {
    "name" : "minecraft:obsidian",
    "primitives" : [ {
      "attributes" : {
        "POSITION" : 148,
        "TEXCOORD_0" : 149,
        "COLOR_0" : 150
      },
      "indices" : 151,
      "material" : 37,
      "mode" : 4
    } ]
  }, {
    "name" : "minecraft:oxeye_daisy",
    "primitives" : [ {
      "attributes" : {
        "POSITION" : 152,
        "TEXCOORD_0" : 153,
        "COLOR_0" : 154
      },
      "indices" : 155,
      "material" : 38,
      "mode" : 4
    } ]
  }, {
    "name" : "minecraft:pointed_dripstone",
    "primitives" : [ {
      "attributes" : {
        "POSITION" : 156,
        "TEXCOORD_0" : 157,
        "COLOR_0" : 158
      },
      "indices" : 159,
      "material" : 39,
      "mode" : 4
    } ]
  }, {
    "name" : "minecraft:poppy",
    "primitives" : [ {
      "attributes" : {
        "POSITION" : 160,
        "TEXCOORD_0" : 161,
        "COLOR_0" : 162
      },
      "indices" : 163,
      "material" : 40,
      "mode" : 4
    } ]
  }, {
    "name" : "minecraft:sand",
    "primitives" : [ {
      "attributes" : {
        "POSITION" : 164,
        "TEXCOORD_0" : 165,
        "COLOR_0" : 166
      },
      "indices" : 167,
      "material" : 41,
      "mode" : 4
    } ]
  }, {
    "name" : "minecraft:seagrass",
    "primitives" : [ {
      "attributes" : {
        "POSITION" : 168,
        "TEXCOORD_0" : 169,
        "COLOR_0" : 170
      },
      "indices" : 171,
      "material" : 42,
      "mode" : 4
    } ]
  }, {
    "name" : "minecraft:short_grass",
    "primitives" : [ {
      "attributes" : {
        "POSITION" : 172,
        "TEXCOORD_0" : 173,
        "COLOR_0" : 174
      },
      "indices" : 175,
      "material" : 43,
      "mode" : 4
    } ]
  }, {
    "name" : "minecraft:spawner",
    "primitives" : [ {
      "attributes" : {
        "POSITION" : 176,
        "TEXCOORD_0" : 177,
        "COLOR_0" : 178
      },
      "indices" : 179,
      "material" : 44,
      "mode" : 4
    } ]
  }, {
    "name" : "minecraft:stone",
    "primitives" : [ {
      "attributes" : {
        "POSITION" : 180,
        "TEXCOORD_0" : 181,
        "COLOR_0" : 182
      },
      "indices" : 183,
      "material" : 45,
      "mode" : 4
    } ]
  }, {
    "name" : "minecraft:stone_brick_slab",
    "primitives" : [ {
      "attributes" : {
        "POSITION" : 184,
        "TEXCOORD_0" : 185,
        "COLOR_0" : 186
      },
      "indices" : 187,
      "material" : 46,
      "mode" : 4
    } ]
  }, {
    "name" : "minecraft:stone_brick_stairs",
    "primitives" : [ {
      "attributes" : {
        "POSITION" : 188,
        "TEXCOORD_0" : 189,
        "COLOR_0" : 190
      },
      "indices" : 191,
      "material" : 47,
      "mode" : 4
    } ]
  }, {
    "name" : "minecraft:stone_brick_wall",
    "primitives" : [ {
      "attributes" : {
        "POSITION" : 192,
        "TEXCOORD_0" : 193,
        "COLOR_0" : 194
      },
      "indices" : 195,
      "material" : 48,
      "mode" : 4
    } ]
  }, {
    "name" : "minecraft:stone_bricks",
    "primitives" : [ {
      "attributes" : {
        "POSITION" : 196,
        "TEXCOORD_0" : 197,
        "COLOR_0" : 198
      },
      "indices" : 199,
      "material" : 49,
      "mode" : 4
    } ]
  }, {
    "name" : "minecraft:stone_slab",
    "primitives" : [ {
      "attributes" : {
        "POSITION" : 200,
        "TEXCOORD_0" : 201,
        "COLOR_0" : 202
      },
      "indices" : 203,
      "material" : 50,
      "mode" : 4
    } ]
  }, {
    "name" : "minecraft:tall_grass",
    "primitives" : [ {
      "attributes" : {
        "POSITION" : 204,
        "TEXCOORD_0" : 205,
        "COLOR_0" : 206
      },
      "indices" : 207,
      "material" : 51,
      "mode" : 4
    } ]
  }, {
    "name" : "minecraft:tall_seagrass",
    "primitives" : [ {
      "attributes" : {
        "POSITION" : 208,
        "TEXCOORD_0" : 209,
        "COLOR_0" : 210
      },
      "indices" : 211,
      "material" : 52,
      "mode" : 4
    } ]
  }, {
    "name" : "minecraft:water",
    "primitives" : [ {
      "attributes" : {
        "POSITION" : 212,
        "TEXCOORD_0" : 213,
        "COLOR_0" : 214
      },
      "indices" : 215,
      "material" : 53,
      "mode" : 4
    } ]
  } ],
  "nodes" : [ {
    "name" : "minecraft:acacia_leaves",
    "mesh" : 0
  }, {
    "name" : "minecraft:acacia_log",
    "mesh" : 1
  }, {
    "name" : "minecraft:andesite",
    "mesh" : 2
  }, {
    "name" : "minecraft:azure_bluet",
    "mesh" : 3
  }, {
    "name" : "minecraft:birch_leaves",
    "mesh" : 4
  }, {
    "name" : "minecraft:birch_log",
    "mesh" : 5
  }, {
    "name" : "minecraft:chiseled_stone_bricks",
    "mesh" : 6
  }, {
    "name" : "minecraft:clay",
    "mesh" : 7
  }, {
    "name" : "minecraft:coal_ore",
    "mesh" : 8
  }, {
    "name" : "minecraft:cobblestone",
    "mesh" : 9
  }, {
    "name" : "minecraft:copper_ore",
    "mesh" : 10
  }, {
    "name" : "minecraft:cornflower",
    "mesh" : 11
  }, {
    "name" : "minecraft:cracked_stone_bricks",
    "mesh" : 12
  }, {
    "name" : "minecraft:crying_obsidian_emissive",
    "mesh" : 13
  }, {
    "name" : "minecraft:dandelion",
    "mesh" : 14
  }, {
    "name" : "minecraft:diorite",
    "mesh" : 15
  }, {
    "name" : "minecraft:dirt",
    "mesh" : 16
  }, {
    "name" : "minecraft:dripstone_block",
    "mesh" : 17
  }, {
    "name" : "minecraft:flowing_lava",
    "mesh" : 18
  }, {
    "name" : "minecraft:flowing_water",
    "mesh" : 19
  }, {
    "name" : "minecraft:glow_lichen_emissive",
    "mesh" : 20
  }, {
    "name" : "minecraft:gold_block",
    "mesh" : 21
  }, {
    "name" : "minecraft:granite",
    "mesh" : 22
  }, {
    "name" : "minecraft:grass_block",
    "mesh" : 23
  }, {
    "name" : "minecraft:grass_block_overlay",
    "mesh" : 24
  }, {
    "name" : "minecraft:gravel",
    "mesh" : 25
  }, {
    "name" : "minecraft:iron_ore",
    "mesh" : 26
  }, {
    "name" : "minecraft:lapis_ore",
    "mesh" : 27
  }, {
    "name" : "minecraft:lava",
    "mesh" : 28
  }, {
    "name" : "minecraft:magma_block_emissive",
    "mesh" : 29
  }, {
    "name" : "minecraft:mossy_cobblestone",
    "mesh" : 30
  }, {
    "name" : "minecraft:mossy_stone_brick_stairs",
    "mesh" : 31
  }, {
    "name" : "minecraft:mossy_stone_brick_wall",
    "mesh" : 32
  }, {
    "name" : "minecraft:mossy_stone_bricks",
    "mesh" : 33
  }, {
    "name" : "minecraft:netherrack",
    "mesh" : 34
  }, {
    "name" : "minecraft:oak_leaves",
    "mesh" : 35
  }, {
    "name" : "minecraft:oak_log",
    "mesh" : 36
  }, {
    "name" : "minecraft:obsidian",
    "mesh" : 37
  }, {
    "name" : "minecraft:oxeye_daisy",
    "mesh" : 38
  }, {
    "name" : "minecraft:pointed_dripstone",
    "mesh" : 39
  }, {
    "name" : "minecraft:poppy",
    "mesh" : 40
  }, {
    "name" : "minecraft:sand",
    "mesh" : 41
  }, {
    "name" : "minecraft:seagrass",
    "mesh" : 42
  }, {
    "name" : "minecraft:short_grass",
    "mesh" : 43
  }, {
    "name" : "minecraft:spawner",
    "mesh" : 44
  }, {
    "name" : "minecraft:stone",
    "mesh" : 45
  }, {
    "name" : "minecraft:stone_brick_slab",
    "mesh" : 46
  }, {
    "name" : "minecraft:stone_brick_stairs",
    "mesh" : 47
  }, {
    "name" : "minecraft:stone_brick_wall",
    "mesh" : 48
  }, {
    "name" : "minecraft:stone_bricks",
    "mesh" : 49
  }, {
    "name" : "minecraft:stone_slab",
    "mesh" : 50
  }, {
    "name" : "minecraft:tall_grass",
    "mesh" : 51
  }, {
    "name" : "minecraft:tall_seagrass",
    "mesh" : 52
  }, {
    "name" : "minecraft:water",
    "mesh" : 53
  } ],
  "samplers" : [ {
    "magFilter" : 9728,
    "minFilter" : 9728,
    "wrapS" : 10497,
    "wrapT" : 10497
  } ],
  "scene" : 0,
  "scenes" : [ {
    "nodes" : [ 0, 1, 2, 3, 4, 5, 6, 7, 8, 9, 10, 11, 12, 13, 14, 15, 16, 17, 18, 19, 20, 21, 22, 23, 24, 25, 26, 27, 28, 29, 30, 31, 32, 33, 34, 35, 36, 37, 38, 39, 40, 41, 42, 43, 44, 45, 46, 47, 48, 49, 50, 51, 52, 53 ]
  } ],
  "textures" : [ {
    "sampler" : 0,
    "source" : 0
  }, {
    "sampler" : 0,
    "source" : 1
  }, {
    "sampler" : 0,
    "source" : 2
  }, {
    "sampler" : 0,
    "source" : 3
  }, {
    "sampler" : 0,
    "source" : 4
  }, {
    "sampler" : 0,
    "source" : 5
  }, {
    "sampler" : 0,
    "source" : 6
  }, {
    "sampler" : 0,
    "source" : 7
  }, {
    "sampler" : 0,
    "source" : 8
  }, {
    "sampler" : 0,
    "source" : 9
  }, {
    "sampler" : 0,
    "source" : 10
  }, {
    "sampler" : 0,
    "source" : 11
  }, {
    "sampler" : 0,
    "source" : 12
  }, {
    "sampler" : 0,
    "source" : 13
  }, {
    "sampler" : 0,
    "source" : 14
  }, {
    "sampler" : 0,
    "source" : 15
  }, {
    "sampler" : 0,
    "source" : 16
  }, {
    "sampler" : 0,
    "source" : 17
  }, {
    "sampler" : 0,
    "source" : 18
  }, {
    "sampler" : 0,
    "source" : 19
  }, {
    "sampler" : 0,
    "source" : 20
  }, {
    "sampler" : 0,
    "source" : 21
  }, {
    "sampler" : 0,
    "source" : 22
  }, {
    "sampler" : 0,
    "source" : 23
  }, {
    "sampler" : 0,
    "source" : 24
  }, {
    "sampler" : 0,
    "source" : 25
  }, {
    "sampler" : 0,
    "source" : 26
  }, {
    "sampler" : 0,
    "source" : 27
  }, {
    "sampler" : 0,
    "source" : 28
  }, {
    "sampler" : 0,
    "source" : 29
  }, {
    "sampler" : 0,
    "source" : 30
  }, {
    "sampler" : 0,
    "source" : 31
  }, {
    "sampler" : 0,
    "source" : 32
  }, {
    "sampler" : 0,
    "source" : 33
  }, {
    "sampler" : 0,
    "source" : 34
  }, {
    "sampler" : 0,
    "source" : 35
  }, {
    "sampler" : 0,
    "source" : 36
  }, {
    "sampler" : 0,
    "source" : 37
  }, {
    "sampler" : 0,
    "source" : 38
  }, {
    "sampler" : 0,
    "source" : 39
  }, {
    "sampler" : 0,
    "source" : 40
  }, {
    "sampler" : 0,
    "source" : 41
  }, {
    "sampler" : 0,
    "source" : 42
  }, {
    "sampler" : 0,
    "source" : 43
  } ]
}