{
  "accessors" : [ {
    "bufferView" : 0,
    "componentType" : 5126,
    "count" : 7096,
    "type" : "VEC3",
    "max" : [ 40.5, 1.0, 60.5 ],
    "min" : [ -39.5, -12.0, -59.5 ]
  }, {
    "bufferView" : 1,
    "componentType" : 5126,
    "count" : 7096,
    "type" : "VEC2"
  }, {
    "bufferView" : 2,
    "componentType" : 5126,
    "count" : 7096,
    "type" : "VEC4"
  }, {
    "bufferView" : 3,
    "componentType" : 5125,
    "count" : 10644,
    "type" : "SCALAR"
  }, {
    "bufferView" : 4,
    "componentType" : 5126,
    "count" : 48,
    "type" : "VEC3",
    "max" : [ 28.699997, 11.0, 28.433346 ],
    "min" : [ -34.6, 3.0, 2.3666544 ]
  }, {
    "bufferView" : 5,
    "componentType" : 5126,
    "count" : 48,
    "type" : "VEC2"
  }, {
    "bufferView" : 6,
    "componentType" : 5126,
    "count" : 48,
    "type" : "VEC4"
  }, {
    "bufferView" : 7,
    "componentType" : 5125,
    "count" : 72,
    "type" : "SCALAR"
  }, {
    "bufferView" : 8,
    "componentType" : 5126,
    "count" : 1200,
    "type" : "VEC3",
    "max" : [ 40.5, 13.0, 60.5 ],
    "min" : [ 32.5, 10.0, -54.5 ]
  }, {
    "bufferView" : 9,
    "componentType" : 5126,
    "count" : 1200,
    "type" : "VEC2"
  }, {
    "bufferView" : 10,
    "componentType" : 5126,
    "count" : 1200,
    "type" : "VEC4"
  }, {
    "bufferView" : 11,
    "componentType" : 5125,
    "count" : 1800,
    "type" : "SCALAR"
  }, {
    "bufferView" : 12,
    "componentType" : 5126,
    "count" : 80,
    "type" : "VEC3",
    "max" : [ 38.5, 13.0, -51.5 ],
    "min" : [ 37.5, 8.0, -52.5 ]
  }, {
    "bufferView" : 13,
    "componentType" : 5126,
    "count" : 80,
    "type" : "VEC2"
  }, {
    "bufferView" : 14,
    "componentType" : 5126,
    "count" : 80,
    "type" : "VEC4"
  }, {
    "bufferView" : 15,
    "componentType" : 5125,
    "count" : 120,
    "type" : "SCALAR"
  }, {
    "bufferView" : 16,
    "componentType" : 5126,
    "count" : 988,
    "type" : "VEC3",
    "max" : [ 39.5, 0.0, 57.5 ],
    "min" : [ -39.5, -12.0, -58.5 ]
  }, {
    "bufferView" : 17,
    "componentType" : 5126,
    "count" : 988,
    "type" : "VEC2"
  }, {
    "bufferView" : 18,
    "componentType" : 5126,
    "count" : 988,
    "type" : "VEC4"
  }, {
    "bufferView" : 19,
    "componentType" : 5125,
    "count" : 1482,
    "type" : "SCALAR"
  }, {
    "bufferView" : 20,
    "componentType" : 5126,
    "count" : 752,
    "type" : "VEC3",
    "max" : [ 40.5, 5.0, 60.5 ],
    "min" : [ -39.5, -12.0, -59.5 ]
  }, {
    "bufferView" : 21,
    "componentType" : 5126,
    "count" : 752,
    "type" : "VEC2"
  }, {
    "bufferView" : 22,
    "componentType" : 5126,
    "count" : 752,
    "type" : "VEC4"
  }, {
    "bufferView" : 23,
    "componentType" : 5125,
    "count" : 1128,
    "type" : "SCALAR"
  }, {
    "bufferView" : 24,
    "componentType" : 5126,
    "count" : 636,
    "type" : "VEC3",
    "max" : [ 40.5, 7.0, 60.5 ],
    "min" : [ -39.5, -12.0, -59.5 ]
  }, {
    "bufferView" : 25,
    "componentType" : 5126,
    "count" : 636,
    "type" : "VEC2"
  }, {
    "bufferView" : 26,
    "componentType" : 5126,
    "count" : 636,
    "type" : "VEC4"
  }, {
    "bufferView" : 27,
    "componentType" : 5125,
    "count" : 954,
    "type" : "SCALAR"
  }, {
    "bufferView" : 28,
    "componentType" : 5126,
    "count" : 16,
    "type" : "VEC3",
    "max" : [ 23.566664, 3.0, -17.566654 ],
    "min" : [ 22.66667, 2.0, -18.466679 ]
  }, {
    "bufferView" : 29,
    "componentType" : 5126,
    "count" : 16,
    "type" : "VEC2"
  }, {
    "bufferView" : 30,
    "componentType" : 5126,
    "count" : 16,
    "type" : "VEC4"
  }, {
    "bufferView" : 31,
    "componentType" : 5125,
    "count" : 24,
    "type" : "SCALAR"
  }, {
    "bufferView" : 32,
    "componentType" : 5126,
    "count" : 288,
    "type" : "VEC3",
    "max" : [ 32.56666, 13.0, 32.50001 ],
    "min" : [ -37.466663, 1.0, -19.433346 ]
  }, {
    "bufferView" : 33,
    "componentType" : 5126,
    "count" : 288,
    "type" : "VEC2"
  }, {
    "bufferView" : 34,
    "componentType" : 5126,
    "count" : 288,
    "type" : "VEC4"
  }, {
    "bufferView" : 35,
    "componentType" : 5125,
    "count" : 432,
    "type" : "SCALAR"
  }, {
    "bufferView" : 36,
    "componentType" : 5126,
    "count" : 2256,
    "type" : "VEC3",
    "max" : [ 40.5, 0.0, 60.5 ],
    "min" : [ -38.5, -12.0, -59.5 ]
  }, {
    "bufferView" : 37,
    "componentType" : 5126,
    "count" : 2256,
    "type" : "VEC2"
  }, {
    "bufferView" : 38,
    "componentType" : 5126,
    "count" : 2256,
    "type" : "VEC4"
  }, {
    "bufferView" : 39,
    "componentType" : 5125,
    "count" : 3384,
    "type" : "SCALAR"
  }, {
    "bufferView" : 40,
    "componentType" : 5126,
    "count" : 21852,
    "type" : "VEC3",
    "max" : [ 40.5, 13.0, 60.5 ],
    "min" : [ -39.5, -12.0, -59.5 ]
  }, {
    "bufferView" : 41,
    "componentType" : 5126,
    "count" : 21852,
    "type" : "VEC2"
  }, {
    "bufferView" : 42,
    "componentType" : 5126,
    "count" : 21852,
    "type" : "VEC4"
  }, {
    "bufferView" : 43,
    "componentType" : 5125,
    "count" : 32778,
    "type" : "SCALAR"
  }, {
    "bufferView" : 44,
    "componentType" : 5126,
    "count" : 396,
    "type" : "VEC3",
    "max" : [ 40.5, -3.0, 59.5 ],
    "min" : [ -28.5, -12.0, 27.5 ]
  }, {
    "bufferView" : 45,
    "componentType" : 5126,
    "count" : 396,
    "type" : "VEC2"
  }, {
    "bufferView" : 46,
    "componentType" : 5126,
    "count" : 396,
    "type" : "VEC4"
  }, {
    "bufferView" : 47,
    "componentType" : 5125,
    "count" : 594,
    "type" : "SCALAR"
  }, {
    "bufferView" : 48,
    "componentType" : 5126,
    "count" : 48,
    "type" : "VEC3",
    "max" : [ 31.5, 4.4207077, 8.5 ],
    "min" : [ 30.5, 2.9792862, 7.5 ]
  }, {
    "bufferView" : 49,
    "componentType" : 5126,
    "count" : 48,
    "type" : "VEC2"
  }, {
    "bufferView" : 50,
    "componentType" : 5126,
    "count" : 48,
    "type" : "VEC4"
  }, {
    "bufferView" : 51,
    "componentType" : 5125,
    "count" : 72,
    "type" : "SCALAR"
  }, {
    "bufferView" : 52,
    "componentType" : 5126,
    "count" : 16,
    "type" : "VEC3",
    "max" : [ -37.493744, -1.0, 50.506256 ],
    "min" : [ -38.5, -2.0, 49.5 ]
  }, {
    "bufferView" : 53,
    "componentType" : 5126,
    "count" : 16,
    "type" : "VEC2"
  }, {
    "bufferView" : 54,
    "componentType" : 5126,
    "count" : 16,
    "type" : "VEC4"
  }, {
    "bufferView" : 55,
    "componentType" : 5125,
    "count" : 24,
    "type" : "SCALAR"
  }, {
    "bufferView" : 56,
    "componentType" : 5126,
    "count" : 1956,
    "type" : "VEC3",
    "max" : [ 32.5, -1.0, 52.5 ],
    "min" : [ -39.5, -12.0, -59.5 ]
  }, {
    "bufferView" : 57,
    "componentType" : 5126,
    "count" : 1956,
    "type" : "VEC2"
  }, {
    "bufferView" : 58,
    "componentType" : 5126,
    "count" : 1956,
    "type" : "VEC4"
  }, {
    "bufferView" : 59,
    "componentType" : 5125,
    "count" : 2934,
    "type" : "SCALAR"
  }, {
    "bufferView" : 60,
    "componentType" : 5126,
    "count" : 33188,
    "type" : "VEC3",
    "max" : [ 40.5, 13.0, 60.5 ],
    "min" : [ -39.5, 0.0, -59.5 ]
  }, {
    "bufferView" : 61,
    "componentType" : 5126,
    "count" : 33188,
    "type" : "VEC2"
  }, {
    "bufferView" : 62,
    "componentType" : 5126,
    "count" : 33188,
    "type" : "VEC4"
  }, {
    "bufferView" : 63,
    "componentType" : 5125,
    "count" : 49782,
    "type" : "SCALAR"
  }, {
    "bufferView" : 64,
    "componentType" : 5126,
    "count" : 11708,
    "type" : "VEC3",
    "max" : [ 40.500793, 13.0, 60.500793 ],
    "min" : [ -39.500793, 0.0, -59.500793 ]
  }, {
    "bufferView" : 65,
    "componentType" : 5126,
    "count" : 11708,
    "type" : "VEC2"
  }, {
    "bufferView" : 66,
    "componentType" : 5126,
    "count" : 11708,
    "type" : "VEC4"
  }, {
    "bufferView" : 67,
    "componentType" : 5125,
    "count" : 17562,
    "type" : "SCALAR"
  }, {
    "bufferView" : 68,
    "componentType" : 5126,
    "count" : 7092,
    "type" : "VEC3",
    "max" : [ 40.5, 13.0, 60.5 ],
    "min" : [ -39.5, -12.0, -59.5 ]
  }, {
    "bufferView" : 69,
    "componentType" : 5126,
    "count" : 7092,
    "type" : "VEC2"
  }, {
    "bufferView" : 70,
    "componentType" : 5126,
    "count" : 7092,
    "type" : "VEC4"
  }, {
    "bufferView" : 71,
    "componentType" : 5125,
    "count" : 10638,
    "type" : "SCALAR"
  }, {
    "bufferView" : 72,
    "componentType" : 5126,
    "count" : 48,
    "type" : "VEC3",
    "max" : [ 33.5, 0.0, 52.5 ],
    "min" : [ -39.5, -12.0, -59.5 ]
  }, {
    "bufferView" : 73,
    "componentType" : 5126,
    "count" : 48,
    "type" : "VEC2"
  }, {
    "bufferView" : 74,
    "componentType" : 5126,
    "count" : 48,
    "type" : "VEC4"
  }, {
    "bufferView" : 75,
    "componentType" : 5125,
    "count" : 72,
    "type" : "SCALAR"
  }, {
    "bufferView" : 76,
    "componentType" : 5126,
    "count" : 4,
    "type" : "VEC3",
    "max" : [ 38.5, -12.0, 37.5 ],
    "min" : [ 37.5, -12.0, 36.5 ]
  }, {
    "bufferView" : 77,
    "componentType" : 5126,
    "count" : 4,
    "type" : "VEC2"
  }, {
    "bufferView" : 78,
    "componentType" : 5126,
    "count" : 4,
    "type" : "VEC4"
  }, {
    "bufferView" : 79,
    "componentType" : 5125,
    "count" : 6,
    "type" : "SCALAR"
  }, {
    "bufferView" : 80,
    "componentType" : 5126,
    "count" : 1608,
    "type" : "VEC3",
    "max" : [ 40.5, 13.0, 60.5 ],
    "min" : [ -29.5, 9.0, -59.5 ]
  }, {
    "bufferView" : 81,
    "componentType" : 5126,
    "count" : 1608,
    "type" : "VEC2"
  }, {
    "bufferView" : 82,
    "componentType" : 5126,
    "count" : 1608,
    "type" : "VEC4"
  }, {
    "bufferView" : 83,
    "componentType" : 5125,
    "count" : 2412,
    "type" : "SCALAR"
  }, {
    "bufferView" : 84,
    "componentType" : 5126,
    "count" : 148,
    "type" : "VEC3",
    "max" : [ 8.5, 13.0, -1.5 ],
    "min" : [ -28.5, 8.0, -57.5 ]
  }, {
    "bufferView" : 85,
    "componentType" : 5126,
    "count" : 148,
    "type" : "VEC2"
  }, {
    "bufferView" : 86,
    "componentType" : 5126,
    "count" : 148,
    "type" : "VEC4"
  }, {
    "bufferView" : 87,
    "componentType" : 5125,
    "count" : 222,
    "type" : "SCALAR"
  }, {
    "bufferView" : 88,
    "componentType" : 5126,
    "count" : 32,
    "type" : "VEC3",
    "max" : [ 33.666664, 4.0, 7.6333456 ],
    "min" : [ 26.400003, 1.0, -18.200012 ]
  }, {
    "bufferView" : 89,
    "componentType" : 5126,
    "count" : 32,
    "type" : "VEC2"
  }, {
    "bufferView" : 90,
    "componentType" : 5126,
    "count" : 32,
    "type" : "VEC4"
  }, {
    "bufferView" : 91,
    "componentType" : 5125,
    "count" : 48,
    "type" : "SCALAR"
  }, {
    "bufferView" : 92,
    "componentType" : 5126,
    "count" : 352,
    "type" : "VEC3",
    "max" : [ 40.574997, -7.0, 59.325012 ],
    "min" : [ -26.399998, -12.0, 27.424988 ]
  }, {
    "bufferView" : 93,
    "componentType" : 5126,
    "count" : 352,
    "type" : "VEC2"
  }, {
    "bufferView" : 94,
    "componentType" : 5126,
    "count" : 352,
    "type" : "VEC4"
  }, {
    "bufferView" : 95,
    "componentType" : 5125,
    "count" : 528,
    "type" : "SCALAR"
  }, {
    "bufferView" : 96,
    "componentType" : 5126,
    "count" : 80,
    "type" : "VEC3",
    "max" : [ 25.566664, 13.0, 33.50001 ],
    "min" : [ -33.199997, 2.0, -15.500012 ]
  }, {
    "bufferView" : 97,
    "componentType" : 5126,
    "count" : 80,
    "type" : "VEC2"
  }, {
    "bufferView" : 98,
    "componentType" : 5126,
    "count" : 80,
    "type" : "VEC4"
  }, {
    "bufferView" : 99,
    "componentType" : 5125,
    "count" : 120,
    "type" : "SCALAR"
  }, {
    "bufferView" : 100,
    "componentType" : 5126,
    "count" : 9040,
    "type" : "VEC3",
    "max" : [ 40.5, 3.0, 57.5 ],
    "min" : [ -39.5, -12.0, -59.5 ]
  }, {
    "bufferView" : 101,
    "componentType" : 5126,
    "count" : 9040,
    "type" : "VEC2"
  }, {
    "bufferView" : 102,
    "componentType" : 5126,
    "count" : 9040,
    "type" : "VEC4"
  }, {
    "bufferView" : 103,
    "componentType" : 5125,
    "count" : 13560,
    "type" : "SCALAR"
  }, {
    "bufferView" : 104,
    "componentType" : 5126,
    "count" : 9504,
    "type" : "VEC3",
    "max" : [ 40.5, 1.0, 60.5 ],
    "min" : [ -38.5, -12.0, -59.5 ]
  }, {
    "bufferView" : 105,
    "componentType" : 5126,
    "count" : 9504,
    "type" : "VEC2"
  }, {
    "bufferView" : 106,
    "componentType" : 5126,
    "count" : 9504,
    "type" : "VEC4"
  }, {
    "bufferView" : 107,
    "componentType" : 5125,
    "count" : 14256,
    "type" : "SCALAR"
  }, {
    "bufferView" : 108,
    "componentType" : 5126,
    "count" : 13568,
    "type" : "VEC3",
    "max" : [ 40.466663, 13.0, 60.566677 ],
    "min" : [ -39.699997, 0.8, -59.400013 ]
  }, {
    "bufferView" : 109,
    "componentType" : 5126,
    "count" : 13568,
    "type" : "VEC2"
  }, {
    "bufferView" : 110,
    "componentType" : 5126,
    "count" : 13568,
    "type" : "VEC4"
  }, {
    "bufferView" : 111,
    "componentType" : 5125,
    "count" : 20352,
    "type" : "SCALAR"
  }, {
    "bufferView" : 112,
    "componentType" : 5126,
    "count" : 56084,
    "type" : "VEC3",
    "max" : [ 40.5, 13.0, 60.5 ],
    "min" : [ -39.5, -12.0, -59.5 ]
  }, {
    "bufferView" : 113,
    "componentType" : 5126,
    "count" : 56084,
    "type" : "VEC2"
  }, {
    "bufferView" : 114,
    "componentType" : 5126,
    "count" : 56084,
    "type" : "VEC4"
  }, {
    "bufferView" : 115,
    "componentType" : 5125,
    "count" : 84126,
    "type" : "SCALAR"
  }, {
    "bufferView" : 116,
    "componentType" : 5126,
    "count" : 192,
    "type" : "VEC3",
    "max" : [ 27.449997, 5.0, 53.450012 ],
    "min" : [ 18.550003, 1.0, 26.549988 ]
  }, {
    "bufferView" : 117,
    "componentType" : 5126,
    "count" : 192,
    "type" : "VEC2"
  }, {
    "bufferView" : 118,
    "componentType" : 5126,
    "count" : 192,
    "type" : "VEC4"
  }, {
    "bufferView" : 119,
    "componentType" : 5125,
    "count" : 288,
    "type" : "SCALAR"
  }, {
    "bufferView" : 120,
    "componentType" : 5126,
    "count" : 352,
    "type" : "VEC3",
    "max" : [ -23.733335, 13.0, 41.600014 ],
    "min" : [ -33.466663, 11.0, 31.399988 ]
  }, {
    "bufferView" : 121,
    "componentType" : 5126,
    "count" : 352,
    "type" : "VEC2"
  }, {
    "bufferView" : 122,
    "componentType" : 5126,
    "count" : 352,
    "type" : "VEC4"
  }, {
    "bufferView" : 123,
    "componentType" : 5125,
    "count" : 528,
    "type" : "SCALAR"
  }, {
    "bufferView" : 124,
    "componentType" : 5126,
    "count" : 12384,
    "type" : "VEC3",
    "max" : [ 40.65, 1.0, 60.65 ],
    "min" : [ -33.383335, -12.0, -58.55 ]
  }, {
    "bufferView" : 125,
    "componentType" : 5126,
    "count" : 12384,
    "type" : "VEC2"
  }, {
    "bufferView" : 126,
    "componentType" : 5126,
    "count" : 12384,
    "type" : "VEC4"
  }, {
    "bufferView" : 127,
    "componentType" : 5125,
    "count" : 18576,
    "type" : "SCALAR"
  } ],
  "asset" : {
    "generator" : "VoxelBridge",
    "version" : "2.0"
  },
  "buffers" : [ {
    "uri" : "region_143_50_285__222_74_404.bin",
    "byteLength" : 6562408
  }, {
    "uri" : "region_143_50_285__222_74_404.uv.bin",
    "byteLength" : 1544096
  } ],
  "bufferViews" : [ {
    "buffer" : 0,
    "byteOffset" : 0,
    "byteLength" : 85152,
    "target" : 34962
  }, {
    "buffer" : 1,
    "byteOffset" : 0,
    "byteLength" : 56768,
    "target" : 34962
  }, {
    "buffer" : 0,
    "byteOffset" : 85152,
    "byteLength" : 113536,
    "target" : 34962
  }, {
    "buffer" : 0,
    "byteOffset" : 198688,
    "byteLength" : 42576,
    "target" : 34963
  }, {
    "buffer" : 0,
    "byteOffset" : 241264,
    "byteLength" : 576,
    "target" : 34962
  }, {
    "buffer" : 1,
    "byteOffset" : 56768,
    "byteLength" : 384,
    "target" : 34962
  }, {
    "buffer" : 0,
    "byteOffset" : 241840,
    "byteLength" : 768,
    "target" : 34962
  }, {
    "buffer" : 0,
    "byteOffset" : 242608,
    "byteLength" : 288,
    "target" : 34963
  }, {
    "buffer" : 0,
    "byteOffset" : 242896,
    "byteLength" : 14400,
    "target" : 34962
  }, {
    "buffer" : 1,
    "byteOffset" : 57152,
    "byteLength" : 9600,
    "target" : 34962
  }, {
    "buffer" : 0,
    "byteOffset" : 257296,
    "byteLength" : 19200,
    "target" : 34962
  }, {
    "buffer" : 0,
    "byteOffset" : 276496,
    "byteLength" : 7200,
    "target" : 34963
  }, {
    "buffer" : 0,
    "byteOffset" : 283696,
    "byteLength" : 960,
    "target" : 34962
  }, {
    "buffer" : 1,
    "byteOffset" : 66752,
    "byteLength" : 640,
    "target" : 34962
  }, {
    "buffer" : 0,
    "byteOffset" : 284656,
    "byteLength" : 1280,
    "target" : 34962
  }, {
    "buffer" : 0,
    "byteOffset" : 285936,
    "byteLength" : 480,
    "target" : 34963
  }, {
    "buffer" : 0,
    "byteOffset" : 286416,
    "byteLength" : 11856,
    "target" : 34962
  }, {
    "buffer" : 1,
    "byteOffset" : 67392,
    "byteLength" : 7904,
    "target" : 34962
  }, {
    "buffer" : 0,
    "byteOffset" : 298272,
    "byteLength" : 15808,
    "target" : 34962
  }, {
    "buffer" : 0,
    "byteOffset" : 314080,
    "byteLength" : 5928,
    "target" : 34963
  }, {
    "buffer" : 0,
    "byteOffset" : 320008,
    "byteLength" : 9024,
    "target" : 34962
  }, {
    "buffer" : 1,
    "byteOffset" : 75296,
    "byteLength" : 6016,
    "target" : 34962
  }, {
    "buffer" : 0,
    "byteOffset" : 329032,
    "byteLength" : 12032,
    "target" : 34962
  }, {
    "buffer" : 0,
    "byteOffset" : 341064,
    "byteLength" : 4512,
    "target" : 34963
  }, {
    "buffer" : 0,
    "byteOffset" : 345576,
    "byteLength" : 7632,
    "target" : 34962
  }, {
    "buffer" : 1,
    "byteOffset" : 81312,
    "byteLength" : 5088,
    "target" : 34962
  }, {
    "buffer" : 0,
    "byteOffset" : 353208,
    "byteLength" : 10176,
    "target" : 34962
  }, {
    "buffer" : 0,
    "byteOffset" : 363384,
    "byteLength" : 3816,
    "target" : 34963
  }, {
    "buffer" : 0,
    "byteOffset" : 367200,
    "byteLength" : 192,
    "target" : 34962
  }, {
    "buffer" : 1,
    "byteOffset" : 86400,
    "byteLength" : 128,
    "target" : 34962
  }, {
    "buffer" : 0,
    "byteOffset" : 367392,
    "byteLength" : 256,
    "target" : 34962
  }, {
    "buffer" : 0,
    "byteOffset" : 367648,
    "byteLength" : 96,
    "target" : 34963
  }, {
    "buffer" : 0,
    "byteOffset" : 367744,
    "byteLength" : 3456,
    "target" : 34962
  }, {
    "buffer" : 1,
    "byteOffset" : 86528,
    "byteLength" : 2304,
    "target" : 34962
  }, {
    "buffer" : 0,
    "byteOffset" : 371200,
    "byteLength" : 4608,
    "target" : 34962
  }, {
    "buffer" : 0,
    "byteOffset" : 375808,
    "byteLength" : 1728,
    "target" : 34963
  }, {
    "buffer" : 0,
    "byteOffset" : 377536,
    "byteLength" : 27072,
    "target" : 34962
  }, {
    "buffer" : 1,
    "byteOffset" : 88832,
    "byteLength" : 18048,
    "target" : 34962
  }, {
    "buffer" : 0,
    "byteOffset" : 404608,
    "byteLength" : 36096,
    "target" : 34962
  }, {
    "buffer" : 0,
    "byteOffset" : 440704,
    "byteLength" : 13536,
    "target" : 34963
  }, {
    "buffer" : 0,
    "byteOffset" : 454240,
    "byteLength" : 262224,
    "target" : 34962
  }, {
    "buffer" : 1,
    "byteOffset" : 106880,
    "byteLength" : 174816,
    "target" : 34962
  }, {
    "buffer" : 0,
    "byteOffset" : 716464,
    "byteLength" : 349632,
    "target" : 34962
  }, {
    "buffer" : 0,
    "byteOffset" : 1066096,
    "byteLength" : 131112,
    "target" : 34963
  }, {
    "buffer" : 0,
    "byteOffset" : 1197208,
    "byteLength" : 4752,
    "target" : 34962
  }, {
    "buffer" : 1,
    "byteOffset" : 281696,
    "byteLength" : 3168,
    "target" : 34962
  }, {
    "buffer" : 0,
    "byteOffset" : 1201960,
    "byteLength" : 6336,
    "target" : 34962
  }, {
    "buffer" : 0,
    "byteOffset" : 1208296,
    "byteLength" : 2376,
    "target" : 34963
  }, {
    "buffer" : 0,
    "byteOffset" : 1210672,
    "byteLength" : 576,
    "target" : 34962
  }, {
    "buffer" : 1,
    "byteOffset" : 284864,
    "byteLength" : 384,
    "target" : 34962
  }, {
    "buffer" : 0,
    "byteOffset" : 1211248,
    "byteLength" : 768,
    "target" : 34962
  }, {
    "buffer" : 0,
    "byteOffset" : 1212016,
    "byteLength" : 288,
    "target" : 34963
  }, {
    "buffer" : 0,
    "byteOffset" : 1212304,
    "byteLength" : 192,
    "target" : 34962
  }, {
    "buffer" : 1,
    "byteOffset" : 285248,
    "byteLength" : 128,
    "target" : 34962
  }, {
    "buffer" : 0,
    "byteOffset" : 1212496,
    "byteLength" : 256,
    "target" : 34962
  }, {
    "buffer" : 0,
    "byteOffset" : 1212752,
    "byteLength" : 96,
    "target" : 34963
  }, {
    "buffer" : 0,
    "byteOffset" : 1212848,
    "byteLength" : 23472,
    "target" : 34962
  }, {
    "buffer" : 1,
    "byteOffset" : 285376,
    "byteLength" : 15648,
    "target" : 34962
  }, {
    "buffer" : 0,
    "byteOffset" : 1236320,
    "byteLength" : 31296,
    "target" : 34962
  }, {
    "buffer" : 0,
    "byteOffset" : 1267616,
    "byteLength" : 11736,
    "target" : 34963
  }, {
    "buffer" : 0,
    "byteOffset" : 1279352,
    "byteLength" : 398256,
    "target" : 34962
  }, {
    "buffer" : 1,
    "byteOffset" : 301024,
    "byteLength" : 265504,
    "target" : 34962
  }, {
    "buffer" : 0,
    "byteOffset" : 1677608,
    "byteLength" : 531008,
    "target" : 34962
  }, {
    "buffer" : 0,
    "byteOffset" : 2208616,
    "byteLength" : 199128,
    "target" : 34963
  }, {
    "buffer" : 0,
    "byteOffset" : 2407744,
    "byteLength" : 140496,
    "target" : 34962
  }, {
    "buffer" : 1,
    "byteOffset" : 566528,
    "byteLength" : 93664,
    "target" : 34962
  }, {
    "buffer" : 0,
    "byteOffset" : 2548240,
    "byteLength" : 187328,
    "target" : 34962
  }, {
    "buffer" : 0,
    "byteOffset" : 2735568,
    "byteLength" : 70248,
    "target" : 34963
  }, {
    "buffer" : 0,
    "byteOffset" : 2805816,
    "byteLength" : 85104,
    "target" : 34962
  }, {
    "buffer" : 1,
    "byteOffset" : 660192,
    "byteLength" : 56736,
    "target" : 34962
  }, {
    "buffer" : 0,
    "byteOffset" : 2890920,
    "byteLength" : 113472,
    "target" : 34962
  }, {
    "buffer" : 0,
    "byteOffset" : 3004392,
    "byteLength" : 42552,
    "target" : 34963
  }, {
    "buffer" : 0,
    "byteOffset" : 3046944,
    "byteLength" : 576,
    "target" : 34962
  }, {
    "buffer" : 1,
    "byteOffset" : 716928,
    "byteLength" : 384,
    "target" : 34962
  }, {
    "buffer" : 0,
    "byteOffset" : 3047520,
    "byteLength" : 768,
    "target" : 34962
  }, {
    "buffer" : 0,
    "byteOffset" : 3048288,
    "byteLength" : 288,
    "target" : 34963
  }, {
    "buffer" : 0,
    "byteOffset" : 3048576,
    "byteLength" : 48,
    "target" : 34962
  }, {
    "buffer" : 1,
    "byteOffset" : 717312,
    "byteLength" : 32,
    "target" : 34962
  }, {
    "buffer" : 0,
    "byteOffset" : 3048624,
    "byteLength" : 64,
    "target" : 34962
  }, {
    "buffer" : 0,
    "byteOffset" : 3048688,
    "byteLength" : 24,
    "target" : 34963
  }, {
    "buffer" : 0,
    "byteOffset" : 3048712,
    "byteLength" : 19296,
    "target" : 34962
  }, {
    "buffer" : 1,
    "byteOffset" : 717344,
    "byteLength" : 12864,
    "target" : 34962
  }, {
    "buffer" : 0,
    "byteOffset" : 3068008,
    "byteLength" : 25728,
    "target" : 34962
  }, {
    "buffer" : 0,
    "byteOffset" : 3093736,
    "byteLength" : 9648,
    "target" : 34963
  }, {
    "buffer" : 0,
    "byteOffset" : 3103384,
    "byteLength" : 1776,
    "target" : 34962
  }, {
    "buffer" : 1,
    "byteOffset" : 730208,
    "byteLength" : 1184,
    "target" : 34962
  }, {
    "buffer" : 0,
    "byteOffset" : 3105160,
    "byteLength" : 2368,
    "target" : 34962
  }, {
    "buffer" : 0,
    "byteOffset" : 3107528,
    "byteLength" : 888,
    "target" : 34963
  }, {
    "buffer" : 0,
    "byteOffset" : 3108416,
    "byteLength" : 384,
    "target" : 34962
  }, {
    "buffer" : 1,
    "byteOffset" : 731392,
    "byteLength" : 256,
    "target" : 34962
  }, {
    "buffer" : 0,
    "byteOffset" : 3108800,
    "byteLength" : 512,
    "target" : 34962
  }, {
    "buffer" : 0,
    "byteOffset" : 3109312,
    "byteLength" : 192,
    "target" : 34963
  }, {
    "buffer" : 0,
    "byteOffset" : 3109504,
    "byteLength" : 4224,
    "target" : 34962
  }, {
    "buffer" : 1,
    "byteOffset" : 731648,
    "byteLength" : 2816,
    "target" : 34962
  }, {
    "buffer" : 0,
    "byteOffset" : 3113728,
    "byteLength" : 5632,
    "target" : 34962
  }, {
    "buffer" : 0,
    "byteOffset" : 3119360,
    "byteLength" : 2112,
    "target" : 34963
  }, {
    "buffer" : 0,
    "byteOffset" : 3121472,
    "byteLength" : 960,
    "target" : 34962
  }, {
    "buffer" : 1,
    "byteOffset" : 734464,
    "byteLength" : 640,
    "target" : 34962
  }, {
    "buffer" : 0,
    "byteOffset" : 3122432,
    "byteLength" : 1280,
    "target" : 34962
  }, {
    "buffer" : 0,
    "byteOffset" : 3123712,
    "byteLength" : 480,
    "target" : 34963
  }, {
    "buffer" : 0,
    "byteOffset" : 3124192,
    "byteLength" : 108480,
    "target" : 34962
  }, {
    "buffer" : 1,
    "byteOffset" : 735104,
    "byteLength" : 72320,
    "target" : 34962
  }, {
    "buffer" : 0,
    "byteOffset" : 3232672,
    "byteLength" : 144640,
    "target" : 34962
  }, {
    "buffer" : 0,
    "byteOffset" : 3377312,
    "byteLength" : 54240,
    "target" : 34963
  }, {
    "buffer" : 0,
    "byteOffset" : 3431552,
    "byteLength" : 114048,
    "target" : 34962
  }, {
    "buffer" : 1,
    "byteOffset" : 807424,
    "byteLength" : 76032,
    "target" : 34962
  }, {
    "buffer" : 0,
    "byteOffset" : 3545600,
    "byteLength" : 152064,
    "target" : 34962
  }, {
    "buffer" : 0,
    "byteOffset" : 3697664,
    "byteLength" : 57024,
    "target" : 34963
  }, {
    "buffer" : 0,
    "byteOffset" : 3754688,
    "byteLength" : 162816,
    "target" : 34962
  }, {
    "buffer" : 1,
    "byteOffset" : 883456,
    "byteLength" : 108544,
    "target" : 34962
  }, {
    "buffer" : 0,
    "byteOffset" : 3917504,
    "byteLength" : 217088,
    "target" : 34962
  }, {
    "buffer" : 0,
    "byteOffset" : 4134592,
    "byteLength" : 81408,
    "target" : 34963
  }, {
    "buffer" : 0,
    "byteOffset" : 4216000,
    "byteLength" : 673008,
    "target" : 34962
  }, {
    "buffer" : 1,
    "byteOffset" : 992000,
    "byteLength" : 448672,
    "target" : 34962
  }, {
    "buffer" : 0,
    "byteOffset" : 4889008,
    "byteLength" : 897344,
    "target" : 34962
  }, {
    "buffer" : 0,
    "byteOffset" : 5786352,
    "byteLength" : 336504,
    "target" : 34963
  }, {
    "buffer" : 0,
    "byteOffset" : 6122856,
    "byteLength" : 2304,
    "target" : 34962
  }, {
    "buffer" : 1,
    "byteOffset" : 1440672,
    "byteLength" : 1536,
    "target" : 34962
  }, {
    "buffer" : 0,
    "byteOffset" : 6125160,
    "byteLength" : 3072,
    "target" : 34962
  }, {
    "buffer" : 0,
    "byteOffset" : 6128232,
    "byteLength" : 1152,
    "target" : 34963
  }, {
    "buffer" : 0,
    "byteOffset" : 6129384,
    "byteLength" : 4224,
    "target" : 34962
  }, {
    "buffer" : 1,
    "byteOffset" : 1442208,
    "byteLength" : 2816,
    "target" : 34962
  }, {
    "buffer" : 0,
    "byteOffset" : 6133608,
    "byteLength" : 5632,
    "target" : 34962
  }, {
    "buffer" : 0,
    "byteOffset" : 6139240,
    "byteLength" : 2112,
    "target" : 34963
  }, {
    "buffer" : 0,
    "byteOffset" : 6141352,
    "byteLength" : 148608,
    "target" : 34962
  }, {
    "buffer" : 1,
    "byteOffset" : 1445024,
    "byteLength" : 99072,
    "target" : 34962
  }, {
    "buffer" : 0,
    "byteOffset" : 6289960,
    "byteLength" : 198144,
    "target" : 34962
  }, {
    "buffer" : 0,
    "byteOffset" : 6488104,
    "byteLength" : 74304,
    "target" : 34963
  } ],
  "images" : [ {
    "uri" : "textures/atlas/atlas_1001.png"
  }, {
    "uri" : "textures/atlas/atlas_1001.png"
  }, {
    "uri" : "textures/atlas/atlas_1001.png"
  }, {
    "uri" : "textures/atlas/atlas_1001.png"
  }, {
    "uri" : "textures/atlas/atlas_1001.png"
  }, {
    "uri" : "textures/atlas/atlas_1001.png"
  }, {
    "uri" : "textures/atlas/atlas_1001.png"
  }, {
    "uri" : "textures/atlas/atlas_1001.png"
  }, {
    "uri" : "textures/atlas/atlas_1001.png"
  }, {
    "uri" : "textures/atlas/atlas_1001.png"
  }, {
    "uri" : "textures/atlas/atlas_1001.png"
  }, {
    "uri" : "textures/atlas/atlas_1001.png"
  }, {
    "uri" : "textures/atlas/atlas_1001.png"
  }, {
    "uri" : "textures/atlas/atlas_1001.png"
  }, {
    "uri" : "textures/atlas/atlas_1001.png"
  }, {
    "uri" : "textures/atlas/atlas_1001.png"
  }, {
    "uri" : "textures/atlas/atlas_1001.png"
  }, {
    "uri" : "textures/atlas/atlas_1001.png"
  }, {
    "uri" : "textures/atlas/atlas_1001.png"
  }, {
    "uri" : "textures/atlas/atlas_1001.png"
  }, {
    "uri" : "textures/atlas/atlas_1001.png"
  }, {
    "uri" : "textures/atlas/atlas_1001.png"
  }, {
    "uri" : "textures/atlas/atlas_1001.png"
  }, {
    "uri" : "textures/atlas/atlas_1001.png"
  }, {
    "uri" : "textures/atlas/atlas_1001.png"
  }, {
    "uri" : "textures/atlas/atlas_1001.png"
  }, {
    "uri" : "textures/atlas/atlas_1001.png"
  }, {
    "uri" : "textures/atlas/atlas_1001.png"
  }, {
    "uri" : "textures/atlas/atlas_1001.png"
  }, {
    "uri" : "textures/atlas/atlas_1001.png"
  }, {
    "uri" : "textures/atlas/atlas_1001.png"
  } ],
  "materials" : [ {
    "name" : "minecraft:andesite",
    "pbrMetallicRoughness" : {
      "baseColorTexture" : {
        "index" : 0
      },
      "metallicFactor" : 0.0,
      "roughnessFactor" : 1.0
    },
    "doubleSided" : false
  }, {
    "name" : "minecraft:azure_bluet",
    "pbrMetallicRoughness" : {
      "baseColorTexture" : {
        "index" : 1
      },
      "metallicFactor" : 0.0,
      "roughnessFactor" : 1.0
    },
    "doubleSided" : true
  }, {
    "name" : "minecraft:birch_leaves",
    "pbrMetallicRoughness" : {
      "baseColorTexture" : {
        "index" : 2
      },
      "metallicFactor" : 0.0,
      "roughnessFactor" : 1.0
    },
    "doubleSided" : false
  }, {
    "name" : "minecraft:birch_log",
    "pbrMetallicRoughness" : {
      "baseColorTexture" : {
        "index" : 3
      },
      "metallicFactor" : 0.0,
      "roughnessFactor" : 1.0
    },
    "doubleSided" : false
  }, {
    "name" : "minecraft:clay",
    "pbrMetallicRoughness" : {
      "baseColorTexture" : {
        "index" : 4
      },
      "metallicFactor" : 0.0,
      "roughnessFactor" : 1.0
    },
    "doubleSided" : false
  }, {
    "name" : "minecraft:coal_ore",
    "pbrMetallicRoughness" : {
      "baseColorTexture" : {
        "index" : 5
      },
      "metallicFactor" : 0.0,
      "roughnessFactor" : 1.0
    },
    "doubleSided" : false
  }, {
    "name" : "minecraft:copper_ore",
    "pbrMetallicRoughness" : {
      "baseColorTexture" : {
        "index" : 6
      },
      "metallicFactor" : 0.0,
      "roughnessFactor" : 1.0
    },
    "doubleSided" : false
  }, {
    "name" : "minecraft:cornflower",
    "pbrMetallicRoughness" : {
      "baseColorTexture" : {
        "index" : 7
      },
      "metallicFactor" : 0.0,
      "roughnessFactor" : 1.0
    },
    "doubleSided" : true
  }, {
    "name" : "minecraft:dandelion",
    "pbrMetallicRoughness" : {
      "baseColorTexture" : {
        "index" : 8
      },
      "metallicFactor" : 0.0,
      "roughnessFactor" : 1.0
    },
    "doubleSided" : true
  }, {
    "name" : "minecraft:diorite",
    "pbrMetallicRoughness" : {
      "baseColorTexture" : {
        "index" : 9
      },
      "metallicFactor" : 0.0,
      "roughnessFactor" : 1.0
    },
    "doubleSided" : false
  }, {
    "name" : "minecraft:dirt",
    "pbrMetallicRoughness" : {
      "baseColorTexture" : {
        "index" : 10
      },
      "metallicFactor" : 0.0,
      "roughnessFactor" : 1.0
    },
    "doubleSided" : false
  }, {
    "name" : "minecraft:dripstone_block",
    "pbrMetallicRoughness" : {
      "baseColorTexture" : {
        "index" : 11
      },
      "metallicFactor" : 0.0,
      "roughnessFactor" : 1.0
    },
    "doubleSided" : false
  }, {
    "name" : "minecraft:fire_emissive",
    "pbrMetallicRoughness" : {
      "baseColorTexture" : {
        "index" : 12
      },
      "metallicFactor" : 0.0,
      "roughnessFactor" : 1.0
    },
    "doubleSided" : false
  }, {
    "name" : "minecraft:glow_lichen_emissive",
    "pbrMetallicRoughness" : {
      "baseColorTexture" : {
        "index" : 13
      },
      "metallicFactor" : 0.0,
      "roughnessFactor" : 1.0
    },
    "doubleSided" : false
  }, {
    "name" : "minecraft:granite",
    "pbrMetallicRoughness" : {
      "baseColorTexture" : {
        "index" : 14
      },
      "metallicFactor" : 0.0,
      "roughnessFactor" : 1.0
    },
    "doubleSided" : false
  }, {
    "name" : "minecraft:grass_block",
    "pbrMetallicRoughness" : {
      "baseColorTexture" : {
        "index" : 10
      },
      "metallicFactor" : 0.0,
      "roughnessFactor" : 1.0
    },
    "doubleSided" : false
  }, {
    "name" : "minecraft:grass_block_overlay",
    "pbrMetallicRoughness" : {
      "baseColorTexture" : {
        "index" : 15
      },
      "metallicFactor" : 0.0,
      "roughnessFactor" : 1.0
    },
    "doubleSided" : false
  }, {
    "name" : "minecraft:gravel",
    "pbrMetallicRoughness" : {
      "baseColorTexture" : {
        "index" : 16
      },
      "metallicFactor" : 0.0,
      "roughnessFactor" : 1.0
    },
    "doubleSided" : false
  }, {
    "name" : "minecraft:iron_ore",
    "pbrMetallicRoughness" : {
      "baseColorTexture" : {
        "index" : 17
      },
      "metallicFactor" : 0.0,
      "roughnessFactor" : 1.0
    },
    "doubleSided" : false
  }, {
    "name" : "minecraft:lapis_ore",
    "pbrMetallicRoughness" : {
      "baseColorTexture" : {
        "index" : 18
      },
      "metallicFactor" : 0.0,
      "roughnessFactor" : 1.0
    },
    "doubleSided" : false
  }, {
    "name" : "minecraft:oak_leaves",
    "pbrMetallicRoughness" : {
      "baseColorTexture" : {
        "index" : 19
      },
      "metallicFactor" : 0.0,
      "roughnessFactor" : 1.0
    },
    "doubleSided" : false
  }, {
    "name" : "minecraft:oak_log",
    "pbrMetallicRoughness" : {
      "baseColorTexture" : {
        "index" : 20
      },
      "metallicFactor" : 0.0,
      "roughnessFactor" : 1.0
    },
    "doubleSided" : false
  }, {
    "name" : "minecraft:oxeye_daisy",
    "pbrMetallicRoughness" : {
      "baseColorTexture" : {
        "index" : 21
      },
      "metallicFactor" : 0.0,
      "roughnessFactor" : 1.0
    },
    "doubleSided" : true
  }, {
    "name" : "minecraft:pointed_dripstone",
    "pbrMetallicRoughness" : {
      "baseColorTexture" : {
        "index" : 22
      },
      "metallicFactor" : 0.0,
      "roughnessFactor" : 1.0
    },
    "doubleSided" : false
  }, {
    "name" : "minecraft:poppy",
    "pbrMetallicRoughness" : {
      "baseColorTexture" : {
        "index" : 23
      },
      "metallicFactor" : 0.0,
      "roughnessFactor" : 1.0
    },
    "doubleSided" : true
  }, {
    "name" : "minecraft:sand",
    "pbrMetallicRoughness" : {
      "baseColorTexture" : {
        "index" : 24
      },
      "metallicFactor" : 0.0,
      "roughnessFactor" : 1.0
    },
    "doubleSided" : false
  }, {
    "name" : "minecraft:seagrass",
    "pbrMetallicRoughness" : {
      "baseColorTexture" : {
        "index" : 25
      },
      "metallicFactor" : 0.0,
      "roughnessFactor" : 1.0
    },
    "doubleSided" : true
  }, {
    "name" : "minecraft:short_grass",
    "pbrMetallicRoughness" : {
      "baseColorTexture" : {
        "index" : 26
      },
      "metallicFactor" : 0.0,
      "roughnessFactor" : 1.0
    },
    "doubleSided" : true
  }, {
    "name" : "minecraft:stone",
    "pbrMetallicRoughness" : {
      "baseColorTexture" : {
        "index" : 27
      },
      "metallicFactor" : 0.0,
      "roughnessFactor" : 1.0
    },
    "doubleSided" : false
  }, {
    "name" : "minecraft:sugar_cane",
    "pbrMetallicRoughness" : {
      "baseColorTexture" : {
        "index" : 28
      },
      "metallicFactor" : 0.0,
      "roughnessFactor" : 1.0
    },
    "doubleSided" : false
  }, {
    "name" : "minecraft:tall_grass",
    "pbrMetallicRoughness" : {
      "baseColorTexture" : {
        "index" : 29
      },
      "metallicFactor" : 0.0,
      "roughnessFactor" : 1.0
    },
    "doubleSided" : true
  }, {
    "name" : "minecraft:tall_seagrass",
    "pbrMetallicRoughness" : {
      "baseColorTexture" : {
        "index" : 30
      },
      "metallicFactor" : 0.0,
      "roughnessFactor" : 1.0
    },
    "doubleSided" : true
  } ],
  "meshes" : [ {
    "name" : "minecraft:andesite",
    "primitives" : [ {
      "attributes" : {
        "POSITION" : 0,
        "TEXCOORD_0" : 1,
        "COLOR_0" : 2
      },
      "indices" : 3,
      "material" : 0,
      "mode" : 4
    } ]
  }, {
    "name" : "minecraft:azure_bluet",
    "primitives" : [ {
      "attributes" : {
        "POSITION" : 4,
        "TEXCOORD_0" : 5,
        "COLOR_0" : 6
      },
      "indices" : 7,
      "material" : 1,
      "mode" : 4
    } ]
  }, {
    "name" : "minecraft:birch_leaves",
    "primitives" : [ {
      "attributes" : {
        "POSITION" : 8,
        "TEXCOORD_0" : 9,
        "COLOR_0" : 10
      },
      "indices" : 11,
      "material" : 2,
      "mode" : 4
    } ]
  }, {
    "name" : "minecraft:birch_log",
    "primitives" : [ {
      "attributes" : {
        "POSITION" : 12,
        "TEXCOORD_0" : 13,
        "COLOR_0" : 14
      },
      "indices" : 15,
      "material" : 3,
      "mode" : 4
    } ]
  }, {
    "name" : "minecraft:clay",
    "primitives" : [ {
      "attributes" : {
        "POSITION" : 16,
        "TEXCOORD_0" : 17,
        "COLOR_0" : 18
      },
      "indices" : 19,
      "material" : 4,
      "mode" : 4
    } ]
  }, {
    "name" : "minecraft:coal_ore",
    "primitives" : [ {
      "attributes" : {
        "POSITION" : 20,
        "TEXCOORD_0" : 21,
        "COLOR_0" : 22
      },
      "indices" : 23,
      "material" : 5,
      "mode" : 4
    } ]
  }, {
    "name" : "minecraft:copper_ore",
    "primitives" : [ {
      "attributes" : {
        "POSITION" : 24,
        "TEXCOORD_0" : 25,
        "COLOR_0" : 26
      },
      "indices" : 27,
      "material" : 6,
      "mode" : 4
    } ]
  }, {
    "name" : "minecraft:cornflower",
    "primitives" : [ {
      "attributes" : {
        "POSITION" : 28,
        "TEXCOORD_0" : 29,
        "COLOR_0" : 30
      },
      "indices" : 31,
      "material" : 7,
      "mode" : 4
    } ]
  }, {
    "name" : "minecraft:dandelion",
    "primitives" : [ {
      "attributes" : {
        "POSITION" : 32,
        "TEXCOORD_0" : 33,
        "COLOR_0" : 34
      },
      "indices" : 35,
      "material" : 8,
      "mode" : 4
    } ]
  }, {
    "name" : "minecraft:diorite",
    "primitives" : [ {
      "attributes" : {
        "POSITION" : 36,
        "TEXCOORD_0" : 37,
        "COLOR_0" : 38
      },
      "indices" : 39,
      "material" : 9,
      "mode" : 4
    } ]
  }, {
    "name" : "minecraft:dirt",
    "primitives" : [ {
      "attributes" : {
        "POSITION" : 40,
        "TEXCOORD_0" : 41,
        "COLOR_0" : 42
      },
      "indices" : 43,
      "material" : 10,
      "mode" : 4
    } ]
  }, {
    "name" : "minecraft:dripstone_block",
    "primitives" : [ {
      "attributes" : {
        "POSITION" : 44,
        "TEXCOORD_0" : 45,
        "COLOR_0" : 46
      },
      "indices" : 47,
      "material" : 11,
      "mode" : 4
    } ]
  }, {
    "name" : "minecraft:fire_emissive",
    "primitives" : [ {
      "attributes" : {
        "POSITION" : 48,
        "TEXCOORD_0" : 49,
        "COLOR_0" : 50
      },
      "indices" : 51,
      "material" : 12,
      "mode" : 4
    } ]
  }, {
    "name" : "minecraft:glow_lichen_emissive",
    "primitives" : [ {
      "attributes" : {
        "POSITION" : 52,
        "TEXCOORD_0" : 53,
        "COLOR_0" : 54
      },
      "indices" : 55,
      "material" : 13,
      "mode" : 4
    } ]
  }, {
    "name" : "minecraft:granite",
    "primitives" : [ {
      "attributes" : {
        "POSITION" : 56,
        "TEXCOORD_0" : 57,
        "COLOR_0" : 58
      },
      "indices" : 59,
      "material" : 14,
      "mode" : 4
    } ]
  }, {
    "name" : "minecraft:grass_block",
    "primitives" : [ {
      "attributes" : {
        "POSITION" : 60,
        "TEXCOORD_0" : 61,
        "COLOR_0" : 62
      },
      "indices" : 63,
      "material" : 15,
      "mode" : 4
    } ]
  }, {
    "name" : "minecraft:grass_block_overlay",
    "primitives" : [ {
      "attributes" : {
        "POSITION" : 64,
        "TEXCOORD_0" : 65,
        "COLOR_0" : 66
      },
      "indices" : 67,
      "material" : 16,
      "mode" : 4
    } ]
  }, {
    "name" : "minecraft:gravel",
    "primitives" : [ {
      "attributes" : {
        "POSITION" : 68,
        "TEXCOORD_0" : 69,
        "COLOR_0" : 70
      },
      "indices" : 71,
      "material" : 17,
      "mode" : 4
    } ]
  }, {
    "name" : "minecraft:iron_ore",
    "primitives" : [ {
      "attributes" : {
        "POSITION" : 72,
        "TEXCOORD_0" : 73,
        "COLOR_0" : 74
      },
      "indices" : 75,
      "material" : 18,
      "mode" : 4
    } ]
  }, {
    "name" : "minecraft:lapis_ore",
    "primitives" : [ {
      "attributes" : {
        "POSITION" : 76,
        "TEXCOORD_0" : 77,
        "COLOR_0" : 78
      },
      "indices" : 79,
      "material" : 19,
      "mode" : 4
    } ]
  }, {
    "name" : "minecraft:oak_leaves",
    "primitives" : [ {
      "attributes" : {
        "POSITION" : 80,
        "TEXCOORD_0" : 81,
        "COLOR_0" : 82
      },
      "indices" : 83,
      "material" : 20,
      "mode" : 4
    } ]
  }, {
    "name" : "minecraft:oak_log",
    "primitives" : [ {
      "attributes" : {
        "POSITION" : 84,
        "TEXCOORD_0" : 85,
        "COLOR_0" : 86
      },
      "indices" : 87,
      "material" : 21,
      "mode" : 4
    } ]
  }, {
    "name" : "minecraft:oxeye_daisy",
    "primitives" : [ {
      "attributes" : {
        "POSITION" : 88,
        "TEXCOORD_0" : 89,
        "COLOR_0" : 90
      },
      "indices" : 91,
      "material" : 22,
      "mode" : 4
    } ]
  }, {
    "name" : "minecraft:pointed_dripstone",
    "primitives" : [ {
      "attributes" : {
        "POSITION" : 92,
        "TEXCOORD_0" : 93,
        "COLOR_0" : 94
      },
      "indices" : 95,
      "material" : 23,
      "mode" : 4
    } ]
  }, {
    "name" : "minecraft:poppy",
    "primitives" : [ {
      "attributes" : {
        "POSITION" : 96,
        "TEXCOORD_0" : 97,
        "COLOR_0" : 98
      },
      "indices" : 99,
      "material" : 24,
      "mode" : 4
    } ]
  }, {
    "name" : "minecraft:sand",
    "primitives" : [ {
      "attributes" : {
        "POSITION" : 100,
        "TEXCOORD_0" : 101,
        "COLOR_0" : 102
      },
      "indices" : 103,
      "material" : 25,
      "mode" : 4
    } ]
  }, {
    "name" : "minecraft:seagrass",
    "primitives" : [ {
      "attributes" : {
        "POSITION" : 104,
        "TEXCOORD_0" : 105,
        "COLOR_0" : 106
      },
      "indices" : 107,
      "material" : 26,
      "mode" : 4
    } ]
  }, {
    "name" : "minecraft:short_grass",
    "primitives" : [ {
      "attributes" : {
        "POSITION" : 108,
        "TEXCOORD_0" : 109,
        "COLOR_0" : 110
      },
      "indices" : 111,
      "material" : 27,
      "mode" : 4
    } ]
  }, {
    "name" : "minecraft:stone",
    "primitives" : [ {
      "attributes" : {
        "POSITION" : 112,
        "TEXCOORD_0" : 113,
        "COLOR_0" : 114
      },
      "indices" : 115,
      "material" : 28,
      "mode" : 4
    } ]
  }, {
    "name" : "minecraft:sugar_cane",
    "primitives" : [ {
      "attributes" : {
        "POSITION" : 116,
        "TEXCOORD_0" : 117,
        "COLOR_0" : 118
      },
      "indices" : 119,
      "material" : 29,
      "mode" : 4
    } ]
  }, {
    "name" : "minecraft:tall_grass",
    "primitives" : [ {
      "attributes" : {
        "POSITION" : 120,
        "TEXCOORD_0" : 121,
        "COLOR_0" : 122
      },
      "indices" : 123,
      "material" : 30,
      "mode" : 4
    } ]
  }, {
    "name" : "minecraft:tall_seagrass",
    "primitives" : [ {
      "attributes" : {
        "POSITION" : 124,
        "TEXCOORD_0" : 125,
        "COLOR_0" : 126
      },
      "indices" : 127,
      "material" : 31,
      "mode" : 4
    } ]
  } ],
  "nodes" : [ {
    "name" : "minecraft:andesite",
    "mesh" : 0
  }, {
    "name" : "minecraft:azure_bluet",
    "mesh" : 1
  }, {
    "name" : "minecraft:birch_leaves",
    "mesh" : 2
  }, {
    "name" : "minecraft:birch_log",
    "mesh" : 3
  }, {
    "name" : "minecraft:clay",
    "mesh" : 4
  }, {
    "name" : "minecraft:coal_ore",
    "mesh" : 5
  }, {
    "name" : "minecraft:copper_ore",
    "mesh" : 6
  }, {
    "name" : "minecraft:cornflower",
    "mesh" : 7
  }, {
    "name" : "minecraft:dandelion",
    "mesh" : 8
  }, {
    "name" : "minecraft:diorite",
    "mesh" : 9
  }, {
    "name" : "minecraft:dirt",
    "mesh" : 10
  }, {
    "name" : "minecraft:dripstone_block",
    "mesh" : 11
  }, {
    "name" : "minecraft:fire_emissive",
    "mesh" : 12
  }, {
    "name" : "minecraft:glow_lichen_emissive",
    "mesh" : 13
  }, {
    "name" : "minecraft:granite",
    "mesh" : 14
  }, {
    "name" : "minecraft:grass_block",
    "mesh" : 15
  }, {
    "name" : "minecraft:grass_block_overlay",
    "mesh" : 16
  }, {
    "name" : "minecraft:gravel",
    "mesh" : 17
  }, {
    "name" : "minecraft:iron_ore",
    "mesh" : 18
  }, {
    "name" : "minecraft:lapis_ore",
    "mesh" : 19
  }, {
    "name" : "minecraft:oak_leaves",
    "mesh" : 20
  }, {
    "name" : "minecraft:oak_log",
    "mesh" : 21
  }, {
    "name" : "minecraft:oxeye_daisy",
    "mesh" : 22
  }, {
    "name" : "minecraft:pointed_dripstone",
    "mesh" : 23
  }, {
    "name" : "minecraft:poppy",
    "mesh" : 24
  }, {
    "name" : "minecraft:sand",
    "mesh" : 25
  }, {
    "name" : "minecraft:seagrass",
    "mesh" : 26
  }, {
    "name" : "minecraft:short_grass",
    "mesh" : 27
  }, {
    "name" : "minecraft:stone",
    "mesh" : 28
  }, {
    "name" : "minecraft:sugar_cane",
    "mesh" : 29
  }, {
    "name" : "minecraft:tall_grass",
    "mesh" : 30
  }, {
    "name" : "minecraft:tall_seagrass",
    "mesh" : 31
  } ],
  "samplers" : [ {
    "magFilter" : 9728,
    "minFilter" : 9728,
    "wrapS" : 10497,
    "wrapT" : 10497
  } ],
  "scene" : 0,
  "scenes" : [ {
    "nodes" : [ 0, 1, 2, 3, 4, 5, 6, 7, 8, 9, 10, 11, 12, 13, 14, 15, 16, 17, 18, 19, 20, 21, 22, 23, 24, 25, 26, 27, 28, 29, 30, 31 ]
  } ],
  "textures" : [ {
    "sampler" : 0,
    "source" : 0
  }, {
    "sampler" : 0,
    "source" : 1
  }, {
    "sampler" : 0,
    "source" : 2
  }, {
    "sampler" : 0,
    "source" : 3
  }, {
    "sampler" : 0,
    "source" : 4
  }, {
    "sampler" : 0,
    "source" : 5
  }, {
    "sampler" : 0,
    "source" : 6
  }, {
    "sampler" : 0,
    "source" : 7
  }, {
    "sampler" : 0,
    "source" : 8
  }, {
    "sampler" : 0,
    "source" : 9
  }, {
    "sampler" : 0,
    "source" : 10
  }, {
    "sampler" : 0,
    "source" : 11
  }, {
    "sampler" : 0,
    "source" : 12
  }, {
    "sampler" : 0,
    "source" : 13
  }, {
    "sampler" : 0,
    "source" : 14
  }, {
    "sampler" : 0,
    "source" : 15
  }, {
    "sampler" : 0,
    "source" : 16
  }, {
    "sampler" : 0,
    "source" : 17
  }, {
    "sampler" : 0,
    "source" : 18
  }, {
    "sampler" : 0,
    "source" : 19
  }, {
    "sampler" : 0,
    "source" : 20
  }, {
    "sampler" : 0,
    "source" : 21
  }, {
    "sampler" : 0,
    "source" : 22
  }, {
    "sampler" : 0,
    "source" : 23
  }, {
    "sampler" : 0,
    "source" : 24
  }, {
    "sampler" : 0,
    "source" : 25
  }, {
    "sampler" : 0,
    "source" : 26
  }, {
    "sampler" : 0,
    "source" : 27
  }, {
    "sampler" : 0,
    "source" : 28
  }, {
    "sampler" : 0,
    "source" : 29
  }, {
    "sampler" : 0,
    "source" : 30
  } ]
}