{
  "accessors" : [ {
    "bufferView" : 0,
    "componentType" : 5126,
    "count" : 78956,
    "type" : "VEC3",
    "max" : [ 21.0, 16.0, 18.0 ],
    "min" : [ -20.0, -15.0, -17.0 ]
  }, {
    "bufferView" : 1,
    "componentType" : 5126,
    "count" : 78956,
    "type" : "VEC2"
  }, {
    "bufferView" : 2,
    "componentType" : 5126,
    "count" : 78956,
    "type" : "VEC4"
  }, {
    "bufferView" : 3,
    "componentType" : 5125,
    "count" : 118434,
    "type" : "SCALAR"
  }, {
    "bufferView" : 4,
    "componentType" : 5126,
    "count" : 2780,
    "type" : "VEC3",
    "max" : [ 19.0, 14.0, 18.0 ],
    "min" : [ -19.0, -15.0, -11.0 ]
  }, {
    "bufferView" : 5,
    "componentType" : 5126,
    "count" : 2780,
    "type" : "VEC2"
  }, {
    "bufferView" : 6,
    "componentType" : 5126,
    "count" : 2780,
    "type" : "VEC4"
  }, {
    "bufferView" : 7,
    "componentType" : 5125,
    "count" : 4170,
    "type" : "SCALAR"
  }, {
    "bufferView" : 8,
    "componentType" : 5126,
    "count" : 96,
    "type" : "VEC3",
    "max" : [ 16.949997, 12.0, -6.049988 ],
    "min" : [ -0.95000076, -5.0, -12.950012 ]
  }, {
    "bufferView" : 9,
    "componentType" : 5126,
    "count" : 96,
    "type" : "VEC2"
  }, {
    "bufferView" : 10,
    "componentType" : 5126,
    "count" : 96,
    "type" : "VEC4"
  }, {
    "bufferView" : 11,
    "componentType" : 5125,
    "count" : 144,
    "type" : "SCALAR"
  }, {
    "bufferView" : 12,
    "componentType" : 5126,
    "count" : 5724,
    "type" : "VEC3",
    "max" : [ 21.0, 15.0, 17.0 ],
    "min" : [ -20.0, -15.0, -17.0 ]
  }, {
    "bufferView" : 13,
    "componentType" : 5126,
    "count" : 5724,
    "type" : "VEC2"
  }, {
    "bufferView" : 14,
    "componentType" : 5126,
    "count" : 5724,
    "type" : "VEC4"
  }, {
    "bufferView" : 15,
    "componentType" : 5125,
    "count" : 8586,
    "type" : "SCALAR"
  }, {
    "bufferView" : 16,
    "componentType" : 5126,
    "count" : 92188,
    "type" : "VEC3",
    "max" : [ 21.0, 12.0, 18.0 ],
    "min" : [ -20.0, -12.0, -17.0 ]
  }, {
    "bufferView" : 17,
    "componentType" : 5126,
    "count" : 92188,
    "type" : "VEC2"
  }, {
    "bufferView" : 18,
    "componentType" : 5126,
    "count" : 92188,
    "type" : "VEC4"
  }, {
    "bufferView" : 19,
    "componentType" : 5125,
    "count" : 138282,
    "type" : "SCALAR"
  }, {
    "bufferView" : 20,
    "componentType" : 5126,
    "count" : 192,
    "type" : "VEC3",
    "max" : [ 5.0, 10.0, 16.0 ],
    "min" : [ 2.0, -7.0, 13.0 ]
  }, {
    "bufferView" : 21,
    "componentType" : 5126,
    "count" : 192,
    "type" : "VEC2"
  }, {
    "bufferView" : 22,
    "componentType" : 5126,
    "count" : 192,
    "type" : "VEC4"
  }, {
    "bufferView" : 23,
    "componentType" : 5125,
    "count" : 288,
    "type" : "SCALAR"
  }, {
    "bufferView" : 24,
    "componentType" : 5126,
    "count" : 1064,
    "type" : "VEC3",
    "max" : [ 21.0, 11.0, 15.0 ],
    "min" : [ -20.0, -12.0, -17.0 ]
  }, {
    "bufferView" : 25,
    "componentType" : 5126,
    "count" : 1064,
    "type" : "VEC2"
  }, {
    "bufferView" : 26,
    "componentType" : 5126,
    "count" : 1064,
    "type" : "VEC4"
  }, {
    "bufferView" : 27,
    "componentType" : 5125,
    "count" : 1596,
    "type" : "SCALAR"
  }, {
    "bufferView" : 28,
    "componentType" : 5126,
    "count" : 592,
    "type" : "VEC3",
    "max" : [ 19.0, 12.0, 12.0 ],
    "min" : [ -19.0, -10.0, -15.0 ]
  }, {
    "bufferView" : 29,
    "componentType" : 5126,
    "count" : 592,
    "type" : "VEC2"
  }, {
    "bufferView" : 30,
    "componentType" : 5126,
    "count" : 592,
    "type" : "VEC4"
  }, {
    "bufferView" : 31,
    "componentType" : 5125,
    "count" : 888,
    "type" : "SCALAR"
  }, {
    "bufferView" : 32,
    "componentType" : 5126,
    "count" : 376,
    "type" : "VEC3",
    "max" : [ 3.0, 10.0, 14.0 ],
    "min" : [ -17.0, -9.0, -17.0 ]
  }, {
    "bufferView" : 33,
    "componentType" : 5126,
    "count" : 376,
    "type" : "VEC2"
  }, {
    "bufferView" : 34,
    "componentType" : 5126,
    "count" : 376,
    "type" : "VEC4"
  }, {
    "bufferView" : 35,
    "componentType" : 5125,
    "count" : 564,
    "type" : "SCALAR"
  }, {
    "bufferView" : 36,
    "componentType" : 5126,
    "count" : 72,
    "type" : "VEC3",
    "max" : [ 18.0, 11.0, 17.0 ],
    "min" : [ 0.0, -6.0, 6.0 ]
  }, {
    "bufferView" : 37,
    "componentType" : 5126,
    "count" : 72,
    "type" : "VEC2"
  }, {
    "bufferView" : 38,
    "componentType" : 5126,
    "count" : 72,
    "type" : "VEC4"
  }, {
    "bufferView" : 39,
    "componentType" : 5125,
    "count" : 108,
    "type" : "SCALAR"
  }, {
    "bufferView" : 40,
    "componentType" : 5126,
    "count" : 72,
    "type" : "VEC3",
    "max" : [ 3.0, 13.0, -15.0 ],
    "min" : [ 2.0, -5.0, -16.0 ]
  }, {
    "bufferView" : 41,
    "componentType" : 5126,
    "count" : 72,
    "type" : "VEC2"
  }, {
    "bufferView" : 42,
    "componentType" : 5126,
    "count" : 72,
    "type" : "VEC4"
  }, {
    "bufferView" : 43,
    "componentType" : 5125,
    "count" : 108,
    "type" : "SCALAR"
  }, {
    "bufferView" : 44,
    "componentType" : 5126,
    "count" : 60964,
    "type" : "VEC3",
    "max" : [ 21.0, 16.0, 18.0 ],
    "min" : [ -20.0, -15.0, -17.0 ]
  }, {
    "bufferView" : 45,
    "componentType" : 5126,
    "count" : 60964,
    "type" : "VEC2"
  }, {
    "bufferView" : 46,
    "componentType" : 5126,
    "count" : 60964,
    "type" : "VEC4"
  }, {
    "bufferView" : 47,
    "componentType" : 5125,
    "count" : 91446,
    "type" : "SCALAR"
  }, {
    "bufferView" : 48,
    "componentType" : 5126,
    "count" : 15668,
    "type" : "VEC3",
    "max" : [ 15.0, 16.0, 16.0 ],
    "min" : [ -19.0, -15.0, -17.0 ]
  }, {
    "bufferView" : 49,
    "componentType" : 5126,
    "count" : 15668,
    "type" : "VEC2"
  }, {
    "bufferView" : 50,
    "componentType" : 5126,
    "count" : 15668,
    "type" : "VEC4"
  }, {
    "bufferView" : 51,
    "componentType" : 5125,
    "count" : 23502,
    "type" : "SCALAR"
  }, {
    "bufferView" : 52,
    "componentType" : 5126,
    "count" : 19512,
    "type" : "VEC3",
    "max" : [ 21.0, 16.0, 18.0 ],
    "min" : [ -17.0, -15.0, -16.0 ]
  }, {
    "bufferView" : 53,
    "componentType" : 5126,
    "count" : 19512,
    "type" : "VEC2"
  }, {
    "bufferView" : 54,
    "componentType" : 5126,
    "count" : 19512,
    "type" : "VEC4"
  }, {
    "bufferView" : 55,
    "componentType" : 5125,
    "count" : 29268,
    "type" : "SCALAR"
  }, {
    "bufferView" : 56,
    "componentType" : 5126,
    "count" : 32,
    "type" : "VEC3",
    "max" : [ 2.0, 13.0, -3.0 ],
    "min" : [ -20.0, -13.006248, -9.993744 ]
  }, {
    "bufferView" : 57,
    "componentType" : 5126,
    "count" : 32,
    "type" : "VEC2"
  }, {
    "bufferView" : 58,
    "componentType" : 5126,
    "count" : 32,
    "type" : "VEC4"
  }, {
    "bufferView" : 59,
    "componentType" : 5125,
    "count" : 48,
    "type" : "SCALAR"
  }, {
    "bufferView" : 60,
    "componentType" : 5126,
    "count" : 208,
    "type" : "VEC3",
    "max" : [ -12.0, 16.0, 18.0 ],
    "min" : [ -14.0, -2.0, 16.0 ]
  }, {
    "bufferView" : 61,
    "componentType" : 5126,
    "count" : 208,
    "type" : "VEC2"
  }, {
    "bufferView" : 62,
    "componentType" : 5126,
    "count" : 208,
    "type" : "VEC4"
  }, {
    "bufferView" : 63,
    "componentType" : 5125,
    "count" : 312,
    "type" : "SCALAR"
  }, {
    "bufferView" : 64,
    "componentType" : 5126,
    "count" : 33680,
    "type" : "VEC3",
    "max" : [ 21.0, 16.0, 18.0 ],
    "min" : [ -20.0, -15.0, -17.0 ]
  }, {
    "bufferView" : 65,
    "componentType" : 5126,
    "count" : 33680,
    "type" : "VEC2"
  }, {
    "bufferView" : 66,
    "componentType" : 5126,
    "count" : 33680,
    "type" : "VEC4"
  }, {
    "bufferView" : 67,
    "componentType" : 5125,
    "count" : 50520,
    "type" : "SCALAR"
  }, {
    "bufferView" : 68,
    "componentType" : 5126,
    "count" : 13976,
    "type" : "VEC3",
    "max" : [ 21.0, 16.0, 18.0 ],
    "min" : [ -20.0, -15.0, -17.0 ]
  }, {
    "bufferView" : 69,
    "componentType" : 5126,
    "count" : 13976,
    "type" : "VEC2"
  }, {
    "bufferView" : 70,
    "componentType" : 5126,
    "count" : 13976,
    "type" : "VEC4"
  }, {
    "bufferView" : 71,
    "componentType" : 5125,
    "count" : 20964,
    "type" : "SCALAR"
  }, {
    "bufferView" : 72,
    "componentType" : 5126,
    "count" : 3128,
    "type" : "VEC3",
    "max" : [ 21.0, 16.0, 18.0 ],
    "min" : [ -18.0, -15.0, -15.0 ]
  }, {
    "bufferView" : 73,
    "componentType" : 5126,
    "count" : 3128,
    "type" : "VEC2"
  }, {
    "bufferView" : 74,
    "componentType" : 5126,
    "count" : 3128,
    "type" : "VEC4"
  }, {
    "bufferView" : 75,
    "componentType" : 5125,
    "count" : 4692,
    "type" : "SCALAR"
  }, {
    "bufferView" : 76,
    "componentType" : 5126,
    "count" : 464,
    "type" : "VEC3",
    "max" : [ 13.0, 11.0, 13.0 ],
    "min" : [ -18.0, -7.0, -17.0 ]
  }, {
    "bufferView" : 77,
    "componentType" : 5126,
    "count" : 464,
    "type" : "VEC2"
  }, {
    "bufferView" : 78,
    "componentType" : 5126,
    "count" : 464,
    "type" : "VEC4"
  }, {
    "bufferView" : 79,
    "componentType" : 5125,
    "count" : 696,
    "type" : "SCALAR"
  }, {
    "bufferView" : 80,
    "componentType" : 5126,
    "count" : 1696,
    "type" : "VEC3",
    "max" : [ 20.625, 11.0, 7.625 ],
    "min" : [ 13.0, -7.0, -13.0 ]
  }, {
    "bufferView" : 81,
    "componentType" : 5126,
    "count" : 1696,
    "type" : "VEC2"
  }, {
    "bufferView" : 82,
    "componentType" : 5126,
    "count" : 1696,
    "type" : "VEC4"
  }, {
    "bufferView" : 83,
    "componentType" : 5125,
    "count" : 2544,
    "type" : "SCALAR"
  }, {
    "bufferView" : 84,
    "componentType" : 5126,
    "count" : 24,
    "type" : "VEC3",
    "max" : [ 1.0, 8.0, -4.0 ],
    "min" : [ 0.0, 7.0, -5.0 ]
  }, {
    "bufferView" : 85,
    "componentType" : 5126,
    "count" : 24,
    "type" : "VEC2"
  }, {
    "bufferView" : 86,
    "componentType" : 5126,
    "count" : 24,
    "type" : "VEC4"
  }, {
    "bufferView" : 87,
    "componentType" : 5125,
    "count" : 36,
    "type" : "SCALAR"
  }, {
    "bufferView" : 88,
    "componentType" : 5126,
    "count" : 792,
    "type" : "VEC3",
    "max" : [ 21.0, 12.0, 8.0 ],
    "min" : [ -6.0, -7.0, -13.0 ]
  }, {
    "bufferView" : 89,
    "componentType" : 5126,
    "count" : 792,
    "type" : "VEC2"
  }, {
    "bufferView" : 90,
    "componentType" : 5126,
    "count" : 792,
    "type" : "VEC4"
  }, {
    "bufferView" : 91,
    "componentType" : 5125,
    "count" : 1188,
    "type" : "SCALAR"
  }, {
    "bufferView" : 92,
    "componentType" : 5126,
    "count" : 4288,
    "type" : "VEC3",
    "max" : [ 16.074997, 16.0, 15.825012 ],
    "min" : [ -16.075, -15.0, -14.966679 ]
  }, {
    "bufferView" : 93,
    "componentType" : 5126,
    "count" : 4288,
    "type" : "VEC2"
  }, {
    "bufferView" : 94,
    "componentType" : 5126,
    "count" : 4288,
    "type" : "VEC4"
  }, {
    "bufferView" : 95,
    "componentType" : 5125,
    "count" : 6432,
    "type" : "SCALAR"
  }, {
    "bufferView" : 96,
    "componentType" : 5126,
    "count" : 80,
    "type" : "VEC3",
    "max" : [ 21.0, 9.0625, -11.0 ],
    "min" : [ 13.0, -6.9375, -12.0 ]
  }, {
    "bufferView" : 97,
    "componentType" : 5126,
    "count" : 80,
    "type" : "VEC2"
  }, {
    "bufferView" : 98,
    "componentType" : 5126,
    "count" : 80,
    "type" : "VEC4"
  }, {
    "bufferView" : 99,
    "componentType" : 5125,
    "count" : 120,
    "type" : "SCALAR"
  }, {
    "bufferView" : 100,
    "componentType" : 5126,
    "count" : 680,
    "type" : "VEC3",
    "max" : [ 19.0, 16.0, 17.0 ],
    "min" : [ -15.0, -15.0, -5.0 ]
  }, {
    "bufferView" : 101,
    "componentType" : 5126,
    "count" : 680,
    "type" : "VEC2"
  }, {
    "bufferView" : 102,
    "componentType" : 5126,
    "count" : 680,
    "type" : "VEC4"
  }, {
    "bufferView" : 103,
    "componentType" : 5125,
    "count" : 1020,
    "type" : "SCALAR"
  }, {
    "bufferView" : 104,
    "componentType" : 5126,
    "count" : 348552,
    "type" : "VEC3",
    "max" : [ 21.0, 16.0, 18.0 ],
    "min" : [ -20.0, -15.0, -17.0 ]
  }, {
    "bufferView" : 105,
    "componentType" : 5126,
    "count" : 348552,
    "type" : "VEC2"
  }, {
    "bufferView" : 106,
    "componentType" : 5126,
    "count" : 348552,
    "type" : "VEC4"
  }, {
    "bufferView" : 107,
    "componentType" : 5125,
    "count" : 522828,
    "type" : "SCALAR"
  } ],
  "asset" : {
    "generator" : "VoxelBridge",
    "version" : "2.0"
  },
  "buffers" : [ {
    "uri" : "region_43_93_264__83_123_298.bin",
    "byteLength" : 23319104
  }, {
    "uri" : "region_43_93_264__83_123_298.uv.bin",
    "byteLength" : 5486848
  } ],
  "bufferViews" : [ {
    "buffer" : 0,
    "byteOffset" : 0,
    "byteLength" : 947472,
    "target" : 34962
  }, {
    "buffer" : 1,
    "byteOffset" : 0,
    "byteLength" : 631648,
    "target" : 34962
  }, {
    "buffer" : 0,
    "byteOffset" : 947472,
    "byteLength" : 1263296,
    "target" : 34962
  }, {
    "buffer" : 0,
    "byteOffset" : 2210768,
    "byteLength" : 473736,
    "target" : 34963
  }, {
    "buffer" : 0,
    "byteOffset" : 2684504,
    "byteLength" : 33360,
    "target" : 34962
  }, {
    "buffer" : 1,
    "byteOffset" : 631648,
    "byteLength" : 22240,
    "target" : 34962
  }, {
    "buffer" : 0,
    "byteOffset" : 2717864,
    "byteLength" : 44480,
    "target" : 34962
  }, {
    "buffer" : 0,
    "byteOffset" : 2762344,
    "byteLength" : 16680,
    "target" : 34963
  }, {
    "buffer" : 0,
    "byteOffset" : 2779024,
    "byteLength" : 1152,
    "target" : 34962
  }, {
    "buffer" : 1,
    "byteOffset" : 653888,
    "byteLength" : 768,
    "target" : 34962
  }, {
    "buffer" : 0,
    "byteOffset" : 2780176,
    "byteLength" : 1536,
    "target" : 34962
  }, {
    "buffer" : 0,
    "byteOffset" : 2781712,
    "byteLength" : 576,
    "target" : 34963
  }, {
    "buffer" : 0,
    "byteOffset" : 2782288,
    "byteLength" : 68688,
    "target" : 34962
  }, {
    "buffer" : 1,
    "byteOffset" : 654656,
    "byteLength" : 45792,
    "target" : 34962
  }, {
    "buffer" : 0,
    "byteOffset" : 2850976,
    "byteLength" : 91584,
    "target" : 34962
  }, {
    "buffer" : 0,
    "byteOffset" : 2942560,
    "byteLength" : 34344,
    "target" : 34963
  }, {
    "buffer" : 0,
    "byteOffset" : 2976904,
    "byteLength" : 1106256,
    "target" : 34962
  }, {
    "buffer" : 1,
    "byteOffset" : 700448,
    "byteLength" : 737504,
    "target" : 34962
  }, {
    "buffer" : 0,
    "byteOffset" : 4083160,
    "byteLength" : 1475008,
    "target" : 34962
  }, {
    "buffer" : 0,
    "byteOffset" : 5558168,
    "byteLength" : 553128,
    "target" : 34963
  }, {
    "buffer" : 0,
    "byteOffset" : 6111296,
    "byteLength" : 2304,
    "target" : 34962
  }, {
    "buffer" : 1,
    "byteOffset" : 1437952,
    "byteLength" : 1536,
    "target" : 34962
  }, {
    "buffer" : 0,
    "byteOffset" : 6113600,
    "byteLength" : 3072,
    "target" : 34962
  }, {
    "buffer" : 0,
    "byteOffset" : 6116672,
    "byteLength" : 1152,
    "target" : 34963
  }, {
    "buffer" : 0,
    "byteOffset" : 6117824,
    "byteLength" : 12768,
    "target" : 34962
  }, {
    "buffer" : 1,
    "byteOffset" : 1439488,
    "byteLength" : 8512,
    "target" : 34962
  }, {
    "buffer" : 0,
    "byteOffset" : 6130592,
    "byteLength" : 17024,
    "target" : 34962
  }, {
    "buffer" : 0,
    "byteOffset" : 6147616,
    "byteLength" : 6384,
    "target" : 34963
  }, {
    "buffer" : 0,
    "byteOffset" : 6154000,
    "byteLength" : 7104,
    "target" : 34962
  }, {
    "buffer" : 1,
    "byteOffset" : 1448000,
    "byteLength" : 4736,
    "target" : 34962
  }, {
    "buffer" : 0,
    "byteOffset" : 6161104,
    "byteLength" : 9472,
    "target" : 34962
  }, {
    "buffer" : 0,
    "byteOffset" : 6170576,
    "byteLength" : 3552,
    "target" : 34963
  }, {
    "buffer" : 0,
    "byteOffset" : 6174128,
    "byteLength" : 4512,
    "target" : 34962
  }, {
    "buffer" : 1,
    "byteOffset" : 1452736,
    "byteLength" : 3008,
    "target" : 34962
  }, {
    "buffer" : 0,
    "byteOffset" : 6178640,
    "byteLength" : 6016,
    "target" : 34962
  }, {
    "buffer" : 0,
    "byteOffset" : 6184656,
    "byteLength" : 2256,
    "target" : 34963
  }, {
    "buffer" : 0,
    "byteOffset" : 6186912,
    "byteLength" : 864,
    "target" : 34962
  }, {
    "buffer" : 1,
    "byteOffset" : 1455744,
    "byteLength" : 576,
    "target" : 34962
  }, {
    "buffer" : 0,
    "byteOffset" : 6187776,
    "byteLength" : 1152,
    "target" : 34962
  }, {
    "buffer" : 0,
    "byteOffset" : 6188928,
    "byteLength" : 432,
    "target" : 34963
  }, {
    "buffer" : 0,
    "byteOffset" : 6189360,
    "byteLength" : 864,
    "target" : 34962
  }, {
    "buffer" : 1,
    "byteOffset" : 1456320,
    "byteLength" : 576,
    "target" : 34962
  }, {
    "buffer" : 0,
    "byteOffset" : 6190224,
    "byteLength" : 1152,
    "target" : 34962
  }, {
    "buffer" : 0,
    "byteOffset" : 6191376,
    "byteLength" : 432,
    "target" : 34963
  }, {
    "buffer" : 0,
    "byteOffset" : 6191808,
    "byteLength" : 731568,
    "target" : 34962
  }, {
    "buffer" : 1,
    "byteOffset" : 1456896,
    "byteLength" : 487712,
    "target" : 34962
  }, {
    "buffer" : 0,
    "byteOffset" : 6923376,
    "byteLength" : 975424,
    "target" : 34962
  }, {
    "buffer" : 0,
    "byteOffset" : 7898800,
    "byteLength" : 365784,
    "target" : 34963
  }, {
    "buffer" : 0,
    "byteOffset" : 8264584,
    "byteLength" : 188016,
    "target" : 34962
  }, {
    "buffer" : 1,
    "byteOffset" : 1944608,
    "byteLength" : 125344,
    "target" : 34962
  }, {
    "buffer" : 0,
    "byteOffset" : 8452600,
    "byteLength" : 250688,
    "target" : 34962
  }, {
    "buffer" : 0,
    "byteOffset" : 8703288,
    "byteLength" : 94008,
    "target" : 34963
  }, {
    "buffer" : 0,
    "byteOffset" : 8797296,
    "byteLength" : 234144,
    "target" : 34962
  }, {
    "buffer" : 1,
    "byteOffset" : 2069952,
    "byteLength" : 156096,
    "target" : 34962
  }, {
    "buffer" : 0,
    "byteOffset" : 9031440,
    "byteLength" : 312192,
    "target" : 34962
  }, {
    "buffer" : 0,
    "byteOffset" : 9343632,
    "byteLength" : 117072,
    "target" : 34963
  }, {
    "buffer" : 0,
    "byteOffset" : 9460704,
    "byteLength" : 384,
    "target" : 34962
  }, {
    "buffer" : 1,
    "byteOffset" : 2226048,
    "byteLength" : 256,
    "target" : 34962
  }, {
    "buffer" : 0,
    "byteOffset" : 9461088,
    "byteLength" : 512,
    "target" : 34962
  }, {
    "buffer" : 0,
    "byteOffset" : 9461600,
    "byteLength" : 192,
    "target" : 34963
  }, {
    "buffer" : 0,
    "byteOffset" : 9461792,
    "byteLength" : 2496,
    "target" : 34962
  }, {
    "buffer" : 1,
    "byteOffset" : 2226304,
    "byteLength" : 1664,
    "target" : 34962
  }, {
    "buffer" : 0,
    "byteOffset" : 9464288,
    "byteLength" : 3328,
    "target" : 34962
  }, {
    "buffer" : 0,
    "byteOffset" : 9467616,
    "byteLength" : 1248,
    "target" : 34963
  }, {
    "buffer" : 0,
    "byteOffset" : 9468864,
    "byteLength" : 404160,
    "target" : 34962
  }, {
    "buffer" : 1,
    "byteOffset" : 2227968,
    "byteLength" : 269440,
    "target" : 34962
  }, {
    "buffer" : 0,
    "byteOffset" : 9873024,
    "byteLength" : 538880,
    "target" : 34962
  }, {
    "buffer" : 0,
    "byteOffset" : 10411904,
    "byteLength" : 202080,
    "target" : 34963
  }, {
    "buffer" : 0,
    "byteOffset" : 10613984,
    "byteLength" : 167712,
    "target" : 34962
  }, {
    "buffer" : 1,
    "byteOffset" : 2497408,
    "byteLength" : 111808,
    "target" : 34962
  }, {
    "buffer" : 0,
    "byteOffset" : 10781696,
    "byteLength" : 223616,
    "target" : 34962
  }, {
    "buffer" : 0,
    "byteOffset" : 11005312,
    "byteLength" : 83856,
    "target" : 34963
  }, {
    "buffer" : 0,
    "byteOffset" : 11089168,
    "byteLength" : 37536,
    "target" : 34962
  }, {
    "buffer" : 1,
    "byteOffset" : 2609216,
    "byteLength" : 25024,
    "target" : 34962
  }, {
    "buffer" : 0,
    "byteOffset" : 11126704,
    "byteLength" : 50048,
    "target" : 34962
  }, {
    "buffer" : 0,
    "byteOffset" : 11176752,
    "byteLength" : 18768,
    "target" : 34963
  }, {
    "buffer" : 0,
    "byteOffset" : 11195520,
    "byteLength" : 5568,
    "target" : 34962
  }, {
    "buffer" : 1,
    "byteOffset" : 2634240,
    "byteLength" : 3712,
    "target" : 34962
  }, {
    "buffer" : 0,
    "byteOffset" : 11201088,
    "byteLength" : 7424,
    "target" : 34962
  }, {
    "buffer" : 0,
    "byteOffset" : 11208512,
    "byteLength" : 2784,
    "target" : 34963
  }, {
    "buffer" : 0,
    "byteOffset" : 11211296,
    "byteLength" : 20352,
    "target" : 34962
  }, {
    "buffer" : 1,
    "byteOffset" : 2637952,
    "byteLength" : 13568,
    "target" : 34962
  }, {
    "buffer" : 0,
    "byteOffset" : 11231648,
    "byteLength" : 27136,
    "target" : 34962
  }, {
    "buffer" : 0,
    "byteOffset" : 11258784,
    "byteLength" : 10176,
    "target" : 34963
  }, {
    "buffer" : 0,
    "byteOffset" : 11268960,
    "byteLength" : 288,
    "target" : 34962
  }, {
    "buffer" : 1,
    "byteOffset" : 2651520,
    "byteLength" : 192,
    "target" : 34962
  }, {
    "buffer" : 0,
    "byteOffset" : 11269248,
    "byteLength" : 384,
    "target" : 34962
  }, {
    "buffer" : 0,
    "byteOffset" : 11269632,
    "byteLength" : 144,
    "target" : 34963
  }, {
    "buffer" : 0,
    "byteOffset" : 11269776,
    "byteLength" : 9504,
    "target" : 34962
  }, {
    "buffer" : 1,
    "byteOffset" : 2651712,
    "byteLength" : 6336,
    "target" : 34962
  }, {
    "buffer" : 0,
    "byteOffset" : 11279280,
    "byteLength" : 12672,
    "target" : 34962
  }, {
    "buffer" : 0,
    "byteOffset" : 11291952,
    "byteLength" : 4752,
    "target" : 34963
  }, {
    "buffer" : 0,
    "byteOffset" : 11296704,
    "byteLength" : 51456,
    "target" : 34962
  }, {
    "buffer" : 1,
    "byteOffset" : 2658048,
    "byteLength" : 34304,
    "target" : 34962
  }, {
    "buffer" : 0,
    "byteOffset" : 11348160,
    "byteLength" : 68608,
    "target" : 34962
  }, {
    "buffer" : 0,
    "byteOffset" : 11416768,
    "byteLength" : 25728,
    "target" : 34963
  }, {
    "buffer" : 0,
    "byteOffset" : 11442496,
    "byteLength" : 960,
    "target" : 34962
  }, {
    "buffer" : 1,
    "byteOffset" : 2692352,
    "byteLength" : 640,
    "target" : 34962
  }, {
    "buffer" : 0,
    "byteOffset" : 11443456,
    "byteLength" : 1280,
    "target" : 34962
  }, {
    "buffer" : 0,
    "byteOffset" : 11444736,
    "byteLength" : 480,
    "target" : 34963
  }, {
    "buffer" : 0,
    "byteOffset" : 11445216,
    "byteLength" : 8160,
    "target" : 34962
  }, {
    "buffer" : 1,
    "byteOffset" : 2692992,
    "byteLength" : 5440,
    "target" : 34962
  }, {
    "buffer" : 0,
    "byteOffset" : 11453376,
    "byteLength" : 10880,
    "target" : 34962
  }, {
    "buffer" : 0,
    "byteOffset" : 11464256,
    "byteLength" : 4080,
    "target" : 34963
  }, {
    "buffer" : 0,
    "byteOffset" : 11468336,
    "byteLength" : 4182624,
    "target" : 34962
  }, {
    "buffer" : 1,
    "byteOffset" : 2698432,
    "byteLength" : 2788416,
    "target" : 34962
  }, {
    "buffer" : 0,
    "byteOffset" : 15650960,
    "byteLength" : 5576832,
    "target" : 34962
  }, {
    "buffer" : 0,
    "byteOffset" : 21227792,
    "byteLength" : 2091312,
    "target" : 34963
  } ],
  "images" : [ {
    "uri" : "textures/atlas/atlas_1001.png"
  }, {
    "uri" : "textures/atlas/atlas_1001.png"
  }, {
    "uri" : "textures/atlas/atlas_1001.png"
  }, {
    "uri" : "textures/atlas/atlas_1001.png"
  }, {
    "uri" : "textures/atlas/atlas_1001.png"
  }, {
    "uri" : "textures/atlas/atlas_1001.png"
  }, {
    "uri" : "textures/atlas/atlas_1001.png"
  }, {
    "uri" : "textures/atlas/atlas_1001.png"
  }, {
    "uri" : "textures/atlas/atlas_1001.png"
  }, {
    "uri" : "textures/atlas/atlas_1001.png"
  }, {
    "uri" : "textures/atlas/atlas_1001.png"
  }, {
    "uri" : "textures/atlas/atlas_1001.png"
  }, {
    "uri" : "textures/atlas/atlas_1001.png"
  }, {
    "uri" : "textures/atlas/atlas_1001.png"
  }, {
    "uri" : "textures/atlas/atlas_1001.png"
  }, {
    "uri" : "textures/atlas/atlas_1001.png"
  }, {
    "uri" : "textures/atlas/atlas_1001.png"
  }, {
    "uri" : "textures/atlas/atlas_1001.png"
  }, {
    "uri" : "textures/atlas/atlas_1001.png"
  }, {
    "uri" : "textures/atlas/atlas_1001.png"
  }, {
    "uri" : "textures/atlas/atlas_1001.png"
  }, {
    "uri" : "textures/atlas/atlas_1001.png"
  }, {
    "uri" : "textures/atlas/atlas_1001.png"
  }, {
    "uri" : "textures/atlas/atlas_1001.png"
  }, {
    "uri" : "textures/atlas/atlas_1001.png"
  }, {
    "uri" : "textures/atlas/atlas_1001.png"
  } ],
  "materials" : [ {
    "name" : "minecraft:andesite",
    "pbrMetallicRoughness" : {
      "baseColorTexture" : {
        "index" : 0
      },
      "metallicFactor" : 0.0,
      "roughnessFactor" : 1.0
    },
    "doubleSided" : false
  }, {
    "name" : "minecraft:coal_ore",
    "pbrMetallicRoughness" : {
      "baseColorTexture" : {
        "index" : 1
      },
      "metallicFactor" : 0.0,
      "roughnessFactor" : 1.0
    },
    "doubleSided" : false
  }, {
    "name" : "minecraft:cobweb",
    "pbrMetallicRoughness" : {
      "baseColorTexture" : {
        "index" : 2
      },
      "metallicFactor" : 0.0,
      "roughnessFactor" : 1.0
    },
    "doubleSided" : false
  }, {
    "name" : "minecraft:copper_ore",
    "pbrMetallicRoughness" : {
      "baseColorTexture" : {
        "index" : 3
      },
      "metallicFactor" : 0.0,
      "roughnessFactor" : 1.0
    },
    "doubleSided" : false
  }, {
    "name" : "minecraft:deepslate",
    "pbrMetallicRoughness" : {
      "baseColorTexture" : {
        "index" : 4
      },
      "metallicFactor" : 0.0,
      "roughnessFactor" : 1.0
    },
    "doubleSided" : false
  }, {
    "name" : "minecraft:deepslate_coal_ore",
    "pbrMetallicRoughness" : {
      "baseColorTexture" : {
        "index" : 5
      },
      "metallicFactor" : 0.0,
      "roughnessFactor" : 1.0
    },
    "doubleSided" : false
  }, {
    "name" : "minecraft:deepslate_copper_ore",
    "pbrMetallicRoughness" : {
      "baseColorTexture" : {
        "index" : 6
      },
      "metallicFactor" : 0.0,
      "roughnessFactor" : 1.0
    },
    "doubleSided" : false
  }, {
    "name" : "minecraft:deepslate_iron_ore",
    "pbrMetallicRoughness" : {
      "baseColorTexture" : {
        "index" : 7
      },
      "metallicFactor" : 0.0,
      "roughnessFactor" : 1.0
    },
    "doubleSided" : false
  }, {
    "name" : "minecraft:deepslate_lapis_ore",
    "pbrMetallicRoughness" : {
      "baseColorTexture" : {
        "index" : 8
      },
      "metallicFactor" : 0.0,
      "roughnessFactor" : 1.0
    },
    "doubleSided" : false
  }, {
    "name" : "minecraft:deepslate_redstone_ore",
    "pbrMetallicRoughness" : {
      "baseColorTexture" : {
        "index" : 9
      },
      "metallicFactor" : 0.0,
      "roughnessFactor" : 1.0
    },
    "doubleSided" : false
  }, {
    "name" : "minecraft:diamond_ore",
    "pbrMetallicRoughness" : {
      "baseColorTexture" : {
        "index" : 10
      },
      "metallicFactor" : 0.0,
      "roughnessFactor" : 1.0
    },
    "doubleSided" : false
  }, {
    "name" : "minecraft:diorite",
    "pbrMetallicRoughness" : {
      "baseColorTexture" : {
        "index" : 11
      },
      "metallicFactor" : 0.0,
      "roughnessFactor" : 1.0
    },
    "doubleSided" : false
  }, {
    "name" : "minecraft:dirt",
    "pbrMetallicRoughness" : {
      "baseColorTexture" : {
        "index" : 12
      },
      "metallicFactor" : 0.0,
      "roughnessFactor" : 1.0
    },
    "doubleSided" : false
  }, {
    "name" : "minecraft:dripstone_block",
    "pbrMetallicRoughness" : {
      "baseColorTexture" : {
        "index" : 13
      },
      "metallicFactor" : 0.0,
      "roughnessFactor" : 1.0
    },
    "doubleSided" : false
  }, {
    "name" : "minecraft:glow_lichen_emissive",
    "pbrMetallicRoughness" : {
      "baseColorTexture" : {
        "index" : 14
      },
      "metallicFactor" : 0.0,
      "roughnessFactor" : 1.0
    },
    "doubleSided" : false
  }, {
    "name" : "minecraft:gold_ore",
    "pbrMetallicRoughness" : {
      "baseColorTexture" : {
        "index" : 15
      },
      "metallicFactor" : 0.0,
      "roughnessFactor" : 1.0
    },
    "doubleSided" : false
  }, {
    "name" : "minecraft:granite",
    "pbrMetallicRoughness" : {
      "baseColorTexture" : {
        "index" : 16
      },
      "metallicFactor" : 0.0,
      "roughnessFactor" : 1.0
    },
    "doubleSided" : false
  }, {
    "name" : "minecraft:gravel",
    "pbrMetallicRoughness" : {
      "baseColorTexture" : {
        "index" : 17
      },
      "metallicFactor" : 0.0,
      "roughnessFactor" : 1.0
    },
    "doubleSided" : false
  }, {
    "name" : "minecraft:iron_ore",
    "pbrMetallicRoughness" : {
      "baseColorTexture" : {
        "index" : 18
      },
      "metallicFactor" : 0.0,
      "roughnessFactor" : 1.0
    },
    "doubleSided" : false
  }, {
    "name" : "minecraft:lapis_ore",
    "pbrMetallicRoughness" : {
      "baseColorTexture" : {
        "index" : 19
      },
      "metallicFactor" : 0.0,
      "roughnessFactor" : 1.0
    },
    "doubleSided" : false
  }, {
    "name" : "minecraft:oak_fence",
    "pbrMetallicRoughness" : {
      "baseColorTexture" : {
        "index" : 20
      },
      "metallicFactor" : 0.0,
      "roughnessFactor" : 1.0
    },
    "doubleSided" : false
  }, {
    "name" : "minecraft:oak_log",
    "pbrMetallicRoughness" : {
      "baseColorTexture" : {
        "index" : 21
      },
      "metallicFactor" : 0.0,
      "roughnessFactor" : 1.0
    },
    "doubleSided" : false
  }, {
    "name" : "minecraft:oak_planks",
    "pbrMetallicRoughness" : {
      "baseColorTexture" : {
        "index" : 20
      },
      "metallicFactor" : 0.0,
      "roughnessFactor" : 1.0
    },
    "doubleSided" : false
  }, {
    "name" : "minecraft:pointed_dripstone",
    "pbrMetallicRoughness" : {
      "baseColorTexture" : {
        "index" : 22
      },
      "metallicFactor" : 0.0,
      "roughnessFactor" : 1.0
    },
    "doubleSided" : false
  }, {
    "name" : "minecraft:rail",
    "pbrMetallicRoughness" : {
      "baseColorTexture" : {
        "index" : 23
      },
      "metallicFactor" : 0.0,
      "roughnessFactor" : 1.0
    },
    "doubleSided" : false
  }, {
    "name" : "minecraft:redstone_ore",
    "pbrMetallicRoughness" : {
      "baseColorTexture" : {
        "index" : 24
      },
      "metallicFactor" : 0.0,
      "roughnessFactor" : 1.0
    },
    "doubleSided" : false
  }, {
    "name" : "minecraft:stone",
    "pbrMetallicRoughness" : {
      "baseColorTexture" : {
        "index" : 25
      },
      "metallicFactor" : 0.0,
      "roughnessFactor" : 1.0
    },
    "doubleSided" : false
  } ],
  "meshes" : [ {
    "name" : "minecraft:andesite",
    "primitives" : [ {
      "attributes" : {
        "POSITION" : 0,
        "TEXCOORD_0" : 1,
        "COLOR_0" : 2
      },
      "indices" : 3,
      "material" : 0,
      "mode" : 4
    } ]
  }, {
    "name" : "minecraft:coal_ore",
    "primitives" : [ {
      "attributes" : {
        "POSITION" : 4,
        "TEXCOORD_0" : 5,
        "COLOR_0" : 6
      },
      "indices" : 7,
      "material" : 1,
      "mode" : 4
    } ]
  }, {
    "name" : "minecraft:cobweb",
    "primitives" : [ {
      "attributes" : {
        "POSITION" : 8,
        "TEXCOORD_0" : 9,
        "COLOR_0" : 10
      },
      "indices" : 11,
      "material" : 2,
      "mode" : 4
    } ]
  }, {
    "name" : "minecraft:copper_ore",
    "primitives" : [ {
      "attributes" : {
        "POSITION" : 12,
        "TEXCOORD_0" : 13,
        "COLOR_0" : 14
      },
      "indices" : 15,
      "material" : 3,
      "mode" : 4
    } ]
  }, {
    "name" : "minecraft:deepslate",
    "primitives" : [ {
      "attributes" : {
        "POSITION" : 16,
        "TEXCOORD_0" : 17,
        "COLOR_0" : 18
      },
      "indices" : 19,
      "material" : 4,
      "mode" : 4
    } ]
  }, {
    "name" : "minecraft:deepslate_coal_ore",
    "primitives" : [ {
      "attributes" : {
        "POSITION" : 20,
        "TEXCOORD_0" : 21,
        "COLOR_0" : 22
      },
      "indices" : 23,
      "material" : 5,
      "mode" : 4
    } ]
  }, {
    "name" : "minecraft:deepslate_copper_ore",
    "primitives" : [ {
      "attributes" : {
        "POSITION" : 24,
        "TEXCOORD_0" : 25,
        "COLOR_0" : 26
      },
      "indices" : 27,
      "material" : 6,
      "mode" : 4
    } ]
  }, {
    "name" : "minecraft:deepslate_iron_ore",
    "primitives" : [ {
      "attributes" : {
        "POSITION" : 28,
        "TEXCOORD_0" : 29,
        "COLOR_0" : 30
      },
      "indices" : 31,
      "material" : 7,
      "mode" : 4
    } ]
  }, {
    "name" : "minecraft:deepslate_lapis_ore",
    "primitives" : [ {
      "attributes" : {
        "POSITION" : 32,
        "TEXCOORD_0" : 33,
        "COLOR_0" : 34
      },
      "indices" : 35,
      "material" : 8,
      "mode" : 4
    } ]
  }, {
    "name" : "minecraft:deepslate_redstone_ore",
    "primitives" : [ {
      "attributes" : {
        "POSITION" : 36,
        "TEXCOORD_0" : 37,
        "COLOR_0" : 38
      },
      "indices" : 39,
      "material" : 9,
      "mode" : 4
    } ]
  }, {
    "name" : "minecraft:diamond_ore",
    "primitives" : [ {
      "attributes" : {
        "POSITION" : 40,
        "TEXCOORD_0" : 41,
        "COLOR_0" : 42
      },
      "indices" : 43,
      "material" : 10,
      "mode" : 4
    } ]
  }, {
    "name" : "minecraft:diorite",
    "primitives" : [ {
      "attributes" : {
        "POSITION" : 44,
        "TEXCOORD_0" : 45,
        "COLOR_0" : 46
      },
      "indices" : 47,
      "material" : 11,
      "mode" : 4
    } ]
  }, {
    "name" : "minecraft:dirt",
    "primitives" : [ {
      "attributes" : {
        "POSITION" : 48,
        "TEXCOORD_0" : 49,
        "COLOR_0" : 50
      },
      "indices" : 51,
      "material" : 12,
      "mode" : 4
    } ]
  }, {
    "name" : "minecraft:dripstone_block",
    "primitives" : [ {
      "attributes" : {
        "POSITION" : 52,
        "TEXCOORD_0" : 53,
        "COLOR_0" : 54
      },
      "indices" : 55,
      "material" : 13,
      "mode" : 4
    } ]
  }, {
    "name" : "minecraft:glow_lichen_emissive",
    "primitives" : [ {
      "attributes" : {
        "POSITION" : 56,
        "TEXCOORD_0" : 57,
        "COLOR_0" : 58
      },
      "indices" : 59,
      "material" : 14,
      "mode" : 4
    } ]
  }, {
    "name" : "minecraft:gold_ore",
    "primitives" : [ {
      "attributes" : {
        "POSITION" : 60,
        "TEXCOORD_0" : 61,
        "COLOR_0" : 62
      },
      "indices" : 63,
      "material" : 15,
      "mode" : 4
    } ]
  }, {
    "name" : "minecraft:granite",
    "primitives" : [ {
      "attributes" : {
        "POSITION" : 64,
        "TEXCOORD_0" : 65,
        "COLOR_0" : 66
      },
      "indices" : 67,
      "material" : 16,
      "mode" : 4
    } ]
  }, {
    "name" : "minecraft:gravel",
    "primitives" : [ {
      "attributes" : {
        "POSITION" : 68,
        "TEXCOORD_0" : 69,
        "COLOR_0" : 70
      },
      "indices" : 71,
      "material" : 17,
      "mode" : 4
    } ]
  }, {
    "name" : "minecraft:iron_ore",
    "primitives" : [ {
      "attributes" : {
        "POSITION" : 72,
        "TEXCOORD_0" : 73,
        "COLOR_0" : 74
      },
      "indices" : 75,
      "material" : 18,
      "mode" : 4
    } ]
  }, {
    "name" : "minecraft:lapis_ore",
    "primitives" : [ {
      "attributes" : {
        "POSITION" : 76,
        "TEXCOORD_0" : 77,
        "COLOR_0" : 78
      },
      "indices" : 79,
      "material" : 19,
      "mode" : 4
    } ]
  }, {
    "name" : "minecraft:oak_fence",
    "primitives" : [ {
      "attributes" : {
        "POSITION" : 80,
        "TEXCOORD_0" : 81,
        "COLOR_0" : 82
      },
      "indices" : 83,
      "material" : 20,
      "mode" : 4
    } ]
  }, {
    "name" : "minecraft:oak_log",
    "primitives" : [ {
      "attributes" : {
        "POSITION" : 84,
        "TEXCOORD_0" : 85,
        "COLOR_0" : 86
      },
      "indices" : 87,
      "material" : 21,
      "mode" : 4
    } ]
  }, {
    "name" : "minecraft:oak_planks",
    "primitives" : [ {
      "attributes" : {
        "POSITION" : 88,
        "TEXCOORD_0" : 89,
        "COLOR_0" : 90
      },
      "indices" : 91,
      "material" : 22,
      "mode" : 4
    } ]
  }, {
    "name" : "minecraft:pointed_dripstone",
    "primitives" : [ {
      "attributes" : {
        "POSITION" : 92,
        "TEXCOORD_0" : 93,
        "COLOR_0" : 94
      },
      "indices" : 95,
      "material" : 23,
      "mode" : 4
    } ]
  }, {
    "name" : "minecraft:rail",
    "primitives" : [ {
      "attributes" : {
        "POSITION" : 96,
        "TEXCOORD_0" : 97,
        "COLOR_0" : 98
      },
      "indices" : 99,
      "material" : 24,
      "mode" : 4
    } ]
  }, {
    "name" : "minecraft:redstone_ore",
    "primitives" : [ {
      "attributes" : {
        "POSITION" : 100,
        "TEXCOORD_0" : 101,
        "COLOR_0" : 102
      },
      "indices" : 103,
      "material" : 25,
      "mode" : 4
    } ]
  }, {
    "name" : "minecraft:stone",
    "primitives" : [ {
      "attributes" : {
        "POSITION" : 104,
        "TEXCOORD_0" : 105,
        "COLOR_0" : 106
      },
      "indices" : 107,
      "material" : 26,
      "mode" : 4
    } ]
  } ],
  "nodes" : [ {
    "name" : "minecraft:andesite",
    "mesh" : 0
  }, {
    "name" : "minecraft:coal_ore",
    "mesh" : 1
  }, {
    "name" : "minecraft:cobweb",
    "mesh" : 2
  }, {
    "name" : "minecraft:copper_ore",
    "mesh" : 3
  }, {
    "name" : "minecraft:deepslate",
    "mesh" : 4
  }, {
    "name" : "minecraft:deepslate_coal_ore",
    "mesh" : 5
  }, {
    "name" : "minecraft:deepslate_copper_ore",
    "mesh" : 6
  }, {
    "name" : "minecraft:deepslate_iron_ore",
    "mesh" : 7
  }, {
    "name" : "minecraft:deepslate_lapis_ore",
    "mesh" : 8
  }, {
    "name" : "minecraft:deepslate_redstone_ore",
    "mesh" : 9
  }, {
    "name" : "minecraft:diamond_ore",
    "mesh" : 10
  }, {
    "name" : "minecraft:diorite",
    "mesh" : 11
  }, {
    "name" : "minecraft:dirt",
    "mesh" : 12
  }, {
    "name" : "minecraft:dripstone_block",
    "mesh" : 13
  }, {
    "name" : "minecraft:glow_lichen_emissive",
    "mesh" : 14
  }, {
    "name" : "minecraft:gold_ore",
    "mesh" : 15
  }, {
    "name" : "minecraft:granite",
    "mesh" : 16
  }, {
    "name" : "minecraft:gravel",
    "mesh" : 17
  }, {
    "name" : "minecraft:iron_ore",
    "mesh" : 18
  }, {
    "name" : "minecraft:lapis_ore",
    "mesh" : 19
  }, {
    "name" : "minecraft:oak_fence",
    "mesh" : 20
  }, {
    "name" : "minecraft:oak_log",
    "mesh" : 21
  }, {
    "name" : "minecraft:oak_planks",
    "mesh" : 22
  }, {
    "name" : "minecraft:pointed_dripstone",
    "mesh" : 23
  }, {
    "name" : "minecraft:rail",
    "mesh" : 24
  }, {
    "name" : "minecraft:redstone_ore",
    "mesh" : 25
  }, {
    "name" : "minecraft:stone",
    "mesh" : 26
  } ],
  "samplers" : [ {
    "magFilter" : 9728,
    "minFilter" : 9728,
    "wrapS" : 10497,
    "wrapT" : 10497
  } ],
  "scene" : 0,
  "scenes" : [ {
    "nodes" : [ 0, 1, 2, 3, 4, 5, 6, 7, 8, 9, 10, 11, 12, 13, 14, 15, 16, 17, 18, 19, 20, 21, 22, 23, 24, 25, 26 ]
  } ],
  "textures" : [ {
    "sampler" : 0,
    "source" : 0
  }, {
    "sampler" : 0,
    "source" : 1
  }, {
    "sampler" : 0,
    "source" : 2
  }, {
    "sampler" : 0,
    "source" : 3
  }, {
    "sampler" : 0,
    "source" : 4
  }, {
    "sampler" : 0,
    "source" : 5
  }, {
    "sampler" : 0,
    "source" : 6
  }, {
    "sampler" : 0,
    "source" : 7
  }, {
    "sampler" : 0,
    "source" : 8
  }, {
    "sampler" : 0,
    "source" : 9
  }, {
    "sampler" : 0,
    "source" : 10
  }, {
    "sampler" : 0,
    "source" : 11
  }, {
    "sampler" : 0,
    "source" : 12
  }, {
    "sampler" : 0,
    "source" : 13
  }, {
    "sampler" : 0,
    "source" : 14
  }, {
    "sampler" : 0,
    "source" : 15
  }, {
    "sampler" : 0,
    "source" : 16
  }, {
    "sampler" : 0,
    "source" : 17
  }, {
    "sampler" : 0,
    "source" : 18
  }, {
    "sampler" : 0,
    "source" : 19
  }, {
    "sampler" : 0,
    "source" : 20
  }, {
    "sampler" : 0,
    "source" : 21
  }, {
    "sampler" : 0,
    "source" : 22
  }, {
    "sampler" : 0,
    "source" : 23
  }, {
    "sampler" : 0,
    "source" : 24
  }, {
    "sampler" : 0,
    "source" : 25
  } ]
}